<?xml version="1.0" encoding="UTF-8"?>
<svg id="Capa_2" data-name="Capa 2" xmlns="http://www.w3.org/2000/svg" viewBox="0 0 47.13 61.5">
  <g id="Capa_1-2" data-name="Capa 1">
    <g>
      <path d="M47.07,18.3c-.04-.09-.09-.17-.16-.24L29.07.22c-.07-.07-.15-.12-.24-.16-.09-.04-.19-.06-.29-.06H.75c-.41,0-.75.34-.75.75v60c0,.41.34.75.75.75h45.63c.41,0,.75-.34.75-.75V18.59c0-.1-.02-.2-.06-.29ZM29.29,2.56l15.28,15.28h-15.28V2.56ZM1.5,60V1.5h26.29v17.09c0,.41.34.75.75.75h17.09v40.66H1.5Z" stroke-width="0"/>
      <path d="M24.75,30.18c.2.2.46.31.72.31s.5-.09.69-.28c.4-.38.41-1.02.03-1.41l-1.65-1.72c5.55.09,10.04,4.62,10.04,10.19,0,.14,0,.29,0,.43-.02.55.41,1.02.96,1.04.01,0,.03,0,.04,0,.53,0,.98-.42,1-.96,0-.17.01-.34.01-.51,0-6.52-5.14-11.84-11.58-12.17l1.3-1.25c.4-.38.41-1.02.03-1.41-.38-.4-1.02-.41-1.41-.03l-3.25,3.12c-.19.18-.3.44-.31.7,0,.27.1.52.28.71l3.12,3.23Z" stroke-width="0"/>
      <path d="M17.25,39.01c-.53-.15-1.08.17-1.23.7l-.65,2.36c-.78-1.47-1.19-3.1-1.19-4.8,0-3.92,2.19-7.43,5.71-9.16.5-.24.7-.84.46-1.34s-.84-.7-1.34-.46c-4.21,2.07-6.83,6.27-6.83,10.96,0,1.92.45,3.77,1.29,5.45l-1.96-.54c-.53-.15-1.08.16-1.23.7-.15.53.16,1.08.7,1.23l4.53,1.25c.09.02.18.04.27.04.17,0,.34-.04.49-.13.23-.13.4-.35.47-.6l1.22-4.42c.15-.53-.17-1.08-.7-1.23Z" stroke-width="0"/>
      <path d="M35.97,40.51c-.07-.26-.24-.47-.47-.6-.23-.13-.51-.16-.76-.09l-4.28,1.2c-.53.15-.84.7-.69,1.23.15.53.7.84,1.23.69l2.25-.63c-1.79,3.15-5.16,5.17-8.87,5.17-2.07,0-4.07-.62-5.77-1.79-.45-.31-1.08-.2-1.39.26-.31.46-.2,1.08.26,1.39,2.04,1.4,4.43,2.14,6.91,2.14,4.29,0,8.2-2.26,10.39-5.82l.47,1.7c.12.44.52.73.96.73.09,0,.18-.01.27-.04.53-.15.84-.7.7-1.23l-1.2-4.31Z" stroke-width="0"/>
    </g>
  </g>
</svg>