<?xml version="1.0" encoding="UTF-8"?>
<svg id="Capa_2" data-name="Capa 2" xmlns="http://www.w3.org/2000/svg" viewBox="0 0 45 60.14">
  <g id="Capa_1-2" data-name="Capa 1">
    <g>
      <path d="M18.77,39.99h-1.97c-.58,0-1.09-.28-1.37-.76-.29-.48-.29-1.05,0-1.52l2.1-3.5.02.09c.07.27.26.47.5.58.11.05.24.08.36.08.07,0,.13,0,.2-.02.47-.11.77-.56.66-1.02l-.49-2.03c-.11-.45-.56-.73-1.02-.64l-2.2.41c-.48.09-.79.53-.7.99.09.46.55.76,1.03.67l.15-.03-2.14,3.57c-.61,1.01-.61,2.21,0,3.22.6,1.01,1.69,1.61,2.9,1.61h1.97c.49,0,.88-.38.88-.85s-.4-.85-.88-.85Z" stroke-width="0"/>
      <path d="M22.95,26.7c.57,0,1.09.28,1.37.76l2.79,4.64-.11-.02c-.22-.05-.44-.01-.63.09-.21.11-.37.31-.43.55-.11.46.18.91.66,1.02l2.11.47c.07.01.13.02.2.02.39,0,.74-.25.85-.62l.59-2.08c.13-.45-.15-.92-.62-1.05-.47-.12-.96.14-1.08.6l-.04.14-2.76-4.6c-.61-1.01-1.69-1.61-2.9-1.61s-2.3.6-2.9,1.61l-1.28,2.12c-.24.41-.1.93.32,1.16.42.24.96.1,1.21-.31l.04-.07,1.23-2.05c.29-.48.8-.76,1.37-.76Z" stroke-width="0"/>
      <path d="M31.2,35.53c-.24-.4-.78-.54-1.2-.31-.42.23-.57.75-.32,1.16v.02s.8,1.31.8,1.31c.29.48.29,1.05,0,1.52-.29.48-.8.76-1.37.76h-5l.13-.13c.09-.1.16-.21.2-.33.09-.3.01-.64-.25-.87-.35-.32-.92-.3-1.25.05l-1.47,1.53c-.32.33-.31.85.02,1.18l1.59,1.53c.17.17.4.25.62.25s.45-.09.62-.25c.35-.33.35-.87,0-1.2l-.05-.04h4.83c1.21,0,2.3-.6,2.9-1.61.61-1.01.61-2.21,0-3.22l-.8-1.33Z" stroke-width="0"/>
      <path d="M13.09,52.95c0-1.33-1.11-2.42-2.48-2.42s-2.48,1.08-2.48,2.42,1.11,2.42,2.48,2.42,2.48-1.08,2.48-2.42ZM10.61,53.87c-.54,0-.98-.41-.98-.92s.44-.92.98-.92.98.41.98.92-.44.92-.98.92Z" stroke-width="0"/>
      <path d="M44.36,11.73c-.31-.36-.71-.64-1.17-.81l.35-4.01c.13-1.9-.62-3.76-2.03-5.08-1.5-1.4-3.54-2.04-5.6-1.76-4.93.67-21.03,2.85-21.14,2.87-4.5.72-7.8,2.57-9.84,5.48-.47-.26-1.01-.42-1.59-.42-1.84,0-3.33,1.5-3.33,3.33s1.5,3.34,3.33,3.34c.23,0,.46-.02.68-.07l1.1,2.25c.13.26.39.42.67.42h2.1l1.47,28.62c-3.37.59-5.94,3.53-5.94,7.07,0,3.96,3.22,7.18,7.18,7.18,1.07,0,2.08-.24,2.99-.66h22.58c2.13,0,3.89-1.62,4-3.69l1.58-30.88.39-7.65h.11c1.07,0,1.99-.61,2.44-1.48.18-.36.3-.76.3-1.18h0v-1.17h0c0-.65-.25-1.23-.64-1.69ZM39.07,12.26h3.19c.36,0,.67.14.9.37.21.21.34.49.34.8v1.17c0,.2-.07.38-.16.54-.21.37-.61.62-1.08.62h-3.19c.18-.35.28-.75.28-1.17v-1.17c0-.42-.1-.81-.28-1.17ZM14.99,4.41c.33-.05,20.89-2.83,21.11-2.86,1.62-.21,3.21.28,4.38,1.37,1.09,1.02,1.66,2.43,1.56,3.87l-.33,3.78H6.58c-.02-.07-.05-.14-.07-.21-.04-.13-.08-.27-.13-.39-.02-.04-.04-.07-.06-.1-.08-.17-.17-.33-.28-.48,1.79-2.64,4.81-4.32,8.95-4.98ZM1.5,11.33c0-1.01.82-1.83,1.83-1.83.48,0,.91.19,1.24.49,0,0,.01.02.02.02.37.35.58.82.58,1.32-.01.04-.03.08-.03.13-.05.68-.45,1.26-1.05,1.54-.02,0-.03.02-.04.03-.22.09-.46.14-.71.14-1.01,0-1.83-.82-1.83-1.84ZM5.37,13.95s0,0,0,0c.54-.43.94-1.01,1.14-1.69h30.08s0,0,0,0c.69,0,1.24.52,1.24,1.17v1.17c0,.64-.55,1.17-1.24,1.17H6.26l-.89-1.81ZM4.92,52.95c0-2.96,2.27-5.39,5.16-5.66.04,0,.08.02.12.02.08,0,.16-.02.24-.03.06,0,.11-.02.17-.02,3.13,0,5.68,2.55,5.68,5.68,0,.24-.02.48-.05.72,0,.07-.02.13-.03.2-.03.19-.07.37-.12.55-.01.05-.02.1-.04.15-.07.23-.15.45-.24.66-.02.04-.04.07-.05.11-.09.19-.19.38-.3.56-.02.03-.03.05-.05.08-.56.87-1.35,1.59-2.34,2.06-.03.01-.05.03-.07.05-.73.34-1.54.54-2.39.54-3.13,0-5.68-2.55-5.68-5.68ZM15.73,57.98c.32-.32.61-.68.86-1.06.04-.07.08-.13.12-.2.08-.12.15-.24.22-.37.07-.13.13-.27.19-.4.03-.07.07-.14.1-.22.07-.16.12-.32.18-.49.02-.06.04-.11.06-.17.05-.17.09-.35.13-.52.01-.05.03-.11.04-.16.04-.18.06-.36.08-.54,0-.06.02-.11.03-.17.02-.24.04-.48.04-.73s-.01-.49-.04-.73c0-.08-.02-.15-.03-.23-.02-.16-.04-.32-.07-.47-.02-.09-.05-.18-.07-.27-.03-.14-.06-.28-.11-.41-.03-.09-.07-.18-.1-.28-.04-.13-.09-.25-.14-.38-.04-.09-.09-.18-.13-.27-.06-.12-.11-.24-.17-.35-.05-.09-.1-.17-.16-.26-.07-.11-.13-.22-.2-.33-.06-.09-.12-.17-.18-.25-.07-.1-.15-.2-.22-.3-.07-.08-.14-.16-.21-.23-.08-.09-.16-.19-.25-.28-.07-.07-.15-.14-.23-.21-.09-.08-.18-.17-.27-.25-.08-.07-.17-.13-.25-.19-.1-.07-.19-.15-.29-.22-.09-.06-.18-.12-.27-.17-.1-.06-.2-.13-.31-.19-.1-.05-.19-.1-.29-.15-.11-.05-.21-.11-.33-.16-.1-.04-.21-.08-.31-.12-.11-.04-.22-.09-.34-.12-.11-.04-.22-.06-.33-.09-.12-.03-.23-.06-.35-.09-.11-.03-.23-.04-.34-.06-.12-.02-.24-.04-.35-.05-.12-.01-.24-.02-.36-.03-.08,0-.16-.02-.24-.02l-1.46-28.51h26.07l-1.97,38.45c-.07,1.27-1.16,2.26-2.5,2.26h-15.26ZM34.16,57.98c.49-.61.79-1.36.84-2.19l1.98-38.53h3.68l-.42,8.19-1.55,30.26c-.06,1.27-1.16,2.26-2.5,2.26h-2.02Z" stroke-width="0"/>
    </g>
  </g>
</svg>