<?xml version="1.0" encoding="UTF-8"?>
<svg id="Capa_2" data-name="Capa 2" xmlns="http://www.w3.org/2000/svg" viewBox="0 0 49.97 39.18">
  <g id="Capa_1-2" data-name="Capa 1">
    <g>
      <path d="M49.75,19.91c-.62-1.48-1.27-2.95-1.92-4.42l-.45-1.02c-.46-1.06-1.36-1.54-2.51-1.35-5.54.92-11.09,1.83-16.64,2.74l-9.51,1.56v-4.24h.45c.41,0,.75-.34.75-.75,0-.39,0-.77.01-1.16.01-.92.03-1.78-.03-2.67-.03-.42-.03-.47.46-.61l15.62-3.89c.84-.14,3.58-.73,3.58-2.36,0-.46-.17-.86-.5-1.17C38.38-.06,37.25,0,37,0,33.91.2,6.99,2.86,4.01,3.24,1.9,3.51.41,4.94.13,6.96-.05,8.24,0,9.54.04,10.8c.02.54.04,1.08.04,1.62,0,.41.34.75.75.75h.55v24.99c0,.41.34.75.75.75h15.87c.41,0,.75-.34.75-.75v-8.86l18.55-6.6c.1.18.18.35.26.52.49,1.15,1.45,1.64,2.71,1.37l1.74-.37c2.07-.44,4.15-.88,6.21-1.34.93-.21,1.35-.7,1.55-1.08.2-.38.35-1.02-.02-1.89ZM1.62,7.17c.19-1.36,1.13-2.25,2.59-2.44,2.97-.38,29.85-3.04,32.9-3.22,0,0,0,0,.01,0,.33-.02.8.05.96.2-.13.28-1.28.74-2.39.93l-15.7,3.91c-.78.23-1.67.67-1.57,2.16.06.83.04,1.66.03,2.55,0,.14,0,.28,0,.43H1.56c0-.31-.02-.62-.03-.92-.04-1.25-.08-2.43.08-3.58ZM48.43,21.12c-.07.13-.26.24-.54.3-2.06.46-4.13.9-6.2,1.34l-1.74.37c-.62.13-.83-.07-1.01-.49-.11-.27-.25-.52-.41-.81l-.21-.39c-.17-.33-.56-.49-.92-.36l-19.66,6.99c-.3.11-.5.39-.5.71v8.64H2.88V13.17h14.35v5.12c0,.22.1.43.26.57.17.14.39.21.61.17l10.38-1.7c5.55-.91,11.09-1.82,16.64-2.74.47-.08.7.04.89.47l.45,1.02c.64,1.46,1.29,2.93,1.91,4.4.11.27.14.49.07.62Z" stroke-width="0"/>
      <path d="M44.97,25.56h0c-.24,0-.46.11-.6.3-1.68,2.26-3.63,5.28-3.75,8.51-.05,1.34.38,2.57,1.23,3.47.8.85,1.92,1.32,3.14,1.34h.06c1.13,0,2.19-.44,2.98-1.25.88-.89,1.35-2.13,1.31-3.47-.08-3-1.5-5.51-3.76-8.6-.14-.19-.36-.31-.6-.31ZM46.95,36.88c-.52.53-1.22.79-1.96.8-.81-.01-1.55-.32-2.07-.87-.57-.6-.86-1.44-.82-2.38.1-2.46,1.48-4.88,2.86-6.84,1.74,2.47,2.8,4.57,2.87,6.92.03.93-.29,1.77-.88,2.37Z" stroke-width="0"/>
    </g>
  </g>
</svg>