<?xml version="1.0" encoding="UTF-8"?>
<svg id="Capa_2" data-name="Capa 2" xmlns="http://www.w3.org/2000/svg" viewBox="0 0 37.3 62.87">
  <g id="Capa_1-2" data-name="Capa 1">
    <g>
      <path d="M29,48.01c-.34-.24-.81-.15-1.04.19-.24.34-.15.81.19,1.04l6.23,4.32c.13.09.28.13.43.13.24,0,.47-.11.62-.32.24-.34.15-.81-.19-1.04l-6.23-4.32Z" stroke-width="0"/>
      <path d="M25.65,52.38c-.24-.33-.71-.41-1.05-.16-.33.24-.41.71-.16,1.05l4.48,6.11c.15.2.37.31.61.31.15,0,.31-.05.44-.15.33-.24.41-.71.16-1.05l-4.48-6.11Z" stroke-width="0"/>
      <path d="M9.57,47.87c-.24-.34-.7-.43-1.04-.19l-6.23,4.32c-.34.24-.43.7-.19,1.04.15.21.38.32.62.32.15,0,.3-.04.43-.13l6.23-4.32c.34-.24.43-.7.19-1.04Z" stroke-width="0"/>
      <path d="M11.87,52.06l-4.48,6.11c-.24.33-.17.8.16,1.05.13.1.29.15.44.15.23,0,.46-.11.61-.31l4.48-6.11c.24-.33.17-.8-.16-1.05-.33-.25-.8-.17-1.05.16Z" stroke-width="0"/>
      <path d="M18.65,53.79c-.41,0-.75.34-.75.75v7.58c0,.41.34.75.75.75s.75-.34.75-.75v-7.58c0-.41-.34-.75-.75-.75Z" stroke-width="0"/>
      <path d="M27.87,25.44c-1.04-.54-2.15-.93-3.23-1.32l-.48-.17c-.38-.14-.41-.15-.41-.8v-6.1c0-.41-.34-.75-.75-.75h-.7V.75c0-.41-.34-.75-.75-.75s-.75.34-.75.75v15.54h-4.23V.75c0-.41-.34-.75-.75-.75s-.75.34-.75.75v15.54h-.77c-.41,0-.75.34-.75.75v6.1c0,.66-.03.67-.41.8l-.48.17c-1.07.38-2.18.78-3.22,1.32C3.08,28.73-.59,35.3.08,42.16c.16,1.6,1.08,1.83,2.05,1.83h0c2.23,0,4.46,0,6.69,0,.55,5.01,4.75,8.85,9.87,8.85s9.32-3.83,9.87-8.84h6.59c.98,0,1.9-.22,2.06-1.82.67-6.86-3-13.43-9.35-16.72ZM18.7,51.33c-4.29,0-7.83-3.17-8.37-7.35h6.53s10.22,0,10.22,0c-.54,4.18-4.08,7.35-8.37,7.35ZM35.73,42.02c-.03.33-.09.42-.08.42-.02,0-.12.05-.48.05h-7.27s0,0,0,0h-9.24s-1.89,0-1.89,0h-2.39c-4.08,0-8.16,0-12.23,0h0c-.35,0-.45-.04-.46-.04,0,0,0,0,0,0,0,0-.06-.09-.1-.44-.61-6.25,2.75-12.23,8.55-15.25.95-.49,2.01-.87,3.04-1.23l.49-.17c1.17-.42,1.41-1.16,1.41-2.21v-5.35h7.2v5.35c0,1.06.24,1.8,1.41,2.21l.49.17c1.03.37,2.09.74,3.04,1.24,5.8,3.01,9.16,9,8.55,15.25Z" stroke-width="0"/>
    </g>
  </g>
</svg>