<?xml version="1.0" encoding="UTF-8"?>
<svg id="Capa_2" data-name="Capa 2" xmlns="http://www.w3.org/2000/svg" viewBox="0 0 71.5 48.29">
  <g id="Capa_1-2" data-name="Capa 1">
    <g>
      <path d="M43.88,34.25c-.76-.04-1.54.25-2.12.79-.58.54-.92,1.29-.95,2.05-.05,1.63,1.23,2.99,2.85,3.04.03,0,.06,0,.09,0,1.57,0,2.89-1.25,2.97-2.82.04-.76-.23-1.5-.76-2.08-.53-.59-1.3-.95-2.09-.99ZM43.75,38.63s-.04,0-.05,0c-.79-.02-1.42-.7-1.4-1.5,0-.36.18-.72.47-.99.27-.25.63-.4.97-.4.02,0,.04,0,.06,0,.4.02.78.2,1.05.5.25.28.39.63.37.99-.04.78-.69,1.4-1.47,1.4Z" stroke-width="0"/>
      <path d="M65.76,34.25c-.77-.03-1.54.25-2.12.79-.58.54-.92,1.29-.95,2.05-.04,1.63,1.24,2.99,2.85,3.04.03,0,.06,0,.09,0,1.57,0,2.89-1.25,2.97-2.82.04-.76-.23-1.5-.76-2.08-.54-.59-1.3-.95-2.09-.99ZM65.64,38.63s-.04,0-.05,0c-.79-.02-1.42-.7-1.4-1.5,0-.36.18-.72.47-.99.27-.25.62-.4.97-.4.02,0,.04,0,.06,0,.4.02.78.2,1.05.5.26.28.39.63.37.99-.04.78-.69,1.4-1.47,1.4Z" stroke-width="0"/>
      <path d="M71.42,38.46c0-1.23-.01-2.45-.03-3.68,0-.41-.13-.83-.33-1.15-.34-.53-.7-1.05-1.05-1.58-.25-.37-.5-.74-.75-1.11-.16-.24-.33-.52-.43-.78-.25-.66-.49-1.31-.72-1.97-.42-1.16-.86-2.36-1.33-3.53-.37-.9-.86-1.71-1.44-2.35-1.21-1.35-2.69-2.03-4.41-2.03h-.08c-2.87.04-5.74.03-8.61.02-1.06,0-2.12,0-3.18,0-.54,0-1.07-.11-1.75.1-2.13.67-3.61,2.04-4.39,4.07-.67,1.74-1.28,3.46-1.75,4.76-.27.77-.6,1.57-1.19,2.25-.3.34-.53.71-.76,1.07-.11.18-.23.36-.35.53-.48.68-.69,1.42-.66,2.27.03.74.01,1.48,0,2.22l-.04,2.77c-.02,1.59-.04,3.18-.04,4.77,0,1.61,1.13,2.93,2.71,3.12.23.03.45.04.67.04.15,0,.3,0,.44,0h.28c1.95-.03,3.24-1.31,3.28-3.27,0-.13,0-.25,0-.38,6.49.62,12.61.62,18.65.01,0,.24,0,.48.01.71.08,1.61,1.4,2.89,3.01,2.92.18,0,.37,0,.55,0,.17,0,.35,0,.53,0,.88.02,1.69-.3,2.31-.92.63-.62.97-1.49.95-2.37-.05-2.18-.06-4.36-.08-6.54ZM69.49,46.3c-.23.23-.59.52-1.21.48-.19,0-.38,0-.58,0-.17,0-.34,0-.5,0-.83-.02-1.51-.67-1.55-1.49-.01-.31,0-.62,0-.95v-.53c0-.21-.09-.42-.25-.56-.16-.14-.37-.21-.58-.19-6.47.72-13.01.72-20,0-.21-.02-.42.05-.58.19-.16.14-.25.34-.25.56v.41c0,.27,0,.52,0,.77-.02,1.16-.64,1.78-1.79,1.79h-.3c-.31.02-.61.02-.89-.01-.83-.1-1.4-.77-1.4-1.63,0-1.59.02-3.17.04-4.76l.04-2.76c.01-.77.03-1.54,0-2.31-.02-.52.1-.94.39-1.35.13-.19.26-.39.39-.59.21-.33.41-.64.64-.9.75-.87,1.16-1.87,1.47-2.73.46-1.29,1.07-3,1.73-4.72.62-1.61,1.75-2.65,3.44-3.18.31-.09.86-.04,1.31-.04,1.06,0,2.12,0,3.18,0,2.88,0,5.75.01,8.63-.02,1.3,0,2.41.48,3.35,1.53.46.51.86,1.17,1.16,1.92.47,1.14.9,2.33,1.31,3.47.24.67.48,1.33.73,1.99.16.41.38.77.59,1.08.25.38.51.75.76,1.13.35.51.7,1.02,1.03,1.54.05.08.09.23.1.35.01,1.22.02,2.45.03,3.67.01,2.19.03,4.38.08,6.56.01.47-.17.93-.51,1.27Z" stroke-width="0"/>
      <path d="M43.35,32.48s.07,0,.1,0c8.18-1.07,15.59-1.14,22.67-.21.26.04.51-.07.68-.27.17-.2.21-.47.13-.72-.21-.6-.41-1.2-.62-1.8-.5-1.48-1.02-3.01-1.6-4.5-.58-1.5-1.83-2.33-3.5-2.33h-1.92c-3.48.02-7.08.03-10.62-.01-1.95,0-3.34.97-3.96,2.79-.41,1.2-.83,2.4-1.25,3.6l-.69,1.98c-.04.11-.07.23-.1.38l-.04.18c-.06.24,0,.5.17.68.14.16.35.25.56.25ZM44.88,29.5c.42-1.2.84-2.4,1.25-3.61.41-1.19,1.21-1.78,2.47-1.78h.05c3.55.04,7.15.03,10.65.02h1.9s0,0,.01,0c1.06,0,1.74.45,2.1,1.38.57,1.46,1.08,2.97,1.58,4.44.08.23.15.45.23.68-6.51-.75-13.3-.68-20.71.21l.47-1.33Z" stroke-width="0"/>
      <path d="M58.73,34.25h-7.63c-1.2,0-2.17.98-2.17,2.17s.98,2.17,2.17,2.17h7.63c1.2,0,2.17-.98,2.17-2.17s-.98-2.17-2.17-2.17ZM58.73,37.09h-7.63c-.37,0-.67-.3-.67-.67s.3-.67.67-.67h7.63c.37,0,.67.3.67.67s-.3.67-.67.67Z" stroke-width="0"/>
      <path d="M47.8,8.5c.41,0,.75-.34.75-.75,0-3.45,2.8-6.25,6.25-6.25s6.25,2.8,6.25,6.25c0,3.19-2.41,5.83-5.5,6.21v-1.87h1.04c.97,0,1.76-.79,1.76-1.76v-3.53c0-.41-.34-.75-.75-.75h-.35v-1.96c0-.41-.34-.75-.75-.75s-.75.34-.75.75v1.96h-1.94v-1.96c0-.41-.34-.75-.75-.75s-.75.34-.75.75v1.96h-.48c-.41,0-.75.34-.75.75v3.53c0,.97.79,1.76,1.76,1.76h1.2v2.67c0,.41.34.75.75.75,4.27,0,7.75-3.48,7.75-7.75s-3.48-7.75-7.75-7.75-7.75,3.48-7.75,7.75c0,.41.34.75.75.75ZM52.59,10.32v-2.78h4.27v2.78c0,.14-.12.26-.26.26h-3.74c-.14,0-.26-.12-.26-.26Z" stroke-width="0"/>
      <path d="M34.67,28.81c-.39.01-.79,0-1.18,0-.43,0-.86,0-1.29,0-.08,0-.11,0-.07-.04l-.25-.62c-.47-1.17-.97-2.38-1.56-3.53-1.13-2.18-2.74-3.25-4.9-3.25h-.06c-3.9.03-9.04.06-14.21,0-2.4-.03-4.08,1.08-5.19,3.38-.58,1.21-1.12,2.46-1.64,3.68l-.16.37c-.57-.01-1.13-.01-1.7,0h-.59c-.24,0-.96,0-1.43.5C-.05,29.82,0,30.54,0,30.78c.05.98.63,1.73,1.63,2.08.17.06.39.12.62.18-.21.52-.42,1.03-.62,1.54-.12.3-.23.64-.23,1,0,3.49,0,6.98.03,10.47,0,1.37.87,2.23,2.24,2.23.69,0,1.37,0,2.06,0,.73,0,1.45,0,2.18,0,1.44,0,2.28-.85,2.28-2.31,0-.63,0-1.26,0-1.9v-.12h15.88v.17c0,.64,0,1.26,0,1.89.01,1.4.86,2.25,2.28,2.26,1.37,0,2.75,0,4.12,0,1.61,0,2.4-.8,2.4-2.43v-2.41c.03-2.41.04-4.83.03-7.24,0-.7-.2-1.39-.38-1.98-.13-.41-.29-.8-.46-1.19.13-.03.26-.06.39-.09,1.4-.41,2.13-1.68,1.74-3-.3-1.03-1.11-1.16-1.54-1.14ZM34.05,31.51c-.22.07-.45.1-.7.14-.15.02-.3.05-.46.08-.22.04-.42.18-.53.38-.11.2-.12.44-.03.65.08.21.17.41.26.61.2.46.39.89.53,1.33.15.47.31,1.03.31,1.53.02,2.41,0,4.81-.01,7.22v2.41c-.02.8-.14.93-.92.93-1.37,0-2.74,0-4.11,0-.59,0-.78-.19-.79-.77,0-.62,0-1.24,0-1.87v-.93c0-.41-.33-.75-.75-.75H9.46c-.41,0-.75.34-.75.75v.87c0,.63,0,1.26,0,1.88,0,.64-.17.81-.79.82-1.41,0-2.81,0-4.22,0-.57,0-.75-.18-.75-.74-.02-3.49-.03-6.97-.03-10.46,0-.14.09-.36.12-.46.23-.59.47-1.17.71-1.77l.24-.58c.08-.21.07-.44-.04-.64-.11-.2-.3-.34-.52-.38-.36-.07-1.02-.21-1.28-.3h0c-.54-.19-.63-.49-.64-.76-.01-.23.01-.32,0-.34.03-.01.12-.04.35-.04h.6c.58,0,1.15-.01,1.72,0,.64-.01,1.07-.27,1.32-.86l.18-.43c.51-1.2,1.05-2.43,1.62-3.62.84-1.75,2-2.53,3.75-2.53h.07c5.18.06,10.33.04,14.24,0,1.57-.02,2.75.76,3.62,2.44.57,1.09,1.04,2.26,1.5,3.4l.25.62c.28.67.78.99,1.51.97.41-.01.82-.01,1.23,0,.41,0,.83,0,1.25-.05,0,0,.02.03.04.11.16.53-.12.97-.72,1.14Z" stroke-width="0"/>
      <path d="M6.51,31.89h23.24c.34,0,.65-.29.74-.62.04-.17.04-.42-.04-.58-.21-.47-.42-.93-.63-1.4-.49-1.11-1-2.25-1.55-3.36-.72-1.46-1.91-2.14-3.55-2.12-3.91.07-7.89.05-11.74.03h-1.87s0,0-.01,0c-1.13,0-2,.47-2.59,1.4-.34.53-.66,1.13-.99,1.84-.4.87-.79,1.74-1.19,2.62l-.51,1.14c-.1.23-.08.5.05.71.14.21.38.34.63.34ZM7.7,30.3c.39-.88.78-1.74,1.18-2.6.3-.64.59-1.19.9-1.67.31-.49.72-.7,1.32-.7h1.88c3.86.03,7.85.05,11.78-.02,1.09-.03,1.73.36,2.18,1.28.54,1.08,1.04,2.22,1.53,3.31.07.16.15.33.22.49H7.66l.04-.09Z" stroke-width="0"/>
      <path d="M7.23,34.8c-.79-.04-1.53.24-2.11.79-.58.54-.93,1.29-.96,2.06-.03.78.26,1.53.8,2.11.54.58,1.28.91,2.06.94h0s.06,0,.09,0c1.59,0,2.91-1.25,2.97-2.83.06-1.61-1.21-2.98-2.85-3.05ZM7.06,39.19c-.38-.01-.74-.18-1.01-.46-.27-.29-.41-.65-.4-1.03.01-.37.19-.74.47-1.01.29-.26.66-.41,1.03-.39.8.04,1.45.72,1.42,1.5-.03.79-.72,1.42-1.51,1.39Z" stroke-width="0"/>
      <path d="M29.3,34.8c-.77-.04-1.54.25-2.12.8-.58.54-.92,1.29-.95,2.05-.04,1.63,1.24,2.99,2.85,3.04.03,0,.06,0,.09,0,1.57,0,2.89-1.25,2.97-2.82.04-.76-.23-1.5-.75-2.07-.53-.59-1.3-.95-2.09-.99ZM29.18,39.19s-.03,0-.04,0c-.79-.02-1.42-.7-1.4-1.5,0-.36.18-.72.47-.99.29-.27.67-.42,1.03-.4.4.02.78.2,1.05.5.25.28.39.63.37.99-.04.78-.69,1.4-1.47,1.4Z" stroke-width="0"/>
      <path d="M14.16,15.85h6.73c1.02,0,1.84-.83,1.84-1.84v-.68c.68.49,1.31.68,1.8.73.1,0,.2.02.3.02.75,0,1.47-.29,2.05-.82.64-.58.98-1.54.93-2.62-.06-1.36-.71-2.68-1.7-3.46-.61-.47-.67-1.83-.64-2.32V1.67c0-.41-.34-.75-.75-.75s-.75.34-.75.75v3.13c0,.11-.02.6.06,1.19h-1.3v-3.7c0-1.02-.83-1.84-1.84-1.84h-6.73c-1.02,0-1.84.83-1.84,1.84v11.71c0,1.02.83,1.84,1.84,1.84ZM24.49,7.49c.17.32.39.63.7.86.66.51,1.09,1.4,1.12,2.33.03.63-.14,1.17-.45,1.45-.34.31-.75.46-1.19.41-.65-.07-1.33-.55-1.95-1.34v-3.72h1.76ZM13.81,2.29c0-.19.16-.34.34-.34h6.73c.19,0,.34.16.34.34v11.71c0,.19-.16.34-.34.34h-6.73c-.19,0-.34-.16-.34-.34V2.29Z" stroke-width="0"/>
      <path d="M15.58,7.04h3.89c.41,0,.75-.34.75-.75v-2.33c0-.41-.34-.75-.75-.75h-3.89c-.41,0-.75.34-.75.75v2.33c0,.41.34.75.75.75ZM16.33,4.71h2.39v.83h-2.39v-.83Z" stroke-width="0"/>
    </g>
  </g>
</svg>