<?xml version="1.0" encoding="UTF-8"?>
<svg id="Capa_2" data-name="Capa 2" xmlns="http://www.w3.org/2000/svg" viewBox="0 0 70.85 47.71">
  <g id="Capa_1-2" data-name="Capa 1">
    <g>
      <path d="M30.81,28.52s-.07-.02-.11-.03c-1.01-.28-2.16-.45-3.48-.45h0s-.01,0-.02,0c-.02,0-.04,0-.06,0-.16-.11-.43-.32-.73-.64,1.79-.36,3.86-1.06,5.47-2.81.41-.45.92-1.18.53-2.25,0,0,0,0,0,0-.12-.34-.2-.73-.28-1.13l-.08-.44c-.18-.88-.39-1.76-.59-2.63-.44-1.92-.9-3.91-1.15-5.87-.79-6.21-5.76-10.69-11.93-10.62-5.31.05-10.01,3.78-11.18,8.87-.71,3.12-1.35,6.31-1.97,9.39l-.59,2.91c-.09.42.02.93.26,1.25,1.16,1.57,3.25,2.52,6.04,2.78-.05.05-.08.1-.13.15-.49.52-.92.88-1.13,1.06-1.21.03-2.27.18-3.21.44,0,0,0,0-.01,0-5.01,1.37-6.47,5.59-6.47,8.27v4.92l.11,5.29c0,.41.34.73.75.73h35.46c.41,0,.74-.33.75-.73l.11-5.31v-4.9c0-2.66-1.44-6.85-6.37-8.25ZM9.62,29.54l.46.55,3.42,4.11-1.9,1.89-3.84-6.36c.57-.1,1.18-.17,1.85-.19ZM11.03,28.88c.25-.22.56-.51.89-.86.5-.53.89-1.02,1.22-1.5,0,0,0,0,0,0,.01-.02.02-.03.03-.05.15-.22.29-.44.41-.65,0,0,0-.01,0-.02.49-.85.74-1.59.88-2.2l.06.06c.32.29.65.55.98.77.21.14.42.24.63.35.12.06.24.15.36.2.21.09.41.14.62.2.13.04.26.1.39.13.18.04.37.04.55.06.15.01.3.05.46.05,0,0,0,0,.01,0,.01,0,.02,0,.03,0,.32,0,.64-.04.97-.11.01,0,.03,0,.04,0,.32-.07.64-.18.95-.32.03-.01.06-.02.09-.03.31-.14.62-.31.92-.51.04-.02.08-.05.11-.07.3-.2.59-.43.89-.69.03-.02.05-.04.08-.06.11.31.24.65.39,1.02,0,0,0,0,0,0,.14.34.31.7.49,1.06.02.03.03.07.05.1.17.34.36.67.56,1.01.03.06.07.11.1.16.05.07.09.15.14.22.01.02.04.03.05.05.16.25.33.49.51.72.39.48.78.84,1.08,1.08l-7.42,8.79-3.4-4.02s-.05-.1-.1-.15c-.02-.02-.04-.03-.06-.04l-3.84-4.54-.17-.2ZM13.14,19.61c-.14-.24-.26-.48-.38-.73-.06-.11-.12-.23-.17-.34-.1-.22-.19-.45-.28-.68-.06-.15-.12-.31-.17-.46-.07-.21-.13-.42-.19-.64-.05-.19-.1-.39-.14-.58-.04-.19-.08-.38-.12-.58-.04-.25-.07-.5-.1-.76-.02-.16-.04-.31-.05-.47-.03-.42-.04-.85-.03-1.29,0-.1,0-.19,0-.28,0-.03,0-.05,0-.08,0-.05,0-.1.01-.14,0-.03.02-.06.02-.09,0-.02.01-.05.02-.07.01-.03.03-.06.06-.09,0,0,.01-.02.02-.03.03-.03.07-.05.11-.07,0,0,0,0,.01,0,.15-.06.39-.08.77-.08.1,0,.21,0,.33,0l.9.11c.79.1,1.68.21,2.58.34,1.84.26,3.76.19,6.24-.24.66-.11,1.39-.18,2.25-.21.56-.03.67.02.75.66.26,2.1-.41,4.01-1.11,5.59-.15.35-.32.68-.49,1-.13.24-.27.47-.41.7-.03.05-.07.11-.1.16-.35.55-.74,1.05-1.17,1.51-.17.19-.34.38-.53.55-1.09,1.02-2.14,1.54-3.17,1.57-.74.02-1.47-.22-2.21-.69-.3-.19-.59-.41-.89-.68,0,0-.02-.02-.03-.03-.26-.24-.5-.48-.73-.73-.1-.11-.21-.22-.31-.34,0,0,0,0,0,0-.49-.56-.92-1.16-1.29-1.78-.01-.02-.03-.04-.04-.07ZM27.57,29.54c.68.02,1.3.09,1.88.2l-3.83,6.35-1.94-1.94,3.9-4.61ZM12.1,25.38c-.18.01-.36.02-.53,0-1.82-.1-4.24-.57-5.43-2.19,0-.02-.02-.08-.01-.1l.59-2.91c.62-3.07,1.26-6.25,1.96-9.35,1.01-4.42,5.1-7.66,9.73-7.71.04,0,.07,0,.11,0,5.3,0,9.64,3.9,10.32,9.31.26,2.04.72,4.06,1.17,6.02.2.87.4,1.74.58,2.61l.08.41c.09.45.17.91.34,1.37.08.23.09.38-.23.72-1.21,1.32-2.82,2.06-5.35,2.48-.07-.11-.14-.22-.2-.34-.03-.05-.06-.09-.08-.14-.13-.23-.25-.46-.36-.69-.01-.03-.02-.05-.04-.08-.35-.73-.62-1.43-.79-1.95,0,0,0,0,0,0-.06-.17-.1-.33-.14-.46.36-.43.69-.9,1-1.4.07-.12.15-.24.22-.36.1-.17.2-.35.3-.53.19-.35.37-.71.53-1.08.73-1.67,1.53-3.9,1.22-6.38-.17-1.33-.87-1.98-2.15-1.98-.04,0-.09,0-.14,0-.93.03-1.73.11-2.45.23-2.31.4-4.1.47-5.77.23-.9-.13-1.81-.24-2.6-.34l-.93-.12s-.06,0-.08,0c-1.88-.02-2.91.34-2.95,2.38-.01.48,0,.96.04,1.42.01.18.04.35.05.53.03.28.06.55.11.82.04.22.08.44.13.66.04.21.09.41.15.62.06.25.13.49.21.73.05.15.11.29.16.44.1.28.2.55.32.82,0,.01.01.03.02.04.46,1.01,1.05,1.96,1.77,2.85.06.07.11.14.16.21,0,0,0,.01,0,.02,0,.02,0,.05,0,.07,0,.07,0,.14-.02.22,0,.04,0,.08-.01.12,0,.09-.02.2-.04.3,0,.03,0,.06-.01.09-.05.29-.13.63-.27,1.01,0,.02-.02.05-.03.07-.06.16-.14.33-.22.51-.02.05-.04.09-.07.14-.1.2-.21.4-.35.61,0,.01-.01.02-.02.03ZM35.68,41.65l-.1,4.56H1.6l-.1-4.54v-4.9c0-2.55,1.32-5.42,4.76-6.63l4.56,7.55c.12.2.32.33.55.36.03,0,.06,0,.09,0,.2,0,.39-.08.53-.22l2.48-2.47,3.49,4.2c.14.17.35.27.57.27h0c.22,0,.43-.1.57-.27l3.59-4.25,2.53,2.52c.14.14.33.22.53.22.03,0,.06,0,.09,0,.23-.03.43-.16.55-.36l4.55-7.54c3.42,1.22,4.73,4.08,4.73,6.62v4.88Z" stroke-width="0"/>
      <path d="M70.73,32.96c-.71-4.7-6.45-6.15-9.21-6.85,0,0,0,0,0,0,0,0,0,0,0,0-.01,0-.02,0-.03,0-.04-.03-.08-.06-.13-.08-2.55-.95-2.73-3.75-2.73-4.46.81-.77,1.42-1.64,1.82-2.28l.21-.35c.57-.92,1.19-1.92,1.51-3.29.83-2.53,1.37-4.79,1.32-7.53-.12-5.96-5.35-8.12-8.83-8.12s-8.85,2.76-8.99,8.67c-.05,2.18.41,5.57,1.87,8.57.06.12.15.22.26.3.1.24.2.47.32.7.02.04.04.07.06.11.17.34.35.66.54.97.02.04.05.08.07.12.19.3.38.58.57.84.07.1.15.2.22.29.19.24.38.47.56.67.06.06.11.11.17.17.12.13.24.25.36.36-.12,3.1-1.62,3.96-2.82,4.32h-.17c-.07,0-.14,0-.2.03-2.49.7-7.14,2.01-8.44,5.26-.85,2.11-.51,14.23-.47,15.61.01.41.34.73.75.73h30.7c.41,0,.74-.33.75-.73.03-1.26.24-12.34,0-14.02ZM50.59,19.45c-.09-.12-.18-.25-.27-.38-.09-.13-.18-.25-.26-.39-.05-.08-.1-.17-.15-.26-.18-.29-.35-.6-.5-.93-.04-.08-.08-.16-.11-.24-.09-.2-.18-.4-.26-.61,0,0,0,0,0,0-.17-.45-.3-.89-.4-1.33-.05-.2-.09-.4-.12-.61-.02-.13-.04-.26-.05-.39-.04-.35-.06-.71-.05-1.06,0,0,0,0,0,0,.01-.44.15-.87.29-1.31.1-.32.21-.65.26-1,.1-.59.12-1.18.13-1.69.01-.4.03-.72.06-.98.09-.78.31-1,.99-1.1.05,0,.13,0,.21,0,.02,0,.04,0,.06,0,.29.04.71.16,1.14.28.08.02.17.05.25.07.14.04.28.08.42.12.03,0,.07.02.1.02.7.18,1.48.34,2.31.35h.03c1.14,0,2.18-.3,3.11-.56.01,0,.03,0,.04-.01.27-.08.52-.15.77-.21.1-.02.2-.05.3-.07.05,0,.09-.02.13-.02.16-.03.3-.04.43-.04.02,0,.03,0,.05,0,.13,0,.24.03.32.08.09.06.16.15.21.26,0,.02.02.03.02.05.04.08.06.19.08.29.01.04.02.08.03.13.04.22.06.46.06.71,0,.04,0,.08,0,.11v.36c.01.25.02.52.04.78.01.2.02.4.05.6.08.63.21,1.08.33,1.47.03.1.05.19.08.28.02.09.05.17.07.26.03.15.06.3.07.47,0,0,0,.02,0,.03.02.32.03.62.02.91,0,.2-.02.38-.04.56-.03.28-.07.57-.14.85,0,0,0,0,0,0-.1.42-.23.81-.41,1.21,0,0,0,.02,0,.03,0,0,0,0,0,.01,0,.01-.01.02-.02.03-.27.57-.58,1.08-.91,1.62l-.18.29c-.58.94-1.24,1.72-1.93,2.29-.2.17-.41.32-.61.45-.07.05-.15.09-.23.13-.12.07-.25.14-.37.2-.1.05-.19.08-.29.12-.11.04-.21.08-.32.1-.1.03-.2.05-.29.07-.07.01-.14.02-.21.03-.2.02-.39.03-.59.02-.05,0-.1,0-.15-.01-.22-.02-.44-.07-.66-.14-.03,0-.05-.01-.08-.02-.51-.17-1.02-.46-1.53-.88-.15-.12-.31-.28-.48-.45-.05-.05-.1-.1-.15-.15-.15-.16-.31-.34-.47-.54-.07-.09-.14-.18-.21-.28ZM47.14,8.71c.12-4.92,4.54-7.21,7.49-7.21,2.49,0,7.22,1.39,7.33,6.65.02.85-.03,1.66-.13,2.44-.02-.1-.04-.18-.05-.29,0,0,0,0,0,0,0-.04,0-.08,0-.12-.04-.36-.05-.72-.05-1.08,0-.16,0-.33-.01-.5h0s0,0,0,0c-.01-.3-.03-.61-.08-.9,0,0,0,0,0,0,0,0,0,0,0,0-.03-.18-.07-.35-.12-.52,0,0,0,0,0,0-.02-.07-.04-.15-.07-.21,0,0,0,0,0-.01-.07-.18-.18-.35-.3-.51-.03-.03-.05-.07-.08-.1-.12-.14-.26-.28-.44-.39-.16-.1-.33-.17-.5-.22-.03-.01-.07-.02-.1-.03-.32-.08-.66-.09-1.02-.04-.06,0-.12.02-.18.03-.1.02-.2.03-.31.06-.03,0-.07.01-.1.02-.02,0-.04.01-.06.02-.32.07-.65.16-.98.26,0,0-.01,0-.02,0-.83.24-1.76.5-2.69.5h-.03c-.75,0-1.47-.17-2.15-.35-.19-.05-.37-.1-.54-.15-.2-.06-.39-.11-.57-.16-.48-.13-.91-.21-1.3-.18-.05,0-.09,0-.14,0-2.24.32-2.29,2.09-2.34,3.52-.01.49-.03,1-.11,1.49-.03.2-.09.4-.15.6,0,0,0,.02,0,.02-.13-.97-.18-1.86-.16-2.6ZM52.07,22.79c.18.1.37.18.55.26.02,0,.04.02.06.03,0,0,.01,0,.02,0,.01,0,.02,0,.04.01.25.1.5.17.76.22.03,0,.05.02.08.02.03,0,.07,0,.1.01.25.04.51.07.76.07.01,0,.02,0,.03,0h0s0,0,.01,0c.54,0,1.09-.1,1.62-.29.06-.02.12-.04.18-.07.19-.07.38-.16.57-.26.09-.05.18-.09.27-.14.02-.01.04-.02.06-.03.25,1.6,1.12,3.65,3.26,4.62-.03.12-.06.24-.09.36-.91,3.77-2.18,7.47-3.73,10.86-.03-.69-.08-1.38-.13-2.09-.05-.57-.14-1.17-.23-1.77-.16-1.07-.33-2.18-.2-3.01.04-.26.2-.5.39-.78.3-.45.68-1.02.6-1.84-.04-.38-.36-.67-.75-.67h-3.21c-.36,0-.67.25-.74.61-.16.82.22,1.42.52,1.9.22.34.4.64.45,1.02.09.76-.06,1.85-.21,2.9-.08.6-.17,1.21-.21,1.77-.04.43-.06.85-.09,1.27-.02.33-.04.66-.07.98-.77-1.76-1.54-3.57-2.22-5.46,0,0,0-.01,0-.02-.33-.93-.64-1.87-.93-2.85,0-.03-.02-.07-.03-.1-.27-.94-.52-1.91-.73-2.91,0-.05-.02-.09-.03-.14,1.85-.75,2.94-2.27,3.25-4.53ZM55.33,29.85c-.03.05-.07.11-.11.17-.19.28-.41.61-.54,1.03-.14-.4-.34-.72-.52-1-.05-.08-.09-.14-.13-.2h1.3ZM69.25,46.21h-29.23c-.13-5.12-.14-12.97.39-14.28.86-2.14,3.8-3.31,6.95-4.23.08.37.17.73.26,1.1.03.14.06.28.1.41.13.52.27,1.02.41,1.52.03.11.06.22.09.33.16.52.32,1.04.49,1.55.03.08.05.16.08.24.18.53.37,1.06.56,1.58.02.05.04.11.06.16.2.54.41,1.07.62,1.6.01.03.03.07.04.1.22.54.44,1.08.67,1.61,0,.02.02.04.03.06.22.5.43,1.01.65,1.5.26.59.52,1.18.78,1.76l.23.51c.13.29.43.48.73.44.31-.02.58-.23.67-.53.33-1.1.41-2.38.5-3.73.03-.41.05-.83.09-1.24.04-.54.12-1.12.2-1.69.03-.22.06-.45.09-.67.03.19.06.37.08.56.09.56.17,1.12.22,1.67.08,1.01.13,2.01.17,2.98.03.67.06,1.33.1,1.97.02.34.26.62.59.68.05.01.1.02.16.02,0,0,.02,0,.02,0,.12,0,.24-.04.34-.09.02,0,.03-.02.04-.03.1-.07.2-.16.26-.27,2.34-4.47,4.05-9.06,5.2-14.02,3.63.98,6.89,2.37,7.35,5.43.18,1.22.08,9.22,0,13.03Z" stroke-width="0"/>
    </g>
  </g>
</svg>