<svg xmlns="http://www.w3.org/2000/svg" viewBox="0 0 105.21 99.54"><defs><style>.cls-1{stroke:#000;stroke-linecap:round;stroke-miterlimit:10;stroke-width:1.73px;}</style></defs><title>Recurso 17Roles</title><g id="Capa_2" data-name="Capa 2"><g id="Capa_1-2" data-name="Capa 1"><path class="cls-1" d="M95.12,70.7a52.87,52.87,0,0,0-6.88-7.85A57.11,57.11,0,0,0,77.9,55.23l-.12-.08a1.37,1.37,0,0,0-2,.27A31.39,31.39,0,0,1,65.73,62a34.15,34.15,0,0,1-31.41-2.71,31.88,31.88,0,0,1-5.19-4.07c-.34-.33-.62-.63-1.25-.29-.27.15-.5.34-.76.49a52.22,52.22,0,0,0-10.87,8.1A51.51,51.51,0,0,0,7.77,74.29a52.76,52.76,0,0,0-6,15.08c-.23,1-.38,2-.6,3a10,10,0,0,1-.3,1.2v2A4,4,0,0,0,5.1,98.67H75.48q12.27,0,24.54,0a4.1,4.1,0,0,0,4.33-3.07v-2c-.28-.27-.23-.65-.28-1a1.42,1.42,0,0,0,0-.22,52.74,52.74,0,0,0-3-10.88A50.93,50.93,0,0,0,95.12,70.7Z"/><path class="cls-1" d="M52.6,60.08A29.61,29.61,0,1,0,23,30.48,29.67,29.67,0,0,0,52.6,60.08Z"/></g></g></svg>