<svg xmlns="http://www.w3.org/2000/svg" viewBox="0 0 68.73 102.51"><defs><style>.cls-1{fill:#337bb4;}.cls-2{fill:#fff;}.cls-3{fill:#357cb4;}</style></defs><title>Recurso 8Energéticos</title><g id="Capa_2" data-name="Capa 2"><g id="Capa_1-2" data-name="Capa 1"><path class="cls-1" d="M4.18,15.7C12.92,3.27,25.25-1.56,39.84.44c12.32,1.68,22.44,7.71,27,20.1,3.67,9.93,1.9,19.2-5.25,27.22-3.9,4.37-7.66,8.83-9.86,14.36-.42,1.05-.72,2.15-1,3.24a2.27,2.27,0,0,0,.72,2.47c2.4,2.39,2.84,5.06,1.25,7.94a1.92,1.92,0,0,0,0,2.12c1.46,2.84,1.24,5.5-1.11,7.8a2,2,0,0,0-.49,2.1c.86,4.64-1,7.39-5.66,8.23a2.73,2.73,0,0,0-2,1.37c-4.69,6.79-13.41,6.83-18,.08A3,3,0,0,0,23.35,96c-4.76-.9-6.56-3.72-5.49-8.44a1.66,1.66,0,0,0-.46-1.72c-2.35-2.35-2.85-5-1.2-7.95a2.11,2.11,0,0,0-.05-2.18c-1.56-3.3-1.23-5.43,1.34-7.88,1.22-1.17.72-2.37.41-3.54A29.34,29.34,0,0,0,13.2,55a63.37,63.37,0,0,0-5-6.13,38.13,38.13,0,0,1-5.69-8,24.88,24.88,0,0,1-2-16.24A24.39,24.39,0,0,1,4.18,15.7Z"/><path class="cls-2" d="M59.27,35.16a15.6,15.6,0,0,1-4.22,7.28c-3.86,4.12-7.48,8.4-9.94,13.55a25.8,25.8,0,0,0-2.65,8.28c-.15,1.36-.72,1.94-2.2,1.9-3.91-.1-7.83,0-11.75,0-1,0-1.66-.16-1.88-1.43C25.16,56.5,21,49.7,15.12,43.94,7.35,36.28,7.8,27.57,10.6,21.69c2.67-5.61,7.36-8.94,13-11.15,10.16-4,19.68-2.46,28.49,3.69a17.38,17.38,0,0,1,7.23,10.23A20.76,20.76,0,0,1,59.27,35.16Z"/><path class="cls-3" d="M35.69,19.23c4.54.31,8.62,1.61,11.69,5.23a7.86,7.86,0,0,1,1.92,5.07,2,2,0,0,1-1.77,2.31A1.91,1.91,0,0,1,45.3,30c-.61-4.15-3.83-5.24-7.15-6.21a13.8,13.8,0,0,0-2.74-.37c-1.53-.12-3.07-.52-3-2.32S34.18,19.16,35.69,19.23Z"/></g></g></svg>