<svg xmlns="http://www.w3.org/2000/svg" viewBox="0 0 870.17 972.33"><defs><style>.cls-1{fill:#1472b7;}.cls-2{fill:none;stroke:#fff;stroke-linecap:round;stroke-linejoin:round;stroke-width:54px;}</style></defs><title>Recurso 1Datos Maestros</title><g id="Capa_2" data-name="Capa 2"><g id="Capa_1-2" data-name="Capa 1"><path d="M691.67,615.33a178.07,178.07,0,0,1,65.49,12.4c18.72-9.36,33.19-19.26,42.84-29.33V448c-21.09,14.48-48.45,27.15-80.4,37.87-67.36,23.55-160.77,40-277.89,43.25q-20.88.64-41.69.67c-13.91,0-27.88-.22-41.83-.67-117.45-3.22-211-19.81-278.45-43.47C48.06,475,20.94,462.38,0,448V598.4c45.54,47.54,198.3,91.38,400,91.38a1260.79,1260.79,0,0,0,153.58-9.06A178.15,178.15,0,0,1,691.67,615.33Z"/><path d="M356.58,479.31c1.84.07,3.72.08,5.58.13,5.22.14,10.42.29,15.71.37q11,.19,22.13.19t22.13-.18c5.28-.08,10.49-.22,15.71-.36l5.58-.13c180.05-5.75,314.37-46.64,356.58-90.69V238.22C722.13,291.71,557.5,320,400,320S77.89,291.71,0,238.22v150.4C42.21,432.69,176.53,473.58,356.58,479.31Z"/><path d="M400,272c202.93,0,354.62-43.73,400-91.1V144a14.79,14.79,0,0,0-2.16-7.33C779.89,67.86,641.84,0,400,0,158.77,0,20.86,67.52,2.35,136.16A15.53,15.53,0,0,0,0,144v36.9C45.39,228.27,197.07,272,400,272Z"/><path d="M523.46,734c-38,3.37-79.2,5.22-123.46,5.22C202.46,739.22,66.14,702.58,0,656V787.22a15.05,15.05,0,0,0,1.87,7.21c18.9,78.32,188,136.79,398.13,136.79,58.6,0,114-4.55,163.84-12.81A178.66,178.66,0,0,1,523.46,734Z"/><path class="cls-1" d="M757.16,627.73a178.53,178.53,0,1,0,113,166.1A178.07,178.07,0,0,0,757.16,627.73Z"/><polygon class="cls-2" points="691.5 793.67 691.5 911.67 691.5 793.67 573.5 793.67 691.5 793.67 691.5 675.67 691.5 793.67 809.5 793.67 691.5 793.67"/></g></g></svg>