<svg xmlns="http://www.w3.org/2000/svg" viewBox="0 0 148.95 117.16"><defs><style>.cls-1{fill:none;}.cls-2{fill:#030104;}.cls-3{fill:#010002;}.cls-4{fill:#2f7dbf;}</style></defs><title>Recurso 4Servicios</title><g id="Capa_2" data-name="Capa 2"><g id="Capa_1-2" data-name="Capa 1"><path class="cls-1" d="M70.64,60.74a8.59,8.59,0,0,0-8.59-8.58,8.48,8.48,0,0,0-4.48,1.28V65.56H55a8.58,8.58,0,0,0,15.68-4.82Z"/><path class="cls-1" d="M37.65,24.81V9.8H15.75V47.87l11-10.28-3.3-3.29L32.69,25,44.26,36.61,35,45.86,31.7,42.55,15.75,59.61v1H37.92v-2.2a2.2,2.2,0,0,1,1.95-2.19l3.2-.36a19.08,19.08,0,0,1,1.81-4.59l-2-2.53A2.19,2.19,0,0,1,43,45.85l3.67-3.67A2.2,2.2,0,0,1,49.63,42L52,43.91c.2-.12.42-.23.62-.34V24.81Zm-5.94-.5-9,9a1.44,1.44,0,0,1-2,0,1.47,1.47,0,0,1,0-2.07l9-9a1.43,1.43,0,0,1,2.05,0A1.45,1.45,0,0,1,31.71,24.31ZM47.05,39.64l-9,9a1.43,1.43,0,0,1-2,0,1.45,1.45,0,0,1,0-2.06l9-9a1.45,1.45,0,0,1,2.06,2Z"/><path class="cls-1" d="M70,95.28a5.72,5.72,0,1,0,5.65,5.79A5.71,5.71,0,0,0,70,95.28Z"/><polygon class="cls-1" points="101.13 41.82 93.84 22.51 86.55 41.82 101.13 41.82 101.13 41.82"/><polygon class="cls-1" points="41.34 12.79 41.34 21.12 49.36 21.12 41.34 12.79"/><polygon class="cls-1" points="128.54 41.82 143.12 41.82 143.12 41.82 135.83 22.51 128.54 41.82"/><path class="cls-1" d="M98.73,74.14a7,7,0,1,0,7.59,6.41A7,7,0,0,0,98.73,74.14Z"/><path class="cls-2" d="M93.84,15.6a2.6,2.6,0,0,0,2.49-1.87A28.59,28.59,0,0,0,99,12.49c2-1,4.29-2.16,6.65-2.16a5.82,5.82,0,0,1,4.49,1.94,5.05,5.05,0,0,0-.06.68,4.76,4.76,0,1,0,9.51,0,5.05,5.05,0,0,0-.07-.68,5.88,5.88,0,0,1,4.5-1.94c2.36,0,4.64,1.15,6.64,2.16.92.46,1.81.91,2.68,1.24a2.6,2.6,0,0,0,2.49,1.87,2.65,2.65,0,0,0,0-5.3,2.61,2.61,0,0,0-1.91.84c-.65-.28-1.35-.63-2.07-1C129.58,9,127,7.7,124,7.7a8.39,8.39,0,0,0-5.67,2.07,4.78,4.78,0,0,0-2.07-1.33A3.07,3.07,0,0,0,118,5.73C118,4,114.83,0,114.83,0s-3.11,4-3.11,5.73a3.07,3.07,0,0,0,1.67,2.71,4.72,4.72,0,0,0-2.07,1.33,8.41,8.41,0,0,0-5.67-2.07c-3,0-5.56,1.3-7.83,2.45-.72.37-1.42.71-2.07,1a2.64,2.64,0,1,0-1.91,4.46Z"/><path class="cls-2" d="M145.92,41.82l-8.86-23.5a1.37,1.37,0,0,0-2.46,0l-8.86,23.5h-3a13.89,13.89,0,0,0,26.24,0Zm-2.8,0H128.54l7.29-19.31,7.29,19.31Z"/><path class="cls-2" d="M128,62.82h-5.29a7.83,7.83,0,0,0-5.21-7.06V25a4.93,4.93,0,0,0,2.31-4.17H109.9A4.93,4.93,0,0,0,112.21,25V55.76A7.84,7.84,0,0,0,107,62.82h-5.35a2.06,2.06,0,0,1,.14.44l.43,2.09a15.89,15.89,0,0,1,4,1.3l1.51-1.41a2.16,2.16,0,0,1,2.89-.08l2.74,2.31a2.26,2.26,0,0,1,.48.59h16.71V65.44A2.63,2.63,0,0,0,128,62.82Z"/><path class="cls-2" d="M93.84,51.15A13.94,13.94,0,0,0,107,41.82h-3L95.07,18.33a1.37,1.37,0,0,0-2.46,0L83.75,41.82h-3A13.93,13.93,0,0,0,93.84,51.15Zm0-28.64,7.29,19.31H86.55Z"/><path class="cls-3" d="M29.66,22.26l-9,9a1.47,1.47,0,0,0,0,2.07,1.44,1.44,0,0,0,2,0l9-9a1.45,1.45,0,0,0,0-2.06A1.43,1.43,0,0,0,29.66,22.26Z"/><path class="cls-3" d="M37.92,63.63v-3H15.75v-1l16-17.06L35,45.86l9.25-9.25L32.69,25,23.44,34.3l3.3,3.29-11,10.28V9.8h21.9v15h15V43.57a19.51,19.51,0,0,1,4.27-1.73l.35-3a2.31,2.31,0,0,1,.3-.87V22.56l-17-17.69H10.83V52.48L0,62.6l6.68,6.7,4.15-4.43v.69H39.08A2.18,2.18,0,0,1,37.92,63.63Zm3.42-50.84,8,8.33h-8Z"/><path class="cls-3" d="M45,37.59l-9,9a1.45,1.45,0,0,0,0,2.06,1.43,1.43,0,0,0,2,0l9-9a1.45,1.45,0,0,0-2.06-2Z"/><path class="cls-4" d="M57.06,83A2.2,2.2,0,0,0,59.25,85h5.19A2.19,2.19,0,0,0,66.62,83L67,79.69a19.52,19.52,0,0,0,4.67-1.88l2.59,2a2.2,2.2,0,0,0,2.92-.17L80.85,76A2.19,2.19,0,0,0,81,73.09l-2-2.55A19.48,19.48,0,0,0,80.93,66L84,65.59a2.2,2.2,0,0,0,2-2.18V58.22A2.2,2.2,0,0,0,84,56l-3-.36a19.48,19.48,0,0,0-1.84-4.54L81,48.76a2.21,2.21,0,0,0-.17-2.92l-3.66-3.66A2.19,2.19,0,0,0,74.26,42L72,43.84a19.06,19.06,0,0,0-4.77-2l-.35-3a2.2,2.2,0,0,0-2.18-2h-5.2A2.2,2.2,0,0,0,57.57,38a2.31,2.31,0,0,0-.3.87l-.35,3a19.51,19.51,0,0,0-4.27,1.73c-.2.11-.42.22-.62.34L49.63,42a2.2,2.2,0,0,0-2.92.16L43,45.85a2.19,2.19,0,0,0-.16,2.92l2,2.53a19.08,19.08,0,0,0-1.81,4.59l-3.2.36a2.2,2.2,0,0,0-1.95,2.19v5.19a2.18,2.18,0,0,0,1.16,1.93,2.09,2.09,0,0,0,.79.25l3.37.39A20.11,20.11,0,0,0,45,70.4l-2.13,2.68A2.21,2.21,0,0,0,43,76l3.67,3.67a2.19,2.19,0,0,0,2.92.16l2.67-2.11a19.41,19.41,0,0,0,4.36,1.84ZM55,65.56a8.59,8.59,0,0,1,7.09-13.4A8.59,8.59,0,1,1,55,65.56Z"/><path class="cls-4" d="M110.65,65.17a2.16,2.16,0,0,0-2.89.08l-1.51,1.41a15.89,15.89,0,0,0-4-1.3l-.43-2.09a2.06,2.06,0,0,0-.14-.44,2.2,2.2,0,0,0-2.17-1.3l-3.57.31a2.18,2.18,0,0,0-2,2.09l-.07,2.13a15.56,15.56,0,0,0-3.85,2l-1.81-1.2a2.17,2.17,0,0,0-2.86.41L83,70.05a2.15,2.15,0,0,0,.08,2.88l1.58,1.69a16.38,16.38,0,0,0-1.17,3.86l-2.26.46a2.2,2.2,0,0,0-1.74,2.32l.31,3.57a2.16,2.16,0,0,0,2.09,2l2.45.08a15.58,15.58,0,0,0,1.73,3.31L84.7,92.27a2.17,2.17,0,0,0,.41,2.86l2.74,2.31a2.17,2.17,0,0,0,2.89-.07l1.79-1.68a16.34,16.34,0,0,0,3.68,1.2l.49,2.45A2.19,2.19,0,0,0,99,101.08l3.57-.31a2.16,2.16,0,0,0,2-2.09l.08-2.4a16.1,16.1,0,0,0,3.68-1.86l2,1.3a2.16,2.16,0,0,0,2.86-.41l2.31-2.74a2.16,2.16,0,0,0-.08-2.88L113.82,88a15.7,15.7,0,0,0,1.25-3.88l2.18-.44A2.2,2.2,0,0,0,119,81.36l-.31-3.57a2.16,2.16,0,0,0-2.09-2l-2.19-.07a16.13,16.13,0,0,0-1.81-3.59l1.19-1.79a2.16,2.16,0,0,0,.09-2.28,2.26,2.26,0,0,0-.48-.59Zm-10.74,23a7,7,0,1,1,6.41-7.6A7,7,0,0,1,99.91,88.15Z"/><path class="cls-4" d="M84,98l-1.4-.19a12.83,12.83,0,0,0-1.2-3l.88-1.08a2.16,2.16,0,0,0-.13-2.89L80.56,89.2a2.17,2.17,0,0,0-2.89-.2l-1,.81a13.07,13.07,0,0,0-3.16-1.38l-.14-1.36a2.18,2.18,0,0,0-2.14-1.95l-2.2,0A2.18,2.18,0,0,0,66.79,87l-.17,1.36a12.65,12.65,0,0,0-3.28,1.34l-1.09-.89a2.16,2.16,0,0,0-2.88.13l-1.59,1.55a2.17,2.17,0,0,0-.2,2.88l.93,1.21a13,13,0,0,0-1.24,3l-1.52.16a2.17,2.17,0,0,0-2,2.14l0,2.2a2.17,2.17,0,0,0,1.9,2.18l1.62.21a12.49,12.49,0,0,0,1.15,2.81l-1,1.28a2.18,2.18,0,0,0,.13,2.89l1.54,1.58a2.19,2.19,0,0,0,2.89.2l1.3-1a13.18,13.18,0,0,0,2.88,1.26l.18,1.67a2.16,2.16,0,0,0,2.14,1.94l2.2,0a2.17,2.17,0,0,0,2.18-1.9l.2-1.58a13,13,0,0,0,3.13-1.22l1.22,1a2.18,2.18,0,0,0,2.89-.13l1.57-1.54a2.17,2.17,0,0,0,.2-2.89l-.93-1.21a12.62,12.62,0,0,0,1.32-3l1.45-.15a2.16,2.16,0,0,0,1.94-2.14l0-2.2A2.15,2.15,0,0,0,84,98Zm-14.14,8.75a5.72,5.72,0,1,1,5.79-5.65A5.72,5.72,0,0,1,69.81,106.72Z"/></g></g></svg>