<svg xmlns="http://www.w3.org/2000/svg" viewBox="0 0 93.11 96.7"><defs><style>.cls-1{fill:#2f7dbb;}.cls-2,.cls-3{fill:#1e1e1c;}.cls-3{font-size:1.91px;font-family:gobCL-Light, gobCL;}.cls-4{fill:#404040;}.cls-5{fill:gray;}.cls-6{fill:#dfdfdf;}</style></defs><title>Recurso 12Reportes</title><g id="Capa_2" data-name="Capa 2"><g id="Capa_1-2" data-name="Capa 1"><rect class="cls-1" x="52.86" y="16.83" width="40.26" height="3.86" rx="1.93" ry="1.93"/><rect class="cls-1" x="52.86" y="8.39" width="40.26" height="3.86" rx="1.93" ry="1.93"/><rect class="cls-1" x="52.37" y="25.27" width="40.26" height="3.86" rx="1.93" ry="1.93"/><rect class="cls-1" x="52.86" y="33.72" width="40.26" height="3.86" rx="1.93" ry="1.93"/><rect class="cls-1" x="2.08" y="67.38" width="40.26" height="3.86" rx="1.93" ry="1.93"/><rect class="cls-1" x="2.08" y="58.93" width="40.26" height="3.86" rx="1.93" ry="1.93"/><rect class="cls-1" x="1.6" y="75.82" width="40.26" height="3.86" rx="1.93" ry="1.93"/><rect class="cls-1" x="2.08" y="84.26" width="40.26" height="3.86" rx="1.93" ry="1.93"/><line class="cls-2" x1="2.62" y1="48.46" x2="43.35" y2="48.46"/><line class="cls-2" x1="2.62" y1="48.46" x2="2.62" y2="47.27"/><line class="cls-2" x1="9.41" y1="48.46" x2="9.41" y2="47.27"/><line class="cls-2" x1="16.19" y1="48.46" x2="16.19" y2="47.27"/><line class="cls-2" x1="22.98" y1="48.46" x2="22.98" y2="47.27"/><line class="cls-2" x1="29.77" y1="48.46" x2="29.77" y2="47.27"/><line class="cls-2" x1="36.56" y1="48.46" x2="36.56" y2="47.27"/><line class="cls-2" x1="43.35" y1="48.46" x2="43.35" y2="47.27"/><text class="cls-3" transform="translate(0.99 49.19)">0</text><text class="cls-3" transform="translate(0.99 39.67)">2</text><text class="cls-3" transform="translate(0.99 30.15)">4</text><text class="cls-3" transform="translate(0.99 20.63)">6</text><text class="cls-3" transform="translate(0.99 11.11)">8</text><text class="cls-3" transform="translate(0 1.6)">10</text><line class="cls-2" x1="2.62" y1="48.46" x2="2.62" y2="0.88"/><line class="cls-2" x1="2.62" y1="48.46" x2="3.64" y2="48.46"/><line class="cls-2" x1="2.62" y1="38.95" x2="3.64" y2="38.95"/><line class="cls-2" x1="2.62" y1="29.43" x2="3.64" y2="29.43"/><line class="cls-2" x1="2.62" y1="19.91" x2="3.64" y2="19.91"/><line class="cls-2" x1="2.62" y1="10.39" x2="3.64" y2="10.39"/><line class="cls-2" x1="2.62" y1="0.88" x2="3.64" y2="0.88"/><rect class="cls-2" x="3.57" y="0.88" width="4.89" height="47.59"/><rect class="cls-2" x="10.36" y="10.39" width="4.89" height="38.07"/><rect class="cls-2" x="17.14" y="24.67" width="4.89" height="23.79"/><rect class="cls-2" x="23.93" y="29.43" width="4.89" height="19.04"/><rect class="cls-2" x="30.72" y="29.43" width="4.89" height="19.04"/><rect class="cls-2" x="37.51" y="38.95" width="4.89" height="9.52"/><path class="cls-4" d="M73,77.63,63.74,61A18.39,18.39,0,0,1,73,58.56Z"/><path class="cls-5" d="M73,77.63,54.27,81.27A18.77,18.77,0,0,1,63.74,61Z"/><path class="cls-6" d="M73,77.63,84.2,93.06a19.07,19.07,0,0,1-26.64-4.22,18,18,0,0,1-3.29-7.57Z"/><path d="M73,77.63V58.56A19.07,19.07,0,0,1,92.06,77.63,18.5,18.5,0,0,1,84.2,93.06Z"/></g></g></svg>