<svg xmlns="http://www.w3.org/2000/svg" viewBox="0 0 145.9 68.51"><defs><style>.cls-1{fill:#2f7dbf;}</style></defs><title>Recurso 2Usuarios</title><g id="Capa_2" data-name="Capa 2"><g id="Capa_1-2" data-name="Capa 1"><path class="cls-1" d="M41.35,49.48a32.25,32.25,0,0,1,5.27-6.7,32.67,32.67,0,0,1,6.75-5,37.12,37.12,0,0,0-5.61-4,.85.85,0,0,0-1.21.16A19.5,19.5,0,0,1,40.28,38a21.19,21.19,0,0,1-19.51-1.68,20.1,20.1,0,0,1-3.22-2.52c-.21-.21-.39-.39-.78-.18A32.52,32.52,0,0,0,.56,55,26.16,26.16,0,0,1,0,57.59v1.23a2.51,2.51,0,0,0,2.63,1.91H37.25c.13-.62.23-1.26.37-1.88A32.91,32.91,0,0,1,41.35,49.48Z"/><path class="cls-1" d="M32.12,36.77A18.39,18.39,0,1,0,13.74,18.39,18.43,18.43,0,0,0,32.12,36.77Z"/><path class="cls-1" d="M145.73,57a32.55,32.55,0,0,0-5.55-13.62,33,33,0,0,0-4.28-4.87,35.61,35.61,0,0,0-6.49-4.78.85.85,0,0,0-1.21.16A19.5,19.5,0,0,1,121.93,38a21.19,21.19,0,0,1-19.51-1.68,19.66,19.66,0,0,1-3.22-2.52c-.21-.21-.39-.39-.78-.18a32.66,32.66,0,0,0-5.75,4.07,35.92,35.92,0,0,1,6.42,4.73,32.54,32.54,0,0,1,4.28,4.88,32.26,32.26,0,0,1,5.52,13.48h34.33a2.54,2.54,0,0,0,2.68-1.91V57.59C145.73,57.42,145.76,57.19,145.73,57Z"/><path class="cls-1" d="M113.77,36.77A18.39,18.39,0,1,0,95.39,18.39,18.43,18.43,0,0,0,113.77,36.77Z"/><path class="cls-1" d="M99.48,51.14a32.54,32.54,0,0,0-4.28-4.88,35.72,35.72,0,0,0-6.41-4.73l-.08-.05a.86.86,0,0,0-1.21.17,19.29,19.29,0,0,1-6.27,4.08A21.24,21.24,0,0,1,61.72,44a19.06,19.06,0,0,1-3.21-2.52c-.22-.2-.39-.39-.78-.18-.17.09-.31.21-.47.3a32.19,32.19,0,0,0-12,11.73,33,33,0,0,0-3.73,9.36c-.15.63-.24,1.26-.38,1.89a5.11,5.11,0,0,1-.18.75V66.6a2.51,2.51,0,0,0,2.63,1.91h58.94a2.54,2.54,0,0,0,2.69-1.9V65.37c-.18-.17-.14-.41-.17-.62a.61.61,0,0,1,0-.13,33.07,33.07,0,0,0-1.87-6.76A32.42,32.42,0,0,0,99.48,51.14Z"/><path class="cls-1" d="M73.07,44.54A18.38,18.38,0,1,0,54.69,26.16,18.43,18.43,0,0,0,73.07,44.54Z"/></g></g></svg>