<svg xmlns="http://www.w3.org/2000/svg" viewBox="0 0 133.66 111.38"><defs><style>.cls-1{fill:#010002;}</style></defs><title>Recurso 3Instituciones</title><g id="Capa_2" data-name="Capa 2"><g id="Capa_1-2" data-name="Capa 1"><polygon class="cls-1" points="13.86 91.82 119.8 91.82 119.8 97.53 127.95 97.53 127.95 105.68 133.66 105.68 133.66 111.38 0 111.38 0 105.68 5.7 105.68 5.7 97.53 13.86 97.53 13.86 91.82"/><rect class="cls-1" x="19.56" y="30.7" width="94.54" height="5.43"/><rect class="cls-1" x="22.5" y="39.26" width="11.7" height="49.5"/><rect class="cls-1" x="48.3" y="39.26" width="11.7" height="49.5"/><rect class="cls-1" x="74.1" y="39.26" width="11.7" height="49.5"/><rect class="cls-1" x="99.9" y="39.26" width="11.7" height="49.5"/><path class="cls-1" d="M66.83,0,8.42,24.45V28H125.24V24.45ZM66.6,22.16a8.1,8.1,0,1,1,8.1-8.1A8.1,8.1,0,0,1,66.6,22.16Z"/></g></g></svg>