<svg xmlns="http://www.w3.org/2000/svg" viewBox="0 0 84.4 117.08"><defs><style>.cls-1{fill:#2f7dbf;}.cls-2{fill:#fcfcfc;}.cls-3{fill:#fff;}.cls-4{fill:#fcfbfb;}</style></defs><title>Recurso 5Edificios</title><g id="Capa_2" data-name="Capa 2"><g id="Capa_1-2" data-name="Capa 1"><path class="cls-1" d="M42.91,7.14H68.85c1.17,0,1.17,0,1.17,1.2v3.35c0,1.2,0,1.2-1.17,1.2h-52c-1.09,0-1.09,0-1.09-1.13V8.34c0-1.2,0-1.2,1.16-1.2Z"/><path class="cls-1" d="M42.84,5.76H28.22c-1,0-1,0-1-1,0-1.3,0-2.61,0-3.92,0-.6.19-.85.82-.85h29.8c.63,0,.82.26.81.85,0,1.36,0,2.71,0,4.07,0,.67-.26.85-.89.85C52.77,5.75,47.8,5.76,42.84,5.76Z"/><path class="cls-1" d="M11.41,63.41v-48c0-1.17,0-1.22,1.18-1.22H74.67c1.11,0,1.17.06,1.17,1.17v96.14c0,1.06,0,1.06,1,1.06h6.56c.82,0,.95.13,1,1s0,1.8,0,2.7c0,.63-.23,1-.88.9H1.28c-1.25,0-1.28,0-1.28-1.27v-2.28c0-.88.12-1,1-1h9.48c.94,0,.95,0,.95-.94Z"/><path class="cls-2" d="M21.55,84c1.18,0,2.37,0,3.56,0,.6,0,.86.25.86.86q0,3.58,0,7.19c0,.61-.27.85-.87.85q-3.55,0-7.13,0c-.63,0-.9-.25-.89-.89,0-2.38,0-4.75,0-7.13,0-.64.27-.89.9-.88C19.17,84,20.36,84,21.55,84Z"/><path class="cls-2" d="M35.85,22.68c1.17,0,2.33,0,3.49,0,.65,0,.89.27.89.9q0,3.57,0,7.13c0,.6-.24.87-.85.87q-3.6,0-7.2,0c-.61,0-.85-.27-.85-.87,0-2.38,0-4.75,0-7.13,0-.63.24-.91.89-.9C33.43,22.69,34.64,22.68,35.85,22.68Z"/><path class="cls-3" d="M42.23,101.27h9.69c.9,0,.94,0,.94.91,0,3.18,0,6.36,0,9.55,0,.66-.18.92-.89.92q-9.8,0-19.59,0c-.7,0-.89-.25-.89-.92,0-3.19,0-6.37,0-9.55,0-.87,0-.91.94-.91Z"/><path class="cls-4" d="M65.72,77c-1.14,0-2.28,0-3.42,0-.6,0-.86-.17-.85-.81q0-3.45,0-6.91c0-.63.25-.81.85-.81q3.42,0,6.84,0c.67,0,.85.25.85.89,0,2.25,0,4.51,0,6.76,0,.71-.25.91-.92.89C68,77,66.83,77,65.72,77Z"/><path class="cls-2" d="M21.52,47.06c-1.16,0-2.33,0-3.49,0-.54,0-.77-.17-.77-.74q0-3.52,0-7c0-.51.18-.73.71-.73h7.12c.53,0,.7.24.69.74q0,3.53,0,7c0,.57-.25.74-.78.73C23.85,47,22.68,47.06,21.52,47.06Z"/><path class="cls-2" d="M47.21,72.74c0-1.14,0-2.28,0-3.42,0-.6.17-.86.81-.85q3.45,0,6.9,0c.64,0,.82.25.82.85q0,3.42,0,6.84c0,.67-.25.85-.88.85-2.26,0-4.52,0-6.77,0-.7,0-.91-.25-.89-.92C47.24,75,47.21,73.86,47.21,72.74Z"/><path class="cls-4" d="M47.2,42.8c0-1.14,0-2.28,0-3.42,0-.6.17-.85.81-.85q3.45,0,6.91,0c.63,0,.81.25.81.85q0,3.42,0,6.84c0,.67-.25.86-.88.85q-3.39,0-6.77,0c-.71,0-.91-.25-.89-.92C47.24,45,47.2,43.92,47.2,42.8Z"/><path class="cls-2" d="M70,42.87c0,1.12,0,2.24,0,3.35,0,.6-.17.85-.81.85q-3.45,0-6.91,0c-.64,0-.81-.25-.81-.85q0-3.42,0-6.84c0-.67.25-.85.89-.85,2.25,0,4.51,0,6.76,0,.71,0,.91.26.89.92C69.94,40.59,70,41.73,70,42.87Z"/><path class="cls-2" d="M70,88.42c0,1.14,0,2.28,0,3.42,0,.6-.17.85-.81.85q-3.45,0-6.91,0c-.63,0-.81-.25-.81-.85q0-3.42,0-6.84c0-.67.25-.85.88-.85,2.26,0,4.52,0,6.77,0,.71,0,.91.25.89.92C69.94,86.19,70,87.3,70,88.42Z"/><path class="cls-4" d="M51.39,92.68c-1.12,0-2.23,0-3.35,0-.6,0-.85-.18-.85-.82q0-3.45,0-6.9c0-.64.25-.82.85-.82q3.42,0,6.84,0c.67,0,.86.25.85.89,0,2.25,0,4.51,0,6.76,0,.71-.25.91-.92.89C53.67,92.65,52.53,92.68,51.39,92.68Z"/><path class="cls-2" d="M35.76,77c-1.16,0-2.32,0-3.49,0-.55,0-.76-.2-.75-.76,0-2.35,0-4.69,0-7,0-.52.2-.73.72-.72h7.12c.48,0,.68.2.68.68,0,2.37,0,4.75,0,7.12,0,.52-.2.73-.72.72C38.14,77,37,77,35.76,77Z"/><path class="cls-2" d="M31.52,58.41c0-1.12,0-2.23,0-3.35,0-.6.17-.85.81-.84q3.45,0,6.9,0c.64,0,.82.25.81.85q0,3.41,0,6.83c0,.67-.26.86-.89.85-2.25,0-4.51,0-6.76,0-.71,0-.91-.25-.89-.92C31.56,60.69,31.52,59.55,31.52,58.41Z"/><path class="cls-2" d="M47.21,58.42c0-1.12,0-2.24,0-3.35,0-.6.16-.86.8-.85q3.47,0,6.91,0c.63,0,.82.23.82.84q0,3.42,0,6.84c0,.59-.17.86-.81.85-2.3,0-4.61,0-6.91,0-.63,0-.83-.24-.81-.84C47.23,60.74,47.21,59.58,47.21,58.42Z"/><path class="cls-4" d="M65.71,62.74c-1.16,0-2.32,0-3.49,0-.54,0-.77-.18-.77-.75q0-3.53,0-7c0-.51.17-.73.7-.73h7.12c.54,0,.7.24.7.74,0,2.35,0,4.7,0,7,0,.57-.24.75-.78.74C68,62.72,66.88,62.74,65.71,62.74Z"/><path class="cls-4" d="M65.71,31.38c-1.16,0-2.32,0-3.49,0-.53,0-.77-.17-.77-.74q0-3.53,0-7c0-.57.25-.74.78-.73,2.33,0,4.65,0,7,0,.54,0,.78.17.77.74q0,3.52,0,7c0,.57-.24.74-.78.73C68,31.36,66.88,31.38,65.71,31.38Z"/><path class="cls-2" d="M47.24,27.05c0-1.14,0-2.28,0-3.42,0-.57.21-.75.76-.74,2.33,0,4.65,0,7,0,.51,0,.73.18.72.7,0,2.35,0,4.71,0,7.06,0,.53-.21.7-.72.7-2.33,0-4.65,0-7,0-.55,0-.77-.18-.76-.74C47.26,29.42,47.24,28.23,47.24,27.05Z"/><path class="cls-2" d="M18,31.27c-.5,0-.67-.17-.67-.66,0-2.33,0-4.65,0-7,0-.49.17-.67.66-.66q3.49,0,7,0c.49,0,.67.16.66.66,0,2.33,0,4.65,0,7,0,.49-.16.67-.66.66"/><path class="cls-2" d="M21.58,68.6c1.12,0,2.23,0,3.35,0,.54,0,.75.14.75.72q0,3.41,0,6.83c0,.54-.15.76-.72.75q-3.42,0-6.84,0c-.54,0-.76-.14-.75-.72q0-3.42,0-6.83c0-.63.23-.77.79-.75C19.3,68.62,20.44,68.6,21.58,68.6Z"/><path class="cls-2" d="M21.52,62.63c-1.16,0-2.32,0-3.48,0-.5,0-.67-.16-.67-.66q0-3.48,0-7c0-.49.17-.66.67-.66,2.32,0,4.65,0,7,0,.5,0,.67.17.66.66q0,3.49,0,7c0,.49-.16.67-.66.66C23.85,62.61,22.69,62.63,21.52,62.63Z"/><path class="cls-2" d="M35.85,84.28c1.14,0,2.28,0,3.42,0,.5,0,.66.17.66.66,0,2.33,0,4.65,0,7,0,.5-.17.66-.66.66-2.33,0-4.65,0-7,0-.5,0-.66-.17-.66-.66,0-2.33,0-4.65,0-7,0-.5.17-.67.66-.66C33.48,84.29,34.67,84.28,35.85,84.28Z"/><path class="cls-2" d="M31.64,42.73c0-1.14,0-2.28,0-3.42,0-.5.17-.66.66-.66,2.33,0,4.65,0,7,0,.5,0,.66.17.66.66q0,3.49,0,7c0,.5-.17.66-.66.66-2.33,0-4.65,0-7,0-.5,0-.67-.17-.66-.66C31.65,45.1,31.64,43.91,31.64,42.73Z"/></g></g></svg>