<svg xmlns="http://www.w3.org/2000/svg" viewBox="0 0 78.03 111.86"><defs><style>.cls-1{stroke:#000;stroke-linecap:round;stroke-miterlimit:10;stroke-width:1.9px;}.cls-2{fill:#09f;}</style></defs><title>Recurso 11Empresas Distribuidoras</title><g id="Capa_2" data-name="Capa 2"><g id="Capa_1-2" data-name="Capa 1"><polygon class="cls-1" points="76.77 59.25 61.89 48.52 66.58 4.23 37.9 52.61 52.78 63.35 48.08 107.63 76.77 59.25"/><path class="cls-2" d="M28.68,30.28a29.58,29.58,0,0,0-4.92,4.89A32.9,32.9,0,0,0,16.34,51a35.65,35.65,0,0,0,.55,13.18A45.17,45.17,0,0,0,22.28,78a12.3,12.3,0,0,1-2.59-.86A30.71,30.71,0,0,1,9.62,70.62,21.12,21.12,0,0,1,3.25,53.8c.48-9.29,4.21-17.24,10-24.36A74.25,74.25,0,0,1,34.47,11.72c.15-.09.32-.16.49-.24a3.91,3.91,0,0,1-.19,1.61c-.63,4.41.59,8.44,2.55,12.31A120.78,120.78,0,0,0,44,36.18c2.64,4.12,5.15,8.33,6.23,13.16,2.27,10.14-.31,18.77-8.31,25.6a16.6,16.6,0,0,1-4.68,2.68c-.27.11-.54.34-.91.15a38.81,38.81,0,0,0,3.81-6.5A14.25,14.25,0,0,0,40,58.91c-.92-2-2.09-3.89-3.14-5.83a28.1,28.1,0,0,1-2.71-6.93c-2.32,2.79-2.45,6-2.27,9.32a2.54,2.54,0,0,1-1-1A20.21,20.21,0,0,1,27.69,45a44.74,44.74,0,0,1,.82-13.75C28.56,31,28.6,30.72,28.68,30.28Z"/><path class="cls-2" d="M28.72,94c-9.22,0-18.45,0-27.67,0C.16,94,0,93.71,0,92.89c.06-2,0-4.11,0-6.17A5.56,5.56,0,0,1,5.65,81.2c.65,0,.77.21.75.79,0,1.62,0,3.24,0,4.86,0,.54.09.78.71.76q2.52-.06,5,0c.56,0,.67-.19.66-.7,0-1.62,0-3.24,0-4.86,0-.62.11-.88.8-.85,1.62,0,3.25,0,4.86,0,.59,0,.74.16.73.73,0,1.62,0,3.24,0,4.86,0,.68.2.84.84.82q2.38-.06,4.77,0c.64,0,.86-.14.84-.82,0-1.62,0-3.24,0-4.86,0-.56.12-.75.71-.73,1.65,0,3.31,0,5,0,.61,0,.72.21.71.75,0,1.62,0,3.25,0,4.87,0,.58.11.81.76.79,1.65,0,3.3,0,4.95,0,.61,0,.73-.19.72-.75,0-1.62,0-3.24,0-4.86,0-.56.08-.83.75-.8,1.65,0,3.3,0,4.95,0,.53,0,.7.14.69.68,0,1.68,0,3.37,0,5.05,0,.53.14.69.68.68,1.68,0,3.36,0,5,0,.52,0,.69-.13.68-.67,0-1.68,0-3.37,0-5,0-.5.1-.68.65-.69a5.54,5.54,0,0,1,5.71,5.52c0,2.09-.06,4.18,0,6.27,0,.89-.29,1-1.05,1C47.17,93.94,38,94,28.72,94Z"/></g></g></svg>