<svg xmlns="http://www.w3.org/2000/svg" viewBox="0 0 96.03 86.24"><defs><style>.cls-1{fill:#2f7dbc;opacity:0.1;}.cls-2{fill:#010101;}.cls-3{fill:#337bb4;}.cls-4{fill:#fff;}.cls-5{fill:#f3ccbf;}.cls-6{fill:#357cb4;}.cls-13,.cls-7,.cls-8{fill:none;stroke-miterlimit:10;}.cls-7{stroke:#e1de4f;}.cls-7,.cls-8{stroke-width:0.97px;}.cls-8{stroke:#1d1d1b;}.cls-9{fill:#020203;}.cls-10{fill:#020202;}.cls-11{fill:#010202;}.cls-12{fill:#f9f9f9;}.cls-13{stroke:#2f7dbc;stroke-width:1.95px;}</style></defs><title>Recurso 10Unidades</title><g id="Capa_2" data-name="Capa 2"><g id="Capa_1-2" data-name="Capa 1"><rect class="cls-1" x="2.1" y="0.97" width="93.93" height="84.29" rx="10.32" ry="10.32"/><path class="cls-2" d="M79.91,83.45c-.55-.29-.68-.77-.93-1.23a2.6,2.6,0,0,0-.74-.81,6.18,6.18,0,0,0-2.48-1c-.31-.39-.08-.84-.15-1.26s.07-.44.41-.43c.88,0,1.76,0,2.63,0a.51.51,0,0,0,.59-.48,3.37,3.37,0,0,0,0-.55V62.56a1.68,1.68,0,0,1,0-.55,1,1,0,0,0-.13-.92.69.69,0,0,0-.16-.22.92.92,0,0,0-.62-.17c-.8.08-1.07.68-1.26,1.33a11.47,11.47,0,0,0-.4,2.18c-.07.78-.11,1.56-.13,2.34,0-.1,0-.19-.07-.29l0-.12c-.17-.53-.35-1-.53-1.57a.37.37,0,0,0,0-.11,5,5,0,0,0-1.38-1.88l-.1-.06a3,3,0,0,0-3-.38,4.64,4.64,0,0,0-.7.45,3.17,3.17,0,0,0-1,1.94,1.38,1.38,0,0,1-.37.73,7.06,7.06,0,0,1-4.44,2.08c-.45,0-.89.15-1.34.17a1.69,1.69,0,0,0-1.68,1.41.59.59,0,0,0,0,.13.48.48,0,0,0,.07.23c.16.27.11.41-.22.42a.35.35,0,0,0-.34.23c-.06.27-.26.3-.49.3H58c-.29,0-.54,0-.55.42,0,.17-.11.23-.26.23-.31,0-.62,0-.93,0a.37.37,0,0,1-.43-.31,2.7,2.7,0,0,0-.55-1.11.36.36,0,0,0-.07-.1,4.09,4.09,0,0,0-.71-.61A2.45,2.45,0,0,0,53,68.4c-.28,0-.3-.08-.15-.28s.24-.49.37-.73c.29-.54.57-1.08.92-1.69,0,.34,0,.59,0,.84s0,.46.16.64a2.89,2.89,0,0,0,1.65.09c.18,0,.28-.18.31-.37a2.16,2.16,0,0,0,0-.44v-10c0-.13,0-.26,0-.4a.48.48,0,0,0-.49-.48,6.19,6.19,0,0,0-1.36,0c-.31.16-.29.45-.29.73,0,2.19,0,4.39,0,6.58A3.4,3.4,0,0,1,53.6,65a4.21,4.21,0,0,0-.34.63c-.21.41-.43.8-.63,1.21a3.09,3.09,0,0,1-.43.8,8.69,8.69,0,0,1-.83,1.41,3.58,3.58,0,0,0-.91,1.53.34.34,0,0,1-.4.29H45.29c-.3,0-.46-.09-.5-.38a2.05,2.05,0,0,0-.27-.67c-.08-.13-.19-.24-.28-.38a5.27,5.27,0,0,1-.49-.57c-.14-.23-.26-.46-.38-.7a.41.41,0,0,0,0-.09c-.32-.58-.64-1.16-.92-1.76l-.06-.1c-.33-.6-.66-1.21-1-1.83a1.41,1.41,0,0,1-.22-.72c0-1.26,0-2.51,0-3.77s0-2.51,0-3.77c0-.45-.15-.59-.6-.62a7.32,7.32,0,0,0-1.24,0,.38.38,0,0,0-.27.24,2.42,2.42,0,0,0,0,.6v7.35c0,1,0,1.92,0,2.89,0,.5.17.67.67.69.29,0,.59,0,.88,0s.57-.18.59-.6,0-.61,0-1c.47.81.84,1.58,1.26,2.33.12.22.11.35-.19.33a2.6,2.6,0,0,0-1.28.28l-.11.07a3.16,3.16,0,0,0-1.06,1.12,8.86,8.86,0,0,0-.34.85l-.07.1a4.78,4.78,0,0,1-1.31,0,.17.17,0,0,1-.19-.17c0-.46-.35-.46-.69-.46H34.42c-.21,0-.4,0-.44-.28s-.17-.26-.35-.27-.26-.14-.24-.36a1.52,1.52,0,0,0-1.47-1.81c-.72-.05-1.43-.19-2.14-.28a7.36,7.36,0,0,1-2.48-.92l-.1-.07a4.4,4.4,0,0,1-.94-.73,1.49,1.49,0,0,1-.61-.91,3.08,3.08,0,0,0-.7-1.67,3.79,3.79,0,0,0-.6-.53,3.17,3.17,0,0,0-.47-.27,2.83,2.83,0,0,0-2.33,0l-.55.28a4.49,4.49,0,0,0-1.49,1.8,16,16,0,0,0-.81,2.39c-.05.2-.1.4-.14.6,0-1,0-2-.13-3A11.47,11.47,0,0,0,18,62c-.19-.65-.46-1.25-1.26-1.33a.92.92,0,0,0-.62.17.69.69,0,0,0-.16.22,1,1,0,0,0-.13.92,1.68,1.68,0,0,1,0,.55V77.74a3.37,3.37,0,0,0,0,.55.52.52,0,0,0,.59.48c.87,0,1.75,0,2.63,0,.34,0,.46.1.41.43s.16.87-.15,1.26a6.18,6.18,0,0,0-2.48,1,2.6,2.6,0,0,0-.74.81c-.25.46-.38.94-.93,1.23s-.44,1,0,1.47a1.09,1.09,0,0,0,1.47,0,1,1,0,0,0,0-1.49c-.35-.26-.25-.41,0-.64a3.41,3.41,0,0,1,1.48-.94,6.72,6.72,0,0,1,4.89.21,2.89,2.89,0,0,1,1.17.94c.09.11.18.19,0,.38a1.05,1.05,0,0,0,0,1.67,1.11,1.11,0,0,0,1.63-.38,1.06,1.06,0,0,0,.12-.42v-.13a1,1,0,0,1,0-.25.41.41,0,0,1-.07-.11.81.81,0,0,1,0,.16,1.12,1.12,0,0,0-.58-.75,1.4,1.4,0,0,1-.66-.72A3.29,3.29,0,0,0,23,80.81a5.89,5.89,0,0,0-1-.34c-.8-.19-1-.46-.8-1.29.06-.33.29-.32.53-.32.85,0,1.69,0,2.53,0a1.78,1.78,0,0,0,.88-.2,1.39,1.39,0,0,0,.61-1.55h.08l.15,0,.23,0a1.27,1.27,0,0,1,.34,0h.13a.75.75,0,0,1,.23,0,1,1,0,0,1,1,.92,10,10,0,0,1,.25,2.67c-.1.61.06,1.22,0,1.83a.82.82,0,0,0,.12.57l0,0v0a1.07,1.07,0,0,0,.53.79,1.8,1.8,0,0,0,1.88.29,1.73,1.73,0,0,0,1.07-1.53,27.79,27.79,0,0,0,.06-3.29,9.15,9.15,0,0,0-.25-2,3.8,3.8,0,0,0-.18-.47,1,1,0,0,1-.14-.44,4.88,4.88,0,0,0-1.64-2.19,6.61,6.61,0,0,0-1.69-.82c-.46-.17-1-.24-1.43-.41l-.12,0c-.61-.06-1.19-.25-1.81-.25s-.75,0-.57-.76.34-1.78.45-2.69c.06-.4.1-.42.43-.19a9.33,9.33,0,0,0,2.55,1.26c.7.21,1.44.27,2.16.41l.15,0c.25,0,.27.23.27.42v1.37c0,.54.11.64.63.63h1.53c.64,0,.65,0,.65.65v9.68c0,.68.09.76.77.76H62.07a.35.35,0,0,0,.38-.37c0-.16,0-.33,0-.49V73.86a.88.88,0,0,1,.08-.55.51.51,0,0,1,.44-.12h1.64c.6,0,.65,0,.65-.67,0-.41,0-.82,0-1.24,0-.17,0-.35.13-.48a3.52,3.52,0,0,1,1.16-.18,2.39,2.39,0,0,0,.83-.19,1,1,0,0,1,.57-.15,8,8,0,0,0,2.74-1.41A12.21,12.21,0,0,1,71,70.45a.2.2,0,0,0,0,.11c0,.3.1.59.13.89a.56.56,0,0,0,0,.12c.09.28.08.57.16.86s0,.31-.23.3a11.73,11.73,0,0,0-2.29.26l-.65.17a5.47,5.47,0,0,0-1.53.54.91.91,0,0,1-.41.19A.85.85,0,0,0,66,74a5.34,5.34,0,0,0-1.5,1.42,7.35,7.35,0,0,0-.91,2.34c0,.35-.1.68-.1,1,0,1.16,0,2.32,0,3.48a2.81,2.81,0,0,0,.12.91,1.4,1.4,0,0,0,.09.17,1.82,1.82,0,0,0,2.13.91,1.78,1.78,0,0,0,1.33-1.84c0-1.15.08-2.29.09-3.44a3.28,3.28,0,0,1,.12-1,1.21,1.21,0,0,1,.33-.69.88.88,0,0,1,1-.19,1.2,1.2,0,0,1,.45-.09,2.48,2.48,0,0,1,.27,0,1.39,1.39,0,0,0,.6,1.61,1.78,1.78,0,0,0,.88.2c.84,0,1.68,0,2.53,0,.24,0,.47,0,.53.32.16.83,0,1.1-.79,1.29a5.71,5.71,0,0,0-1,.34,3.29,3.29,0,0,0-1.78,1.64,1.4,1.4,0,0,1-.66.72,1.12,1.12,0,0,0-.58.75.81.81,0,0,1,0-.16.41.41,0,0,1-.07.11,1,1,0,0,1,0,.25v.13a1.06,1.06,0,0,0,.12.42,1.11,1.11,0,0,0,1.63.38,1.05,1.05,0,0,0,0-1.67c-.14-.19-.05-.27,0-.38a2.89,2.89,0,0,1,1.17-.94A6.72,6.72,0,0,1,77,81.85a3.41,3.41,0,0,1,1.48.94c.23.23.33.38,0,.64a1,1,0,0,0,0,1.49,1.09,1.09,0,0,0,1.47,0C80.35,84.5,80.4,83.71,79.91,83.45ZM17.44,76.19c-.23,0-.29-.09-.31-.3-.06-.81-.14-1.61-.21-2.42,0-.19,0-.36.23-.42a1,1,0,0,0,.7-.51,4.36,4.36,0,0,0,.41,2.32,2.29,2.29,0,0,0,.44.67c.22.18.41.39.61.59l.18.13C18.51,76.21,17.72,76.18,17.44,76.19Zm59.43-1c0-.77.09-1.55.17-2.33,0-.23,0-.46.08-.69a1.15,1.15,0,0,0,.87.9c.26.06.25.23.23.42-.07.81-.15,1.61-.21,2.42,0,.21-.08.3-.31.3s-1,0-1.85,0A3.7,3.7,0,0,0,76.87,75.17Z"/><path class="cls-2" d="M22.58,60.55a3.38,3.38,0,0,0,1.24,1.25l.11.06a3.25,3.25,0,0,0,3.23-.22,4.21,4.21,0,0,0,.76-.76,3.13,3.13,0,0,0,.35-3.12.37.37,0,0,0-.05-.11A2.51,2.51,0,0,0,28,57.2,3,3,0,0,0,24.57,56a3.47,3.47,0,0,0-1.91,1.45,3.12,3.12,0,0,0-.27,2.68Z"/><path class="cls-2" d="M67,60.15c.09.15.1.35.28.44a3.39,3.39,0,0,0,2.59,1.54h.09a3.09,3.09,0,0,0,2.6-4.81l-.39-.47c-.21-.41-.62-.53-1-.7a1.36,1.36,0,0,1-.52-.19A2.1,2.1,0,0,0,69.1,56,3.42,3.42,0,0,0,67,58a3.9,3.9,0,0,0,0,2.09A.08.08,0,0,0,67,60.15Z"/><path class="cls-3" d="M46.06,28.7a3.29,3.29,0,0,0,3.35,1.43A2.9,2.9,0,0,0,52,28.25a2.38,2.38,0,0,0-.49-2.56,4.65,4.65,0,0,1-.93-1.35,2.81,2.81,0,0,1-.1-.31.23.23,0,0,1,.07-.23.56.56,0,0,0,.12-.74.18.18,0,0,1,0-.2.58.58,0,0,0-.1-.74.18.18,0,0,1-.05-.19.59.59,0,0,0-.53-.78.26.26,0,0,1-.19-.13,1,1,0,0,0-1.69,0,.29.29,0,0,1-.2.13.58.58,0,0,0-.52.8.14.14,0,0,1,0,.16.56.56,0,0,0-.11.74.2.2,0,0,1,0,.21.56.56,0,0,0,.13.74c.11.11.07.22,0,.33a2.91,2.91,0,0,1-.44.88,6.47,6.47,0,0,1-.47.57,3.52,3.52,0,0,0-.53.75,2.32,2.32,0,0,0-.19,1.53A2.29,2.29,0,0,0,46.06,28.7Z"/><path class="cls-4" d="M51.24,26.87a1.47,1.47,0,0,0-.4-.68,5.12,5.12,0,0,1-.93-1.28,2.32,2.32,0,0,1-.25-.77c0-.13-.07-.19-.21-.18h-1.1c-.1,0-.16,0-.18.13a3.64,3.64,0,0,1-1.08,2,1.78,1.78,0,0,0-.43,2.09,2.09,2.09,0,0,0,1.22,1,2.7,2.7,0,0,0,2.68-.34,1.67,1.67,0,0,0,.68-1A2.16,2.16,0,0,0,51.24,26.87Z"/><path class="cls-5" d="M51.24,26.87a3.42,3.42,0,0,1,0,1A1.46,1.46,0,0,0,51.24,26.87Z"/><path class="cls-6" d="M49,28.37a1.48,1.48,0,0,0,1.1-.49.72.72,0,0,0,.18-.48.2.2,0,0,0-.17-.22.19.19,0,0,0-.21.17c-.05.39-.36.5-.67.59A1.09,1.09,0,0,1,49,28c-.14,0-.28.05-.27.22S48.88,28.38,49,28.37Z"/><line class="cls-7" x1="45.26" y1="25.1" x2="40.27" y2="22.05"/><line class="cls-7" x1="52.45" y1="24.69" x2="57.44" y2="21.63"/><line class="cls-7" x1="44.66" y1="26.72" x2="38.93" y2="25.56"/><line class="cls-7" x1="59.24" y1="25.37" x2="53.51" y2="26.53"/><line class="cls-7" x1="44.78" y1="28.37" x2="38.93" y2="28.22"/><line class="cls-7" x1="46.1" y1="30.72" x2="41.86" y2="34.75"/><line class="cls-7" x1="45.48" y1="29.66" x2="40.05" y2="31.81"/><line class="cls-7" x1="47.14" y1="31.29" x2="45.48" y2="36.9"/><line class="cls-7" x1="51.89" y1="30.62" x2="56.13" y2="34.65"/><line class="cls-7" x1="52.77" y1="29.81" x2="58.21" y2="31.96"/><line class="cls-7" x1="51.1" y1="31.39" x2="52.76" y2="37"/><line class="cls-7" x1="49.07" y1="31.91" x2="49.22" y2="37.75"/><line class="cls-7" x1="59.43" y1="28.37" x2="53.58" y2="28.22"/><line class="cls-8" x1="49.07" y1="20.34" x2="49.07" y2="0.97"/><path class="cls-2" d="M6.69,33.41a7.65,7.65,0,0,1,.38-.82,2.46,2.46,0,0,1,1.48-1.12,8.43,8.43,0,0,0-.09,1.65,3.08,3.08,0,0,0,3.13,3.17H29a3.07,3.07,0,0,0,3.13-3.17,7.32,7.32,0,0,0-.1-1.66,2.59,2.59,0,0,1,1.75,1.67c0,.11,0,.27.13.36v5.62a3.22,3.22,0,0,1-1,1.59,3.63,3.63,0,0,1-2.38.51c-.13,0-.14-.1-.15-.2,0-.27-.09-.55-.12-.83a1.18,1.18,0,0,0-.7-1,3.69,3.69,0,0,0-1.81-.46H13.18a4.3,4.3,0,0,0-1.41.27,1.72,1.72,0,0,0-1.3,1.46c-.13.76-.17.74-.91.76a2.67,2.67,0,0,1-2.87-2.1Z"/><path class="cls-9" d="M20.32,41.21c-2.92,0-5.84,0-8.76,0-.36,0-.38-.1-.35-.43a1.3,1.3,0,0,1,1.13-1.22,5.61,5.61,0,0,1,1.42-.22H26.93a4.34,4.34,0,0,1,1.91.4,1.45,1.45,0,0,1,.66,1.35.12.12,0,0,1-.14.1h-9Z"/><path class="cls-10" d="M28,46.7a4.12,4.12,0,0,1-1,2.39.5.5,0,0,1-.79-.61,6.32,6.32,0,0,0,.64-1.1,1.75,1.75,0,0,0-.22-1.81A2,2,0,0,1,26.43,43a1.52,1.52,0,0,1,.33-.34.48.48,0,0,1,.66,0,.44.44,0,0,1,0,.65c-.61.62-.41,1.2,0,1.79A2.46,2.46,0,0,1,28,46.7Z"/><path class="cls-10" d="M18,46.54a1.59,1.59,0,0,0-.41-1,2.11,2.11,0,0,1-.26-2.33,1.73,1.73,0,0,1,.39-.5.5.5,0,0,1,.76,0,.49.49,0,0,1,0,.71,1,1,0,0,0-.07,1.45c1.05,1.31.67,2.66-.14,3.88a2.51,2.51,0,0,1-.25.32.48.48,0,0,1-.68.09.46.46,0,0,1-.12-.7A4.57,4.57,0,0,0,18,47.13,2.89,2.89,0,0,0,18,46.54Z"/><path class="cls-11" d="M13.69,42.56a.46.46,0,0,1,.43.24.44.44,0,0,1,0,.56,1.17,1.17,0,0,0,0,1.72,2.62,2.62,0,0,1,.26,2.73,4.76,4.76,0,0,1-.76,1.26.47.47,0,0,1-.68.1.47.47,0,0,1-.12-.7,6,6,0,0,0,.62-1.07,1.74,1.74,0,0,0-.22-1.84,2,2,0,0,1,.05-2.77A.66.66,0,0,1,13.69,42.56Z"/><path class="cls-2" d="M22.63,42.56a.47.47,0,0,1,.42.26.49.49,0,0,1,0,.53c-.53.82-.54,1,0,1.78a2.79,2.79,0,0,1,0,3.16,5.74,5.74,0,0,1-.48.73.49.49,0,0,1-.74.14.49.49,0,0,1-.08-.74,4.74,4.74,0,0,0,.65-1.19,1.57,1.57,0,0,0-.25-1.61,2.2,2.2,0,0,1-.42-2.1,1.8,1.8,0,0,1,.52-.8A.54.54,0,0,1,22.63,42.56Z"/><path class="cls-2" d="M20.3,31.37H30.5c.3,0,.47.09.49.38.06,1,.28,2-.43,2.81a1.92,1.92,0,0,1-1.39.7H11.69a2,2,0,0,1-2.13-1.57,5.62,5.62,0,0,1,0-1.92c0-.29.18-.41.51-.41Z"/><path class="cls-4" d="M20.11,32.77H10.47a.25.25,0,0,1,0-.48H29.75a.24.24,0,0,1,.24.23.23.23,0,0,1-.24.26H20.11Z"/><path class="cls-12" d="M20.12,33.87h9.31c.21,0,.54-.11.55.23s-.34.26-.56.26H10.79a1.69,1.69,0,0,1-.32,0,.23.23,0,0,1-.19-.26.21.21,0,0,1,.2-.21h.36"/><rect class="cls-13" x="0.97" y="0.97" width="93.93" height="84.29" rx="10.32" ry="10.32"/></g></g></svg>