<svg xmlns="http://www.w3.org/2000/svg" viewBox="0 0 99.38 103.39"><defs><style>.cls-1{font-size:4.5px;fill:#1d1d1b;font-family:MyriadPro-Regular, Myriad Pro;}.cls-2,.cls-4{fill:none;}.cls-2{stroke:#000;stroke-width:1.58px;}.cls-2,.cls-5{stroke-miterlimit:10;}.cls-3{fill:#2f7dbb;}.cls-5{fill:#e24e0f;stroke:#dd0613;stroke-width:0.79px;}.cls-6{fill:#010101;}</style></defs><title>Recurso 13Proyectos</title><g id="Capa_2" data-name="Capa 2"><g id="Capa_1-2" data-name="Capa 1"><text class="cls-1" transform="translate(0 95.21)">0</text><text class="cls-1" transform="translate(15.99 95.21)">5</text><text class="cls-1" transform="translate(30.82 95.21)">10</text><text class="cls-1" transform="translate(46.81 95.21)">15</text><text class="cls-1" transform="translate(62.79 95.21)">20</text><text class="cls-1" transform="translate(78.78 95.21)">25</text><text class="cls-1" transform="translate(94.77 95.21)">30</text><line class="cls-2" x1="1.15" y1="90.43" x2="97.07" y2="90.43"/><line class="cls-2" x1="1.15" y1="90.43" x2="1.15" y2="88.18"/><line class="cls-2" x1="17.14" y1="90.43" x2="17.14" y2="88.18"/><line class="cls-2" x1="33.12" y1="90.43" x2="33.12" y2="88.18"/><line class="cls-2" x1="49.11" y1="90.43" x2="49.11" y2="88.18"/><line class="cls-2" x1="65.1" y1="90.43" x2="65.1" y2="88.18"/><line class="cls-2" x1="81.08" y1="90.43" x2="81.08" y2="88.18"/><line class="cls-2" x1="97.07" y1="90.43" x2="97.07" y2="88.18"/><line class="cls-2" x1="1.15" y1="90.43" x2="1.15" y2="0.52"/><line class="cls-2" x1="1.15" y1="84.81" x2="3.55" y2="84.81"/><line class="cls-2" x1="1.15" y1="73.57" x2="3.55" y2="73.57"/><line class="cls-2" x1="1.15" y1="62.33" x2="3.55" y2="62.33"/><line class="cls-2" x1="1.15" y1="51.1" x2="3.55" y2="51.1"/><line class="cls-2" x1="1.15" y1="39.86" x2="3.55" y2="39.86"/><line class="cls-2" x1="1.15" y1="28.62" x2="3.55" y2="28.62"/><line class="cls-2" x1="1.15" y1="17.38" x2="3.55" y2="17.38"/><line class="cls-2" x1="1.15" y1="6.14" x2="3.55" y2="6.14"/><rect class="cls-3" x="4.35" y="2.1" width="9.59" height="8.09"/><rect class="cls-3" x="7.54" y="13.33" width="15.99" height="8.09"/><rect class="cls-3" x="13.94" y="24.57" width="9.59" height="8.09"/><rect class="cls-3" x="26.73" y="47.05" width="31.97" height="8.09"/><rect class="cls-3" x="33.12" y="58.29" width="15.99" height="8.09"/><rect class="cls-3" x="49.11" y="69.53" width="25.58" height="8.09"/><rect class="cls-3" x="58.7" y="80.77" width="38.37" height="8.09"/><rect class="cls-4" x="1.15" y="2.1" width="3.2" height="8.09"/><rect class="cls-4" x="1.15" y="13.33" width="6.39" height="8.09"/><rect class="cls-4" x="1.15" y="24.57" width="12.79" height="8.09"/><rect class="cls-4" x="1.15" y="47.05" width="25.58" height="8.09"/><rect class="cls-4" x="1.15" y="58.29" width="31.97" height="8.09"/><rect class="cls-4" x="1.15" y="69.53" width="47.96" height="8.09"/><rect class="cls-4" x="1.15" y="80.77" width="57.55" height="8.09"/><line class="cls-5" x1="16.96" y1="89.91" x2="16.96"/><path class="cls-6" d="M32.21,94.28l-.34.43c-.58.91-1.08,1.88-1.7,2.76v.23l0,.13a4.7,4.7,0,0,0-.07,1.24c-.08,1.37-.24,2.75-.32,4.12h0a1.13,1.13,0,0,1-.67.2H16.75a.51.51,0,0,1-.32-.06,10.55,10.55,0,0,1-1.4-2.38c-.37-.61-.65-1.27-1-1.91-.17-.46-.44-.86-.65-1.3-.1-.22-.23-.43-.31-.65-.29-.42-.45-.91-.74-1.33h0a9.5,9.5,0,0,0-.65-1.32c-.77-1.22-1.27-2.6-2.07-3.81L9.36,90c-.38-.86-.87-1.66-1.31-2.49h0c-.37-.86-.86-1.66-1.29-2.49h0a2.61,2.61,0,0,1,.46-2.53c.18-.18.47-.23.58-.49a2.45,2.45,0,0,1,3.45,1.08l.85,1.29a1.18,1.18,0,0,0,2.08.37,2.16,2.16,0,0,0,.26-1.32c0-3.24,0-6.49,0-9.73a16.71,16.71,0,0,1,.17-3.31,1.14,1.14,0,0,1,.89-1A3.35,3.35,0,0,1,17,69a2.26,2.26,0,0,1,2.23,2.25v6.86a1.18,1.18,0,0,0,.06.64.74.74,0,0,0,.39.25c.34-.16.72,0,1-.13a2.11,2.11,0,0,1,1.29,0,3.17,3.17,0,0,1,2,1.33.82.82,0,0,0,1,.35,3.42,3.42,0,0,1,4,1.3s.08,0,.12,0c.29.43.78.44,1.21.54a4.24,4.24,0,0,1,3.58,4.15,12.22,12.22,0,0,1-.42,4.63C33.14,92.28,32.63,93.27,32.21,94.28Z"/></g></g></svg>