<svg xmlns="http://www.w3.org/2000/svg" viewBox="0 0 92.93 92.93"><defs><style>.cls-1{fill:#010002;}.cls-2{fill:#2f7dbf;}</style></defs><title>Recurso 14Programas</title><g id="Capa_2" data-name="Capa 2"><g id="Capa_1-2" data-name="Capa 1"><polygon class="cls-1" points="57.58 48.6 48.11 41.77 51.1 13.57 32.84 44.37 42.31 51.2 39.32 79.4 57.58 48.6"/><path class="cls-2" d="M46.46,0A46.82,46.82,0,0,0,10.89,16.79v-3a2.73,2.73,0,0,0-5.45,0V25.36c0,2.6,3.36,3,2.73,2.72h.17l10.89-.68a2.7,2.7,0,0,0,2.54-2.88A2.74,2.74,0,0,0,18.89,22l-5.52.34A41,41,0,0,1,87.48,46.46a2.73,2.73,0,1,0,5.45,0A46.65,46.65,0,0,0,46.46,0Z"/><path class="cls-2" d="M84.59,64.85l-10.89.68a2.72,2.72,0,0,0-2.55,2.88A2.77,2.77,0,0,0,74,71l5.51-.34A41,41,0,0,1,5.44,46.46a2.72,2.72,0,0,0-5.44,0A46.65,46.65,0,0,0,46.46,92.93,46.81,46.81,0,0,0,82,76.13v3a2.72,2.72,0,1,0,5.44,0V67.57A2.84,2.84,0,0,0,84.59,64.85Z"/></g></g></svg>