<svg xmlns="http://www.w3.org/2000/svg" viewBox="0 0 827.86 782.47"><defs><style>.cls-1{fill:#2f7dbe;}</style></defs><title>Recurso 20Roles</title><g id="Capa_2" data-name="Capa 2"><g id="Capa_1-2" data-name="Capa 1"><path class="cls-1" d="M754.08,558.67A421.32,421.32,0,0,0,699,495.86c-25.2-23.65-53-43.53-82.69-61-.33-.19-.62-.42-.94-.61-6.29-3.67-10.4-3-15.63,2.16C576.35,459.31,549,476.57,519,489a273.55,273.55,0,0,1-251.36-21.72,254.17,254.17,0,0,1-41.46-32.49c-2.76-2.67-5-5-10-2.31-2.12,1.15-4,2.67-6.06,3.85a420.65,420.65,0,0,0-87,64.79A413.88,413.88,0,0,0,55.25,587.4,422.73,422.73,0,0,0,7.16,708.09c-1.86,8-3.07,16.21-4.83,24.27A78.2,78.2,0,0,1,0,742v15.87c5.37,16.59,16.05,24.33,33.9,24.57,2.87,0,5.73,0,8.59,0H597q98.14,0,196.28,0c18.14,0,29.29-8.07,34.62-24.55V742c-2.22-2.2-1.78-5.22-2.21-7.88-.09-.59-.28-1.16-.38-1.76a419.5,419.5,0,0,0-24.1-87.05A412,412,0,0,0,754.08,558.67Z"/><path class="cls-1" d="M413.85,473.7c130.1.16,237.22-106.46,237-236.64C650.56,105.59,545.48-.1,413.71,0,282.33.1,177.45,105.55,177,236.89,176.61,367,283.44,473.53,413.85,473.7Z"/></g></g></svg>