<svg xmlns="http://www.w3.org/2000/svg" viewBox="0 0 149.88 98.83"><defs><style>.cls-1{fill:#010101;}.cls-2{fill:#020203;}.cls-3{fill:#2f7dbc;}.cls-4{fill:#fff;}.cls-5{fill:#f9f9f9;}</style></defs><title>Recurso 16Máquinas y Equipos</title><g id="Capa_2" data-name="Capa 2"><g id="Capa_1-2" data-name="Capa 1"><path class="cls-1" d="M0,11.28c.7-1.5,1.3-3.07,2.13-4.5A13.43,13.43,0,0,1,10.27.62,44.36,44.36,0,0,0,9.81,9.7c0,10,7.24,17.45,17.25,17.47q47.86.1,95.73,0c10,0,17.23-7.44,17.28-17.45a40,40,0,0,0-.54-9.15c4.9,1.61,8,4.57,9.64,9.17.23.66,0,1.5.71,2v31c-1.19,3.36-2.64,6.49-5.62,8.75-4,3-8.53,2.89-13.12,2.8-.73,0-.76-.52-.83-1.06-.2-1.53-.51-3-.64-4.59a6.64,6.64,0,0,0-3.88-5.51,20.39,20.39,0,0,0-10-2.56q-40-.09-80,0a24.51,24.51,0,0,0-7.79,1.49c-3.9,1.34-6.49,3.69-7.19,8.07-.68,4.22-.91,4.08-5,4.21C7.52,54.59,2.43,50.53,0,42.76Z"/><path class="cls-2" d="M75.2,54.32c-16.11,0-32.21,0-48.31,0-2,0-2.12-.52-1.95-2.35.39-4,2.66-5.78,6.23-6.7A31.57,31.57,0,0,1,39,44.08q36.35,0,72.68,0a24.17,24.17,0,0,1,10.52,2.21c2.3,1.11,4.15,5.05,3.61,7.45-.11.5-.41.54-.77.56-.59,0-1.18,0-1.77,0Z"/><path class="cls-3" d="M117.51,84.63c-.22,4.69-2.47,9.18-5.77,13.17a2.76,2.76,0,0,1-4.37-3.35,33.25,33.25,0,0,0,3.52-6.09c1.39-3.57,1.18-6.78-1.23-10-3.61-4.78-3.78-10-.74-14.12a8.43,8.43,0,0,1,1.81-1.91,2.63,2.63,0,0,1,3.63.19,2.41,2.41,0,0,1,.27,3.58c-3.35,3.41-2.24,6.62.18,9.86A13.6,13.6,0,0,1,117.51,84.63Z"/><path class="cls-3" d="M62.63,83.76c.06-2.15-1.07-3.77-2.23-5.42-2.82-4-3.83-8.25-1.44-12.85a9.74,9.74,0,0,1,2.15-2.78c1.35-1.21,2.84-1.37,4.14-.07s1,2.61-.1,4c-2.33,2.9-2.68,5.11-.38,8C70.55,81.8,68.46,89.26,64,96a12.7,12.7,0,0,1-1.33,1.76,2.71,2.71,0,0,1-3.78.5,2.54,2.54,0,0,1-.65-3.87A25.58,25.58,0,0,0,62.17,87,14.64,14.64,0,0,0,62.63,83.76Z"/><path class="cls-3" d="M38.65,61.8A2.51,2.51,0,0,1,41,63.12a2.46,2.46,0,0,1-.22,3.09c-3.19,3.21-2.32,6.35,0,9.48,3.55,4.73,3.59,9.76,1.42,15a26.22,26.22,0,0,1-4.17,7,2.62,2.62,0,0,1-3.75.57,2.56,2.56,0,0,1-.68-3.86,35,35,0,0,0,3.43-5.9,9.53,9.53,0,0,0-1.22-10.14c-3.94-5.25-3.68-11.39.3-15.3A3.32,3.32,0,0,1,38.65,61.8Z"/><path class="cls-3" d="M87.93,61.8a2.55,2.55,0,0,1,2.34,1.41,2.64,2.64,0,0,1-.17,2.91c-2.93,4.54-3,5.44.11,9.81,4.13,5.86,3,11.66,0,17.45a32.56,32.56,0,0,1-2.7,4c-1.07,1.45-2.52,1.88-4,.8S82,95.54,83,94.12a27.7,27.7,0,0,0,3.59-6.56,8.82,8.82,0,0,0-1.36-8.92c-2.67-3.46-3.72-7.29-2.36-11.59a10.12,10.12,0,0,1,2.88-4.37A2.84,2.84,0,0,1,87.93,61.8Z"/><path class="cls-1" d="M75.07.05c18.77,0,37.54,0,56.31,0,1.66,0,2.56.48,2.67,2.08.36,5.33,1.55,10.81-2.37,15.48A10.85,10.85,0,0,1,124,21.48c-.59,0-1.18.05-1.77.05H27.58c-6.11,0-10.6-3.23-11.75-8.7a32.1,32.1,0,0,1-.07-10.58C16,.64,16.75,0,18.55,0,37.39.08,56.23.05,75.07.05Z"/><path class="cls-4" d="M74.05,7.76H22.88a14.6,14.6,0,0,1-2-.07,1.19,1.19,0,0,1-1.07-1.22,1.22,1.22,0,0,1,1.1-1.4A13.09,13.09,0,0,1,22.69,5h103c.52,0,1,0,1.55,0a1.27,1.27,0,0,1,1.3,1.25,1.29,1.29,0,0,1-1.34,1.44c-.58,0-1.18,0-1.77,0Z"/><path class="cls-5" d="M74.09,13.82q25.69,0,51.4,0c1.12,0,3-.62,3,1.25,0,2-1.85,1.47-3.06,1.47q-51.39,0-102.79,0a8.59,8.59,0,0,1-1.76-.07A1.28,1.28,0,0,1,19.81,15a1.15,1.15,0,0,1,1.12-1.15c.66-.06,1.33-.07,2-.07"/></g></g></svg>