<svg xmlns="http://www.w3.org/2000/svg" viewBox="0 0 64.8 64.8"><defs><style>.cls-1{fill:#999;}.cls-2{fill:#fff;}</style></defs><title>Recurso 1Cimientos</title><g id="Capa_2" data-name="Capa 2"><g id="Capa_1-2" data-name="Capa 1"><rect class="cls-1" width="64.8" height="64.8" rx="9.6" ry="9.6"/><path class="cls-2" d="M42,31.45v-23H24v23H8.4v23.9H57.6V31.45ZM25.9,30.6a1.45,1.45,0,1,1,1.45-1.45A1.45,1.45,0,0,1,25.9,30.6Zm0-18.3a1.45,1.45,0,1,1,1.45-1.45A1.45,1.45,0,0,1,25.9,12.3ZM40.2,30.6a1.45,1.45,0,1,1,1.45-1.45A1.45,1.45,0,0,1,40.2,30.6Zm0-18.4a1.45,1.45,0,1,1,1.45-1.45A1.45,1.45,0,0,1,40.2,12.2Z"/></g></g></svg>