<svg xmlns="http://www.w3.org/2000/svg" viewBox="0 0 533 385"><defs><style>.cls-1{fill:#1472b2;opacity:0.19;}.cls-2,.cls-24{fill:#d32e40;}.cls-2,.cls-20,.cls-22,.cls-24,.cls-28{stroke:#fff;}.cls-18,.cls-2,.cls-20,.cls-21,.cls-22,.cls-24,.cls-28,.cls-32{stroke-miterlimit:10;}.cls-2{stroke-width:2px;}.cls-3{font-size:40px;letter-spacing:-0.02em;}.cls-23,.cls-25,.cls-26,.cls-27,.cls-29,.cls-3{fill:#fff;font-family:gobCL-Heavy, gobCL;font-weight:800;}.cls-4{font-size:29px;letter-spacing:-0.03em;}.cls-4,.cls-6{font-family:gobCL;}.cls-5{letter-spacing:0em;}.cls-6{font-size:24px;fill:#333;}.cls-7{letter-spacing:-0.11em;}.cls-8{letter-spacing:-0.02em;}.cls-9{letter-spacing:-0.02em;}.cls-10{letter-spacing:-0.01em;}.cls-11{letter-spacing:-0.07em;}.cls-12{letter-spacing:-0.03em;}.cls-13{letter-spacing:0em;}.cls-14{letter-spacing:-0.01em;}.cls-15{fill:gray;}.cls-16{letter-spacing:-0.02em;}.cls-17{letter-spacing:-0.03em;}.cls-18,.cls-20,.cls-32{fill:none;}.cls-18{stroke:#1472b2;}.cls-19{fill:red;opacity:0.66;}.cls-20{stroke-width:4px;}.cls-21{fill:#5fb030;stroke:#000;}.cls-21,.cls-22,.cls-24,.cls-32{stroke-width:0.5px;}.cls-22,.cls-28{fill:#1b629c;}.cls-23{font-size:13.62px;letter-spacing:-0.02em;}.cls-25{font-size:8.36px;letter-spacing:-0.02em;}.cls-26{font-size:8.69px;letter-spacing:-0.02em;}.cls-27{font-size:7.04px;letter-spacing:-0.02em;}.cls-28{stroke-width:0.25px;}.cls-29{font-size:4.23px;letter-spacing:-0.02em;}.cls-30{font-size:3.86px;fill:#3c3c3b;font-family:Verdana-Bold, Verdana;font-weight:700;}.cls-31{fill:#1d1d1b;}.cls-32{stroke:#1d1d1b;}</style></defs><title>Recurso 8Info Complejo</title><g id="Capa_2" data-name="Capa 2"><g id="Capa_1-2" data-name="Capa 1"><rect class="cls-1" width="533" height="385" rx="6.06"/><circle class="cls-2" cx="55.5" cy="50.5" r="29"/><text class="cls-3" transform="translate(42.42 63.27)">C</text><text class="cls-4" transform="translate(98.47 61.52)">C<tspan class="cls-5" x="15.51" y="0">omplejo</tspan></text><text class="cls-6" transform="translate(39.46 120.52)"><tspan class="cls-7">T</tspan><tspan x="8.95" y="0">er</tspan><tspan class="cls-8" x="29.23" y="0">r</tspan><tspan x="36.77" y="0">eno que albe</tspan><tspan class="cls-9" x="163.53" y="0">r</tspan><tspan x="171.31" y="0">ga una o varias estructu</tspan><tspan class="cls-10" x="406.17" y="0">r</tspan><tspan x="414.06" y="0">as </tspan><tspan x="0" y="28.8">en su in</tspan><tspan class="cls-8" x="74.97" y="28.8">t</tspan><tspan x="83.3" y="28.8">erio</tspan><tspan class="cls-11" x="121.92" y="28.8">r</tspan><tspan x="128.49" y="28.8">. </tspan><tspan class="cls-12" x="138.02" y="28.8">P</tspan><tspan x="149.45" y="28.8">osee es</tspan><tspan class="cls-9" x="223.32" y="28.8">p</tspan><tspan class="cls-13" x="235.36" y="28.8">acios y consumos</tspan><tspan x="0" y="57.6">ene</tspan><tspan class="cls-14" x="36.48" y="57.6">r</tspan><tspan x="44.26" y="57.6">géticos en luga</tspan><tspan class="cls-8" x="194.2" y="57.6">r</tspan><tspan x="201.74" y="57.6">es comunes.</tspan><tspan class="cls-15"><tspan class="cls-16" x="0" y="115.2">E</tspan><tspan x="11.16" y="115.2">jemplos:</tspan><tspan x="0" y="144">Unive</tspan><tspan class="cls-10" x="55.44" y="144">r</tspan><tspan x="63.33" y="144">sidades</tspan><tspan class="cls-17" x="0" y="172.8">C</tspan><tspan x="12.84" y="172.8">omplejos Hospi</tspan><tspan class="cls-9" x="164.45" y="172.8">t</tspan><tspan x="173.01" y="172.8">alarios</tspan><tspan x="0" y="201.6">Ae</tspan><tspan class="cls-8" x="25.51" y="201.6">r</tspan><tspan x="33.05" y="201.6">opuer</tspan><tspan class="cls-8" x="90.29" y="201.6">t</tspan><tspan x="98.62" y="201.6">os</tspan></tspan></text><line class="cls-18" x1="85" y1="68.33" x2="520.8" y2="68.33"/><polygon class="cls-19" points="330.54 208.03 477.93 182.5 505.5 353.38 358.11 375.5 330.54 208.03"/><polyline class="cls-20" points="461.93 190.67 405.43 200.2 391.81 236.28 387.38 254.66 417.68 264.87 455.12 278.83 465.68 289.04 468.06 313.89 490.86 324.44 503.46 324.44"/><line class="cls-20" x1="361.86" y1="324.44" x2="391.89" y2="257.56"/><polygon class="cls-21" points="414.62 243.77 444.23 258.07 459.21 227.43 427.55 214.5 414.62 243.77"/><polygon class="cls-21" points="398.28 259.43 405.43 261.81 405.43 266.58 384.32 313.55 394.87 318.31 388.75 330.23 380.24 326.82 370.37 347.59 365.6 347.59 361.86 345.2 361.86 342.14 370.71 318.31 398.28 259.43"/><polygon class="cls-21" points="398.28 329.55 402.7 318.31 418.02 323.76 424.49 309.46 436.74 314.57 418.02 357.46 405.43 352.35 408.49 337.72 398.28 329.55"/><polygon class="cls-21" points="424.49 302.66 432.32 306.74 443.21 285.64 429.93 278.83 424.49 287 429.93 289.04 424.49 302.66"/><polygon class="cls-21" points="494.95 353.71 493.93 343.5 502.1 342.48 503.46 352.35 494.95 353.71"/><circle class="cls-22" cx="434.02" cy="236.28" r="9.87"/><text class="cls-23" transform="translate(430 240.63)">E</text><circle class="cls-24" cx="348.24" cy="219.26" r="9.87"/><text class="cls-23" transform="translate(343.79 223.61)">C</text><circle class="cls-22" cx="379.2" cy="318.38" r="6.06"/><text class="cls-25" transform="translate(376.73 321.05)">E</text><circle class="cls-22" cx="417.51" cy="332.44" r="6.3"/><text class="cls-26" transform="translate(414.95 335.21)">E</text><circle class="cls-22" cx="434.02" cy="291.08" r="5.11"/><text class="cls-27" transform="translate(431.94 293.33)">E</text><circle class="cls-28" cx="498.69" cy="348.27" r="3.06"/><text class="cls-29" transform="translate(497.45 349.62)">E</text><text class="cls-30" transform="translate(495.16 374.87)">W</text><text class="cls-30" transform="translate(514.03 357.3)">N</text><path class="cls-31" d="M515.92,358a125.63,125.63,0,0,1,0,22.17,123.13,123.13,0,0,1,0-22.17Z"/><path class="cls-31" d="M499.86,373.41a129.41,129.41,0,0,1,22.73,0c-3.79.39-7.58.48-11.36.5S503.65,373.8,499.86,373.41Z"/><path class="cls-32" d="M510.3,373.41a5.61,5.61,0,0,1,5.62-5.62"/></g></g></svg>