<svg xmlns="http://www.w3.org/2000/svg" viewBox="0 0 51.01 51.17"><defs><style>.cls-1{fill:#ccc;}</style></defs><title>Recurso 18Conjuguración inactivo</title><g id="Capa_2" data-name="Capa 2"><g id="Capa_1-2" data-name="Capa 1"><path class="cls-1" d="M51,24.18c0-.39-.06-.57-.51-.65-1.72-.28-3.41-.65-5.12-1-.79-.13-.9-.54-.72-2.18-1-1.23-.94-1.63-.38-2.1C45.54,17.22,46.77,16.1,48,15A.67.67,0,0,0,48.19,14a24,24,0,0,1-1.36-2.36c-.21-.4-.44-.44-.85-.29-1.6.58-3.23,1.1-4.83,1.69-.77.28-1.08,0-1.7-1.48-1.48-.62-1.64-.92-1.4-1.59C38.64,8.3,39.17,6.65,39.77,5c.25-.69-.07-.77-1.68-1.32a.42.42,0,0,1-.17-.1C36.75,2.46,36.47,2.44,36,3c-1.07,1.3-2.19,2.57-3.29,3.85-.19.22-.35.45-.74.29a14.78,14.78,0,0,0-2.87-.75c-.35-.06-.48-.19-.54-.56-.3-1.71-.67-3.41-1-5.12-.11-.64-.36-.8-1.22-.66a5.72,5.72,0,0,1-2,0c-.82-.17-1,.1-1.08.63-.32,1.66-.69,3.3-.95,5a.85.85,0,0,1-.83.81,10.94,10.94,0,0,0-2.47.64.73.73,0,0,1-1-.29C17,5.55,16,4.34,14.9,3.09c-.44-.52-.67-.52-1.77.57a1,1,0,0,1-.45.26c-1.41.39-1.71.63-1.46,1.32.48,1.32.92,2.65,1.38,4,.57,1.61.41,1.17-1.52,3.07-.46.81-.79,1-1.45.74C8.08,12.46,6.5,12,5,11.4c-.68-.25-.78.13-1.19,1.06a6.6,6.6,0,0,1-.84,1.39c-.51.63-.49.87,0,1.24,1.27,1.07,2.49,2.19,3.76,3.27.5.43.49.73-.16,1.9a.16.16,0,0,0,0,.08c-.27,1.83-.09,2.14-.77,2.27-1.66.3-3.3.67-5,.95-.68.12-.79.4-.65,1.29a5.57,5.57,0,0,1,0,1.91c-.15.8.09,1,.63,1.1,1.33.23,2.65.57,4,.72,1.12.13,1.78.54,1.84,1.76A5.9,5.9,0,0,0,7,32a.76.76,0,0,1-.26,1c-1.32,1.09-2.59,2.24-3.9,3.35-.29.25-.39.43-.16.8.63,1,1.2,2,1.74,3,1.72-.64,3.48-1.17,5.2-1.81a1.12,1.12,0,0,1,1.54.37,8.75,8.75,0,0,0,1.53,1.51.78.78,0,0,1,.26,1.05c-.6,1.63-1.14,3.27-1.72,4.9a.57.57,0,0,0,.32.84,34.09,34.09,0,0,1,3,1.76c1.25-1.51,2.57-3,3.84-4.45.47-.55.83-.4,2.07.27,1.51-.12,1.92.14,2.07,1,.27,1.66.63,3.3.92,5,.07.45.25.56.75.52a15.05,15.05,0,0,1,2.6,0c.58.05.79,0,.88-.56.3-1.68.67-3.35,1-5,.13-.68.33-1,2-.81,1.33-1,1.69-.9,2.15-.36C33.86,45.7,35,47,36.11,48.29c.5.59.83.39,2-.7,1.61-.56,2-.66,1.71-1.39-.61-1.66-1.15-3.34-1.75-5-.17-.49-.15-.79.48-1.15a3.62,3.62,0,0,0,1.34-1.35c.36-.62.67-.65,1.15-.48,1.63.58,3.27,1.13,4.9,1.73.5.18.77.12,1-.39.34-.72.78-1.4,1.18-2.09.13-.24.27-.48.42-.73,0-.25-.26-.34-.42-.48-1.29-1.12-2.58-2.25-3.9-3.34-.54-.45-.37-.77,0-1.75a3.8,3.8,0,0,0,.31-1.32c0-.77.21-1,.73-1.12,1.71-.32,3.41-.69,5.12-1,.44-.08.61-.21.6-.67C51,26.11,51,25.14,51,24.18ZM25.38,40.69c-7.93.29-15.1-6.95-15.12-15.12,0-7.93,7-15.47,15.68-15.17A15.46,15.46,0,0,1,40.6,25.26C40.78,33.77,33.48,41,25.38,40.69Z"/><path class="cls-1" d="M25.46,20.4c-3-.27-5.24,2.41-5.29,5.07a5.28,5.28,0,1,0,10.56,0C30.7,22.78,28.36,20.14,25.46,20.4Z"/></g></g></svg>