<svg xmlns="http://www.w3.org/2000/svg" viewBox="0 0 51.01 51.17"><defs><style>.cls-1{fill:#010101;}.cls-2{fill:#fff;}.cls-3{fill:#2f7dbb;}</style></defs><title>Recurso 8Configuración</title><g id="Capa_2" data-name="Capa 2"><g id="Capa_1-2" data-name="Capa 1"><path class="cls-1" d="M48.53,36.75c-.15.25-.29.49-.42.73-.4.69-.84,1.37-1.18,2.09-.24.51-.51.57-1,.39-1.63-.6-3.27-1.15-4.9-1.73-.48-.17-.79-.14-1.15.48a3.62,3.62,0,0,1-1.34,1.35c-.63.36-.65.66-.48,1.15.6,1.65,1.14,3.33,1.75,5,.27.73-.1.83-1.71,1.39-1.15,1.09-1.48,1.29-2,.7C35,47,33.86,45.7,32.74,44.4c-.46-.54-.82-.61-2.15.36-1.64-.22-1.84.13-2,.81-.33,1.68-.7,3.35-1,5-.09.52-.3.61-.88.56a15.05,15.05,0,0,0-2.6,0c-.5,0-.68-.07-.75-.52-.29-1.66-.65-3.3-.92-5-.15-.88-.56-1.14-2.07-1-1.24-.67-1.6-.82-2.07-.27-1.27,1.49-2.59,2.94-3.84,4.45a34.09,34.09,0,0,0-3-1.76.57.57,0,0,1-.32-.84c.58-1.63,1.12-3.27,1.72-4.9a.78.78,0,0,0-.26-1.05,8.75,8.75,0,0,1-1.53-1.51,1.12,1.12,0,0,0-1.54-.37c-1.72.64-3.48,1.17-5.2,1.81-.54-1-1.11-2.06-1.74-3-.23-.37-.13-.55.16-.8,1.31-1.11,2.58-2.26,3.9-3.35A.76.76,0,0,0,7,32a5.9,5.9,0,0,1-.47-1.66c-.06-1.22-.72-1.63-1.84-1.76-1.34-.15-2.66-.49-4-.72-.54-.1-.78-.3-.63-1.1a5.57,5.57,0,0,0,0-1.91c-.14-.89,0-1.17.65-1.29,1.66-.28,3.3-.65,5-.95.68-.13.5-.44.77-2.27a.16.16,0,0,1,0-.08c.65-1.17.66-1.47.16-1.9-1.27-1.08-2.49-2.2-3.76-3.27-.44-.37-.46-.61,0-1.24a6.6,6.6,0,0,0,.84-1.39c.41-.93.51-1.31,1.19-1.06C6.5,12,8.08,12.46,9.63,13c.66.25,1,.07,1.45-.74,1.93-1.9,2.09-1.46,1.52-3.07-.46-1.33-.9-2.66-1.38-4-.25-.69,0-.93,1.46-1.32a1,1,0,0,0,.45-.26c1.1-1.09,1.33-1.09,1.77-.57C16,4.34,17,5.55,18.09,6.8a.73.73,0,0,0,1,.29,10.94,10.94,0,0,1,2.47-.64.85.85,0,0,0,.83-.81c.26-1.66.63-3.3.95-5,.1-.53.26-.8,1.08-.63a5.72,5.72,0,0,0,2,0c.86-.14,1.11,0,1.22.66.3,1.71.67,3.41,1,5.12.06.37.19.5.54.56A14.78,14.78,0,0,1,32,7.14c.39.16.55-.07.74-.29C33.81,5.57,34.93,4.3,36,3c.47-.56.75-.54,1.92.6a.42.42,0,0,0,.17.1C39.7,4.25,40,4.33,39.77,5c-.6,1.63-1.13,3.28-1.72,4.92-.24.67-.08,1,1.4,1.59.62,1.45.93,1.76,1.7,1.48,1.6-.59,3.23-1.11,4.83-1.69.41-.15.64-.11.85.29A24,24,0,0,0,48.19,14,.67.67,0,0,1,48,15c-1.27,1.06-2.5,2.18-3.77,3.25-.56.47-.61.87.38,2.1-.18,1.64-.07,2.05.72,2.18,1.71.31,3.4.68,5.12,1,.45.08.52.26.51.65,0,1,0,1.93,0,2.9,0,.46-.16.59-.6.67-1.71.3-3.41.67-5.12,1-.52.09-.69.35-.73,1.12a3.8,3.8,0,0,1-.31,1.32c-.41,1-.58,1.3,0,1.75,1.32,1.09,2.61,2.22,3.9,3.34C48.27,36.41,48.49,36.5,48.53,36.75Z"/><path class="cls-2" d="M25.38,40.69c-7.93.29-15.1-6.95-15.12-15.12,0-7.93,7-15.47,15.68-15.17A15.46,15.46,0,0,1,40.6,25.26C40.78,33.77,33.48,41,25.38,40.69Z"/><path class="cls-3" d="M25.46,20.4c2.9-.26,5.24,2.38,5.27,5.1a5.28,5.28,0,1,1-10.56,0C20.22,22.81,22.5,20.13,25.46,20.4Z"/></g></g></svg>