<svg xmlns="http://www.w3.org/2000/svg" viewBox="0 0 47.73 37.45"><defs><style>.cls-1{fill:#2f7dbb;}.cls-2{fill:#2a4b95;}</style></defs><title>Recurso 4Consumos</title><g id="Capa_2" data-name="Capa 2"><g id="Capa_1-2" data-name="Capa 1"><path class="cls-1" d="M11.89.07a2.61,2.61,0,0,1,3.25,2.18,1,1,0,0,0,.58.83c1.51.86,3,1.73,4.51,2.62a.72.72,0,0,0,.88,0,2.52,2.52,0,0,1,3.21.45.49.49,0,0,0,.59.19c2.14-.64,4.28-1.26,6.41-1.88A.55.55,0,0,0,31.8,4a2.64,2.64,0,0,1,2.86-2.11,2.67,2.67,0,0,1,2.39,2.81c-.17.41.11.63.48.88C39.27,6.69,41,7.87,42.72,9.05a.45.45,0,0,0,.56,0,2.63,2.63,0,0,1,3.23.49,2.78,2.78,0,0,1,.27,3.32,2.7,2.7,0,0,1-3.13,1,2.6,2.6,0,0,1-1.72-2.82.43.43,0,0,0-.2-.51C39.88,9.32,38,8.07,36.2,6.8a.44.44,0,0,0-.57,0,2.6,2.6,0,0,1-3.21-.55.39.39,0,0,0-.49-.13L25.41,8.05a.52.52,0,0,0-.4.47,2.64,2.64,0,0,1-5.23-.64.54.54,0,0,0-.33-.58L14.8,4.61a.38.38,0,0,0-.53,0,2.55,2.55,0,0,1-2.61.5.48.48,0,0,0-.49.07C9.43,6.48,7.7,7.73,6,9c-.21.14-.16.32-.13.51a2.58,2.58,0,0,1-1.45,2.78,2.79,2.79,0,0,1-3.15-.63A2.69,2.69,0,0,1,1,8.44a2.73,2.73,0,0,1,2.87-1.2.33.33,0,0,1,.15,0c.59.45,1,.18,1.56-.2C6.94,6,8.38,5,9.8,4c.18-.13.32-.23.21-.55A2.6,2.6,0,0,1,11.89.07"/><path class="cls-2" d="M30.6,25.34V14.25c0-.82.19-1,1-1H36c.78,0,1,.23,1,1q0,11.08,0,22.17c0,.83-.2,1-1,1-1.48,0-3,0-4.43,0-.78,0-1-.19-1-1Z"/><path class="cls-2" d="M15.71,25.39v11c0,.86-.16,1-1,1H10.28c-.77,0-1-.2-1-1V14.25c0-.81.21-1,1-1h4.43c.78,0,1,.2,1,1Z"/><path class="cls-2" d="M26.16,27.89v8.5c0,.88-.17,1-1.05,1-1.44,0-2.88,0-4.32,0-.85,0-1-.19-1-1V19.33c0-.82.22-1,1-1h4.44c.72,0,.94.23.94.95C26.16,22.12,26.16,25,26.16,27.89Z"/><path class="cls-2" d="M6.41,29.51v6.91c0,.86-.17,1-1,1H1c-.81,0-1-.21-1-1V22.52c0-.75.22-1,1-1H5.41c.82,0,1,.18,1,1Z"/><path class="cls-2" d="M47.73,29.51v7c0,.8-.16,1-.95,1H42.35c-.82,0-1-.17-1-1V22.52c0-.79.17-1,1-1h4.49c.75,0,.92.18.92.95Z"/></g></g></svg>