<svg xmlns="http://www.w3.org/2000/svg" viewBox="0 0 875.2 1358.24"><defs><style>.cls-1{fill:#1d1d1b;}</style></defs><title>Recurso 23Diseño Pasivo</title><g id="Capa_2" data-name="Capa 2"><g id="Capa_1-2" data-name="Capa 1"><path class="cls-1" d="M325.49,351.61c20.29-53.75,70.45-89.49,126.27-89.12s105.76,36.71,125.13,90.73c7.66,21.36,15.82,42.54,23.83,63.77,2.79,7.39,5.78,14.71,8.76,22,2.78,6.81,5.64,13.59,10,24.16,14.26-45.77,14.65-87.08-1-127.62-23.57-61-67-100.05-131.31-115.15-4.95-1.17-11.82.25-12.63-9.1-1.75-20.06-2.33-20-23.12-20.18-2.47,0-5,.31-7.41-.11-11.29-2-17,1.86-14.77,14,1.85,10.08-3.11,13.61-12.44,15.31-41,7.53-74.92,28-101.31,59.91-43.3,52.32-53.15,111.65-31.62,177.32C297.8,422.24,312.1,387.1,325.49,351.61Z"/><path class="cls-1" d="M440.71,150.75c6.9.44,13.84.35,20.75.2,19.39-.44,29.67-10.77,30.12-30.55.34-14.82.22-29.64.32-44.46q.14-20.76.25-41.5c0-1,0-2,0-3-.48-15.94-9.31-27.14-23.46-29.76C441.1-3.4,422,3.06,415.84,19.72a25.82,25.82,0,0,0-1.61,8.64c-.3,31.62-.78,63.24-.51,94.86C413.86,139.26,424.66,149.75,440.71,150.75Z"/><path class="cls-1" d="M828.53,1061.86c.79-37.82-28.67-69.39-65.45-70.15-37.49-.78-68.63,30.12-68.9,68.39-.28,37.85,29.41,68.83,66.35,69.25C797.76,1129.76,827.73,1100,828.53,1061.86Z"/><path class="cls-1" d="M134.11,987.92c-37.69-.85-68.31,29.59-68.69,68.28-.37,38.15,28.77,68.74,66,69.33,37,.57,67.32-29.37,68.2-67.36C200.49,1020.69,170.7,988.74,134.11,987.92Z"/><path class="cls-1" d="M120.33,1170.78c-24.84-2.64-46.14-13.19-65.84-31.57-6.82,16.8-12.58,31.39-18.67,45.84-4.56,10.86-.88,18.18,9.25,22.72q21.56,9.64,43.33,18.74c11.09,4.61,19,1.41,23.51-10.13,4.62-11.93,9.23-23.89,14.61-35.47C130,1173.44,127.32,1171.51,120.33,1170.78Z"/><path class="cls-1" d="M855,1179.11c-6.36-16-12.65-32.11-19.57-49.72-8.16,6-14.2,11.17-20.94,15.14-7.19,4.24-15.3,6.91-22.55,11-11.22,6.39-31.45,0-34.27,11.38-2.68,10.86,8.19,25.06,13.12,37.78,1,2.45,2,4.86,3,7.3,4.38,11,12.61,13.81,23,9.8,16.16-6.25,32.16-12.93,48-19.91C854.61,1197.58,859.4,1190.27,855,1179.11Z"/><path class="cls-1" d="M415.56,455.27c-.67,18.91,15,35.36,34.16,35.82s35.45-15.18,35.88-34.18c.42-18.51-15.69-35.75-34.13-36.52C433.83,419.66,416.21,436.77,415.56,455.27Z"/><path class="cls-1" d="M755.06,930.09l-98.33-240.5,131.77-1a11.83,11.83,0,0,0,11.76-11.93l-.13-17.31a11.84,11.84,0,0,0-11.93-11.75L640,648.72,538.58,400.63a16.51,16.51,0,0,0-21.51-9L485,404.72c.06.63.1,1.26.14,1.89a13.87,13.87,0,0,1,1.18,1.25,67.23,67.23,0,0,1,18.17,25.62c10,24.35,5.21,50-10.18,62.18a16.41,16.41,0,0,1-1.35,2.47c.26,2.1.47,4.21.57,6.32l59.25,144.92-56.42.42-.15-20.58a21.46,21.46,0,0,0-21.62-21.3l-57.07.42A21.48,21.48,0,0,0,396.2,630l.16,20.58-46.21.34,60.36-145.69c.11-2.11.33-4.22.61-6.31a15.31,15.31,0,0,1-1.35-2.48c-15.33-12.22-20-37.92-9.89-62.23a67.38,67.38,0,0,1,18.28-25.54c.38-.44.78-.84,1.2-1.24,0-.63.08-1.26.14-1.89l-32-13.26a16.5,16.5,0,0,0-21.56,8.93L262.2,651.53,104.91,652.7a11.85,11.85,0,0,0-11.76,11.93l.13,17.31a11.86,11.86,0,0,0,11.94,11.76l139.94-1.05L147,929.6a16.5,16.5,0,0,0,3.79,18.18,88.22,88.22,0,0,1,57,23,16.48,16.48,0,0,0,14-10.13L333.11,692l63.55-.47.16,21.49a21.47,21.47,0,0,0,21.63,21.31l57.06-.43a21.47,21.47,0,0,0,21.31-21.62l-.16-21.5,72.83-.54,110.6,270.5a16.46,16.46,0,0,0,14,10.19,88.3,88.3,0,0,1,57.13-22.68A16.48,16.48,0,0,0,755.06,930.09Z"/><polygon class="cls-1" points="0 1358.24 78.13 1250.32 32.16 1230.57 0 1358.24"/><polygon class="cls-1" points="875.2 1356.72 853.08 1225.34 806.75 1244.26 875.2 1356.72"/></g></g></svg>