<svg xmlns="http://www.w3.org/2000/svg" viewBox="0 0 533 385"><defs><style>.cls-1{fill:#1472b2;opacity:0.19;}.cls-2{font-size:29px;letter-spacing:-0.04em;}.cls-2,.cls-4{font-family:gobCL;}.cls-3{letter-spacing:0em;}.cls-4{font-size:24px;fill:#333;}.cls-5{letter-spacing:-0.02em;}.cls-6{letter-spacing:-0.01em;}.cls-7{letter-spacing:-0.01em;}.cls-8{letter-spacing:-0.01em;}.cls-9{letter-spacing:-0.02em;}.cls-10{letter-spacing:-0.02em;}.cls-11{letter-spacing:-0.03em;}.cls-12{letter-spacing:0em;}.cls-13{fill:gray;}.cls-14{letter-spacing:-0.02em;}.cls-15{letter-spacing:-0.04em;}.cls-16{letter-spacing:-0.11em;}.cls-17,.cls-23{fill:none;}.cls-17{stroke:#1472b2;}.cls-17,.cls-18,.cls-19,.cls-23,.cls-24{stroke-miterlimit:10;}.cls-18{fill:#5fb030;stroke:#000;}.cls-18,.cls-19,.cls-23{stroke-width:0.5px;}.cls-19,.cls-24{fill:#1b629c;stroke:#fff;}.cls-20{font-size:35.3px;letter-spacing:-0.02em;}.cls-20,.cls-25{fill:#fff;font-family:gobCL-Heavy, gobCL;font-weight:800;}.cls-21{font-size:3.86px;fill:#3c3c3b;font-family:Verdana-Bold, Verdana;font-weight:700;}.cls-22{fill:#1d1d1b;}.cls-23{stroke:#1d1d1b;}.cls-24{stroke-width:2px;}.cls-25{font-size:40px;letter-spacing:-0.02em;}</style></defs><title>Recurso 10Info Edificio</title><g id="Capa_2" data-name="Capa 2"><g id="Capa_1-2" data-name="Capa 1"><rect class="cls-1" width="533" height="385" rx="6.06"/><text class="cls-2" transform="translate(98.47 61.52)">E<tspan class="cls-3" x="12.9" y="0">dificio</tspan></text><text class="cls-4" transform="translate(39.46 120.52)"><tspan class="cls-5">E</tspan><tspan x="11.21" y="0">structu</tspan><tspan class="cls-6" x="82.39" y="0">r</tspan><tspan x="90.29" y="0">a o construcción es</tspan><tspan class="cls-7" x="279.67" y="0">t</tspan><tspan x="288.23" y="0">able y cer</tspan><tspan class="cls-8" x="384.04" y="0">r</tspan><tspan x="391.94" y="0">ada, </tspan><tspan x="0" y="28.8">posee un año de construcción único y p</tspan><tspan class="cls-9" x="386.18" y="28.8">r</tspan><tspan x="393.71" y="28.8">esen</tspan><tspan class="cls-10" x="440.06" y="28.8">t</tspan><tspan x="448.62" y="28.8">a</tspan><tspan x="0" y="57.6">un </tspan><tspan class="cls-10" x="29.59" y="57.6">p</tspan><tspan x="41.64" y="57.6">at</tspan><tspan class="cls-11" x="62.21" y="57.6">r</tspan><tspan class="cls-12" x="69.74" y="57.6">ón estructu</tspan><tspan class="cls-6" x="182.97" y="57.6">r</tspan><tspan x="190.87" y="57.6">al en los tipos los ma</tspan><tspan class="cls-11" x="397.24" y="57.6">t</tspan><tspan class="cls-12" x="405.57" y="57.6">eriales </tspan><tspan x="0" y="86.4">que la </tspan><tspan class="cls-9" x="65.37" y="86.4">f</tspan><tspan x="72.48" y="86.4">orman.</tspan><tspan class="cls-13"><tspan class="cls-14" x="0" y="144">E</tspan><tspan x="11.16" y="144">jemplos:</tspan><tspan class="cls-15" x="0" y="172.8">E</tspan><tspan x="10.68" y="172.8">dificio </tspan><tspan class="cls-16" x="77.49" y="172.8">T</tspan><tspan x="86.45" y="172.8">or</tspan><tspan class="cls-11" x="107.01" y="172.8">r</tspan><tspan class="cls-12" x="114.55" y="172.8">e II</tspan><tspan class="cls-15" x="0" y="201.6">E</tspan><tspan x="10.68" y="201.6">dificio U</tspan><tspan class="cls-10" x="91.8" y="201.6">r</tspan><tspan x="99.57" y="201.6">gencias</tspan><tspan class="cls-9" x="0" y="230.4">P</tspan><tspan x="11.66" y="230.4">alacio de </tspan><tspan class="cls-6" x="105.98" y="230.4">L</tspan><tspan x="116.92" y="230.4">a Moneda</tspan></tspan></text><line class="cls-17" x1="85" y1="68.33" x2="520.8" y2="68.33"/><polygon class="cls-18" points="366.52 262.23 384.51 216.58 446.75 238.71 473.03 180.62 522.83 201.37 446.75 375.65 395.57 354.9 408.02 295.43 366.52 262.23"/><circle class="cls-19" cx="444.68" cy="273.98" r="25.59"/><text class="cls-20" transform="translate(434.27 285.26)">E</text><text class="cls-21" transform="translate(495.16 374.87)">W</text><text class="cls-21" transform="translate(514.03 357.3)">N</text><path class="cls-22" d="M515.92,358c.39,3.69.48,7.39.5,11.08s-.11,7.39-.5,11.09a123.13,123.13,0,0,1,0-22.17Z"/><path class="cls-22" d="M499.86,373.41a129.41,129.41,0,0,1,22.73,0c-3.79.39-7.58.48-11.36.5S503.65,373.8,499.86,373.41Z"/><path class="cls-23" d="M510.3,373.41a5.61,5.61,0,0,1,5.62-5.62"/><circle class="cls-24" cx="53.09" cy="50.5" r="29"/><text class="cls-25" transform="translate(41.3 63.27)">E</text></g></g></svg>