<svg xmlns="http://www.w3.org/2000/svg" viewBox="0 0 26.52 39.55"><defs><style>.cls-1{fill:#337bb3;}.cls-2{fill:#fff;}.cls-3{fill:#357cb3;}</style></defs><title>Recurso 21Energéticos</title><g id="Capa_2" data-name="Capa 2"><g id="Capa_1-2" data-name="Capa 1"><path class="cls-1" d="M1.61,6.06A13.56,13.56,0,0,1,15.37.17c4.75.65,8.66,3,10.43,7.75a9.81,9.81,0,0,1-2,10.51A19.13,19.13,0,0,0,20,24c-.16.41-.28.84-.4,1.26a.86.86,0,0,0,.28,1,2.36,2.36,0,0,1,.48,3.06.74.74,0,0,0,0,.82,2.35,2.35,0,0,1-.43,3,.77.77,0,0,0-.19.81A2.39,2.39,0,0,1,17.54,37a1.09,1.09,0,0,0-.76.53,4.06,4.06,0,0,1-7,0A1.15,1.15,0,0,0,9,37c-1.84-.35-2.53-1.43-2.12-3.26a.64.64,0,0,0-.18-.66,2.34,2.34,0,0,1-.46-3.07.82.82,0,0,0,0-.84,2.26,2.26,0,0,1,.52-3c.47-.45.28-.91.15-1.36a11,11,0,0,0-1.81-3.59,25.57,25.57,0,0,0-1.91-2.36A14.78,14.78,0,0,1,1,15.78,9.53,9.53,0,0,1,.22,9.52,9.51,9.51,0,0,1,1.61,6.06Z"/><path class="cls-2" d="M22.87,13.56a6,6,0,0,1-1.63,2.81A21,21,0,0,0,17.4,21.6a10,10,0,0,0-1,3.2c-.06.52-.28.75-.85.73-1.51,0-3,0-4.53,0-.4,0-.64-.06-.73-.55a14.81,14.81,0,0,0-4.44-8A7.27,7.27,0,0,1,4.09,8.37a8.67,8.67,0,0,1,5-4.3,11.1,11.1,0,0,1,11,1.42,6.72,6.72,0,0,1,2.79,3.95A8,8,0,0,1,22.87,13.56Z"/><path class="cls-3" d="M13.77,7.42a6.09,6.09,0,0,1,4.51,2,3,3,0,0,1,.74,2,.79.79,0,0,1-.68.89.73.73,0,0,1-.86-.69c-.24-1.6-1.48-2-2.76-2.4a5.3,5.3,0,0,0-1.06-.14c-.59-.05-1.18-.2-1.14-.9S13.19,7.39,13.77,7.42Z"/></g></g></svg>