<svg xmlns="http://www.w3.org/2000/svg" viewBox="0 0 64.8 64.8"><defs><style>.cls-1{fill:#09f;}.cls-2{fill:#fff;}</style></defs><title>Recurso 2Gas Natural</title><g id="Capa_2" data-name="Capa 2"><g id="Capa_1-2" data-name="Capa 1"><rect class="cls-1" width="64.8" height="64.8" rx="9.6" ry="9.6"/><path class="cls-2" d="M32.42,18.38a18.52,18.52,0,0,0-3.11,3.08,20.8,20.8,0,0,0-4.68,10A22.2,22.2,0,0,0,25,39.8a28.13,28.13,0,0,0,3.4,8.67,7.7,7.7,0,0,1-1.64-.54,19.23,19.23,0,0,1-6.35-4.09,13.29,13.29,0,0,1-4-10.61,26.27,26.27,0,0,1,6.29-15.38A46.81,46.81,0,0,1,36.07,6.66a3,3,0,0,1,.31-.15,2.25,2.25,0,0,1-.12,1,13,13,0,0,0,1.61,7.78,77.82,77.82,0,0,0,4.22,6.8A26.11,26.11,0,0,1,46,30.41c1.43,6.4-.19,11.85-5.25,16.16a10.29,10.29,0,0,1-3,1.69c-.17.07-.34.22-.57.1a24.12,24.12,0,0,0,2.4-4.11,9,9,0,0,0-.1-7.8c-.59-1.27-1.32-2.45-2-3.68a17.39,17.39,0,0,1-1.72-4.37c-1.46,1.76-1.54,3.76-1.43,5.88a1.64,1.64,0,0,1-.62-.64,13,13,0,0,1-2-6A28.13,28.13,0,0,1,32.31,19C32.34,18.83,32.37,18.65,32.42,18.38Z"/><path class="cls-2" d="M32.44,58.57q-8.73,0-17.47,0c-.56,0-.67-.17-.66-.68,0-1.3,0-2.6,0-3.9a3.52,3.52,0,0,1,3.55-3.49c.41,0,.48.14.47.5,0,1,0,2,0,3.07,0,.34.05.49.44.48,1.07,0,2.13,0,3.19,0,.35,0,.42-.12.42-.44,0-1,0-2.05,0-3.07,0-.39.07-.55.51-.54,1,0,2.05,0,3.07,0,.37,0,.46.11.46.47,0,1,0,2,0,3.07,0,.42.13.52.53.51,1,0,2,0,3,0,.4,0,.55-.09.53-.51,0-1,0-2.05,0-3.07,0-.36.08-.48.46-.47,1,0,2.08,0,3.13,0,.38,0,.45.14.44.48,0,1,0,2,0,3.07,0,.37.07.51.48.5,1,0,2.08,0,3.12,0,.38,0,.46-.12.45-.47,0-1,0-2.05,0-3.07,0-.36,0-.52.47-.51,1,0,2.08,0,3.13,0,.33,0,.43.09.43.42,0,1.07,0,2.13,0,3.19,0,.34.09.44.43.43,1.06,0,2.13,0,3.19,0,.33,0,.43-.08.43-.42,0-1.06,0-2.13,0-3.19,0-.32.07-.43.42-.44A3.51,3.51,0,0,1,50.56,54c0,1.32,0,2.64,0,4,0,.56-.19.62-.66.61Z"/></g></g></svg>