<svg xmlns="http://www.w3.org/2000/svg" viewBox="0 0 64.8 64.8"><defs><style>.cls-1{fill:#ccc;}.cls-2{fill:#fff;}</style></defs><title>Recurso 7IFO 080K Desactivado</title><g id="Capa_2" data-name="Capa 2"><g id="Capa_1-2" data-name="Capa 1"><rect class="cls-1" width="64.8" height="64.8" rx="9.6" ry="9.6"/><path class="cls-2" d="M31.05,17.67V16.33c-.2,0-.4,0-.6,0a7.81,7.81,0,0,1-1,0,1.32,1.32,0,0,1-1.16-1.44,1.35,1.35,0,0,1,1.33-1.22H35a1.34,1.34,0,1,1,0,2.68c-.44,0-.87,0-1.32,0v1.34h6.48a1.36,1.36,0,0,1,1.53,1.24l1.2,6.2q.72,3.75,1.45,7.5c.53,2.74,1.05,5.47,1.58,8.21.49,2.5,1,5,1.46,7.5.53,2.73,1,5.47,1.58,8.2.25,1.26.49,2.52.73,3.78a1.32,1.32,0,0,1-1.28,1.56h-32a1.35,1.35,0,0,1-1.39-1.72q.67-3.42,1.33-6.84t1.3-6.69c.49-2.58,1-5.15,1.49-7.73l1.29-6.65q.72-3.75,1.45-7.5l1.14-5.93a1.33,1.33,0,0,1,1.39-1.13h6.61Zm2.68,2.69V58.93c0,.22.06.27.27.27H46.39a.25.25,0,0,0-.09-.09l-1.91-.83-9.16-4a.24.24,0,0,1-.16-.27V51.56c0-.05,0-.11,0-.19l11.21,4.82-1.63-8.42-.09,0-7,3a.4.4,0,0,1-.37,0,15.34,15.34,0,0,0-1.57-.66.73.73,0,0,1-.6-.92c0-.16,0-.24.21-.31l5.79-2.5,1.45-.63-.15-.09-2.5-1.35-4.62-2.49a.27.27,0,0,1-.17-.29V39a1.91,1.91,0,0,1,0-.2l8.73,4.73c-.55-2.85-1.09-5.64-1.63-8.45L42,35.2,36.75,38a.3.3,0,0,1-.34,0c-.39-.22-.79-.43-1.19-.63a.23.23,0,0,1-.15-.26q0-.51,0-1a.3.3,0,0,1,.2-.33l3.9-2.08L40.38,33l-.19-.13-5-3.21a.29.29,0,0,1-.14-.27V26.66a1.34,1.34,0,0,1,0-.19l6.23,3.93-1.42-7.28-.19.11c-1.14.74-2.29,1.47-3.43,2.22a.23.23,0,0,1-.3,0c-.24-.17-.49-.33-.74-.48a.28.28,0,0,1-.16-.3c0-.48,0-1,0-1.44a.31.31,0,0,1,.17-.31L39,20.51l.22-.15ZM31.05,59.18V53.67l-11.63,5,0-.06c.19-1,.39-2,.59-3a.27.27,0,0,1,.16-.17l8.47-3.71.37-.17-.31-.14-7.1-3.08c-.15-.06-.19-.12-.16-.29.11-.48.19-1,.28-1.45.06-.32.13-.64.2-1l9.15,3.93V41.08l-.13.06-1.75.93c-1.78,1-3.56,1.91-5.35,2.85a.36.36,0,0,1-.27,0c-.42-.17-.83-.37-1.25-.54-.13,0-.16-.11-.13-.24.1-.44.18-.89.28-1.33a.39.39,0,0,1,.18-.25l5.1-2.75,1.82-1L27.94,38l-4-2.14a.21.21,0,0,1-.13-.26c.06-.24.09-.47.13-.71.12-.62.23-1.24.35-1.88l6.73,3.64V28.77l-.7.44L25.8,32.1c-.06,0-.17.07-.22,0-.33-.17-.65-.35-1-.54l.39-2a.46.46,0,0,1,.17-.24l3.53-2.23,1.22-.77-.16-.11L26.23,24a.21.21,0,0,1-.12-.28c.13-.61.24-1.21.36-1.82.05-.23.1-.47.16-.72L31,23.94V20.36h-5.6q-3.75,19.41-7.53,38.82Z"/><path class="cls-2" d="M31,12.22c-.31-.4-.61-.81-.94-1.2a9.42,9.42,0,0,0-2.39-1.87,12.05,12.05,0,0,1-1.17-.8A2.54,2.54,0,0,1,26,5.26a2.25,2.25,0,0,1,2.18-1A2.64,2.64,0,0,1,30.29,6a7.29,7.29,0,0,1,.58,2.38c.11,1.27.16,2.54.24,3.81Z"/><path class="cls-2" d="M33.77,10.89a19.1,19.1,0,0,1,.54-5.44,4.51,4.51,0,0,1,.8-1.63,2.34,2.34,0,0,1,3.26-.39,2.18,2.18,0,0,1,.12,3.15A10.49,10.49,0,0,1,37,7.72a9.42,9.42,0,0,0-2.77,2.49C34.06,10.43,33.92,10.66,33.77,10.89Z"/></g></g></svg>