<svg xmlns="http://www.w3.org/2000/svg" viewBox="0 0 64.8 64.8"><defs><style>.cls-1{fill:#ccc;}.cls-2{fill:#fdfdfd;}</style></defs><title>Recurso 7Biomasa Desactivado</title><g id="Capa_2" data-name="Capa 2"><g id="Capa_1-2" data-name="Capa 1"><rect class="cls-1" width="64.8" height="64.8" rx="9.6" ry="9.6"/><path class="cls-2" d="M46.79,14.38C39.51,19.07,34.87,25.78,32,33.82a65.11,65.11,0,0,0-3.53,18.43c-.11,2-.24,3.93-.24,5.89,0,1.3-.87.93-1.51.93s-1.54.33-1.51-1c.18-7,.47-14,2.33-20.87.37-1.35.29-2.25-.91-3.15-1.76-1.31-2.11-3.38-2.24-5.4C23.79,19.83,28,12.92,36,9.19A40,40,0,0,1,49.67,5.84a63.79,63.79,0,0,1,9,0c.8,0,1.23.21.89,1.14C57.64,12.21,56.74,17.71,55,23c-1.63,4.92-4,9.27-8.77,11.92a21.46,21.46,0,0,1-12.54,2.35c-1.1-.09-1.34-.4-1-1.52A41,41,0,0,1,46.75,15c.11-.09.21-.2.32-.3s.1-.26,0-.35S46.86,14.29,46.79,14.38Z"/><path class="cls-2" d="M21.62,42.36a11.51,11.51,0,0,1-5.93.48,10.42,10.42,0,0,1-6-4.49A42.7,42.7,0,0,1,5.16,29.2c4.54-1.05,9-1.48,13.39.07,3.7,1.31,5.61,4.11,6.33,7.83a4.08,4.08,0,0,1-.57,3.25c-.52.71-.31,1.18,0,1.82A7.83,7.83,0,0,1,25,48c-1.14-2-1.63-4.14-2.79-5.9-.49-.26-.55-.85-.94-1.2a13.48,13.48,0,0,0-.94-1.65A6,6,0,0,0,19.42,38a18.44,18.44,0,0,0-4.28-4,19.63,19.63,0,0,1,4.3,4,8.06,8.06,0,0,1,1,1.29c.43.61.7,1.3,1.15,1.9C21.65,41.62,22.13,42,21.62,42.36Z"/></g></g></svg>