<svg xmlns="http://www.w3.org/2000/svg" viewBox="0 0 65.8 65.8"><defs><style>.cls-1{fill:#1472b6;stroke:#1472b6;stroke-miterlimit:10;}.cls-2{fill:#fff;}</style></defs><title>Recurso 5Gas Licuado</title><g id="Capa_2" data-name="Capa 2"><g id="Capa_1-2" data-name="Capa 1"><rect class="cls-1" x="0.5" y="0.5" width="64.8" height="64.8" rx="9.6" ry="9.6"/><path class="cls-2" d="M44.16,16.33V5.19H34.83v.09a2,2,0,0,1-2,2h-.45a2,2,0,0,1-2-2V5.19H21.13V16.33H19.3c-2.64,0-4,3.76-4,6.41V51.52a4.82,4.82,0,0,0,4.8,4.81H44.9a4.82,4.82,0,0,0,4.8-4.81V22.74C49.7,20.11,46.79,16.4,44.16,16.33ZM24.63,12.12A3.08,3.08,0,0,1,27.47,9h.81a6.41,6.41,0,0,0,4.51,1.45A6.36,6.36,0,0,0,37.3,9a3.2,3.2,0,0,1,3.36,3.13v4.21H34.83v-3.4H30.46v3.4H24.63Z"/><rect class="cls-2" x="20.5" y="57.32" width="24" height="4.08"/></g></g></svg>