<svg xmlns="http://www.w3.org/2000/svg" viewBox="0 0 64.8 64.8"><defs><style>.cls-1{fill:#ccc;}.cls-2{fill:#fff;}</style></defs><title>Recurso 9Carbón Desactivado</title><g id="Capa_2" data-name="Capa 2"><g id="Capa_1-2" data-name="Capa 1"><rect class="cls-1" width="64.8" height="64.8" rx="9.6" ry="9.6"/><path class="cls-2" d="M11.07,23.65A9.72,9.72,0,0,1,21.66,12.2c.13-.58.22-1.17.4-1.73a7,7,0,0,1,10-4,.82.82,0,0,0,.9.05A7,7,0,0,1,43.42,12a1.21,1.21,0,0,0,0,.23A9.76,9.76,0,0,1,54.11,23.65h1.82A1.67,1.67,0,0,1,57.64,26c-.38,1.27-.38,1.27-1.67,1.27q-23.83,0-47.65,0c-.59,0-.78-.18-1-.72-.81-2,.3-3.1,2.14-2.9C10,23.69,10.5,23.65,11.07,23.65Z"/><path class="cls-2" d="M8.59,30.48H56.22c-.15.53-.29,1-.45,1.52C54.2,37.11,52.61,42.23,51,47.35a1.81,1.81,0,0,1-1.44,1.48.87.87,0,0,1-.94-.35,6.84,6.84,0,0,0-11,0,1,1,0,0,1-.86.42H28.14a1,1,0,0,1-.9-.45,6.86,6.86,0,0,0-10.81-.15A1.42,1.42,0,0,1,14,48a3,3,0,0,1-.24-.59q-2.53-8.19-5-16.4C8.68,30.84,8.64,30.67,8.59,30.48Z"/><circle class="cls-2" cx="21.31" cy="54.2" r="5.03"/><circle class="cls-2" cx="43.38" cy="54.2" r="5.03"/></g></g></svg>