<svg xmlns="http://www.w3.org/2000/svg" viewBox="0 0 64.8 64.8"><defs><style>.cls-1{fill:#56091b;}.cls-2{fill:#fff;}</style></defs><title>Recurso 10Kerosene</title><g id="Capa_2" data-name="Capa 2"><g id="Capa_1-2" data-name="Capa 1"><rect class="cls-1" width="64.8" height="64.8" rx="9.6" ry="9.6"/><path class="cls-2" d="M45.23,45.15l-.89-21.53a10.13,10.13,0,0,0-5.15-9.26v-.08A2.3,2.3,0,0,0,36.87,12h-.34V9h0L40,8.75a.19.19,0,0,0,.09-.34,14.75,14.75,0,0,0-5.5-1.09V5.48h0a2.2,2.2,0,0,0-4.4,0h0V7.32a14.75,14.75,0,0,0-5.5,1.09.19.19,0,0,0,.09.34L28.26,9h0v3h-.34a2.3,2.3,0,0,0-2.31,2.31v.08a10.13,10.13,0,0,0-5.15,9.26l-.89,21.53A6.8,6.8,0,0,0,23.11,51v4.26a2.51,2.51,0,0,0-1.33,1.93c0,2.2,4.76,4,10.62,4S43,59.37,43,57.17a2.51,2.51,0,0,0-1.33-1.93V51A6.8,6.8,0,0,0,45.23,45.15ZM35.94,10.29v.41a.68.68,0,0,1-.68.68H33.67A.68.68,0,0,1,33,10.7v-.41a.67.67,0,0,1,.68-.68h1.59A.67.67,0,0,1,35.94,10.29Zm-7.08,0a.67.67,0,0,1,.68-.68h1.59a.67.67,0,0,1,.68.68v.41a.68.68,0,0,1-.68.68H29.54a.68.68,0,0,1-.68-.68Zm2.07-4.52A1.47,1.47,0,1,1,32.4,7.25,1.47,1.47,0,0,1,30.93,5.77ZM43.15,24.5,44,43.87a6.19,6.19,0,0,1-2.9,5.1,9.81,9.81,0,0,0-4.42-1.64,10.26,10.26,0,0,0,1.87-2,12.67,12.67,0,0,0,2-4.07,14.64,14.64,0,0,0,.59-2.49,14.32,14.32,0,0,0-.54-6.35q-1-2.82-1.67-5.7h0l-.75-4.33a1.4,1.4,0,0,0-.64-1h.84c1,0,2.17-.24,2.17-1.28v-.59a1.3,1.3,0,0,1-1.07-1.33l-.1-1.54A9.32,9.32,0,0,1,43.15,24.5ZM28.3,22.66h8.2a1.17,1.17,0,0,1,1.07,1l.67,3.9h0q.63,2.59,1.51,5.13a12.9,12.9,0,0,1,.48,5.72,13.85,13.85,0,0,1-.53,2.24,11.37,11.37,0,0,1-1.81,3.66A9.43,9.43,0,0,1,36.43,46a7.85,7.85,0,0,0-4-.73,7.85,7.85,0,0,0-4,.73,9.43,9.43,0,0,1-1.46-1.62,11.37,11.37,0,0,1-1.81-3.66,13.85,13.85,0,0,1-.53-2.24,12.9,12.9,0,0,1,.48-5.72c.14-.41.28-.82.41-1.23s.26-.88.41-1.31c.25-.86.48-1.72.69-2.59h0l.67-3.9A1.17,1.17,0,0,1,28.3,22.66ZM20.85,43.87l.8-19.37a9.32,9.32,0,0,1,3.81-7.84l-.1,1.54a1.9,1.9,0,0,1-1.07,1.33v.59c0,1,1.13,1.28,2.17,1.28h.84a1.4,1.4,0,0,0-.64,1l-.75,4.33h0c-.23,1-.49,1.93-.77,2.88-.17.48-.32,1-.45,1.46s-.3.91-.45,1.36a14.32,14.32,0,0,0-.54,6.35,14.64,14.64,0,0,0,.59,2.49,12.67,12.67,0,0,0,2,4.07,10.26,10.26,0,0,0,1.87,2A9.81,9.81,0,0,0,23.75,49,6.19,6.19,0,0,1,20.85,43.87Z"/><path class="cls-2" d="M31,42.2a2.26,2.26,0,0,0,.48.17,8.37,8.37,0,0,1-1-2.56,6.57,6.57,0,0,1-.11-2.46,6.19,6.19,0,0,1,1.38-3,5.29,5.29,0,0,1,.92-.91c0,.08,0,.13,0,.18a8.17,8.17,0,0,0-.15,2.56A3.8,3.8,0,0,0,33.1,38a.54.54,0,0,0,.18.19,2.35,2.35,0,0,1,.42-1.74,5.11,5.11,0,0,0,.51,1.29c.19.37.41.72.58,1.09a2.65,2.65,0,0,1,0,2.3,6.39,6.39,0,0,1-.71,1.21c.07,0,.12,0,.18,0a3,3,0,0,0,.87-.5A4.53,4.53,0,0,0,36.7,37a7.46,7.46,0,0,0-1.16-2.45c-.42-.66-.88-1.3-1.24-2a3.81,3.81,0,0,1-.48-2.29.61.61,0,0,0,0-.3l-.09,0a13.85,13.85,0,0,0-4,3.3A7.77,7.77,0,0,0,28,37.87,3.89,3.89,0,0,0,29.14,41,5.64,5.64,0,0,0,31,42.2Z"/></g></g></svg>