<svg xmlns="http://www.w3.org/2000/svg" viewBox="0 0 64.8 64.8"><defs><style>.cls-1{fill:#b57d4f;}.cls-2{fill:#fff;}</style></defs><title>Recurso 9Leña</title><g id="Capa_2" data-name="Capa 2"><g id="Capa_1-2" data-name="Capa 1"><rect class="cls-1" width="64.8" height="64.8" rx="9.6" ry="9.6"/><path class="cls-2" d="M61.09,35.31c-.5-.88-.94-1.8-1.36-2.71a14.17,14.17,0,0,0-1.85-3.43,3.58,3.58,0,0,1-.81-2.55c-.07-3.27-1.16-6.08-4.21-7.72a2.76,2.76,0,0,1-1.54-2,15.64,15.64,0,0,0-2-5.34A1.17,1.17,0,0,0,47.69,11c-1.89.65-3.8,1.21-5.69,1.86-6.29,2.13-12.64,4.12-18.73,6.82a12,12,0,0,0-6,5.3,1.94,1.94,0,0,1-1,.86c-1.17.51-2.34,1-3.49,1.57a3,3,0,0,0-1.93,2,10.76,10.76,0,0,0-.09,5.52c.22.67.76,1.43.5,2s-1.15.78-1.77,1.15a11.75,11.75,0,0,0-5.95,9.56c-.06.66.1,1,.8,1.19a26,26,0,0,1,3.33,1.1c3,1.19,5.81,1.41,8.57-.51.54-.38,1.17-.64,1.73-1s.68-.22.72.35c.1,1.14.27,2.28.34,3.42,0,.68.25.66.76.37,2.13-1.21,4.28-2.38,6.43-3.56.24-.13.46-.37.78-.3a22.39,22.39,0,0,1,0,2.46c-.06.57.11.76.63.83a23.15,23.15,0,0,1,4.23,1.12,7.29,7.29,0,0,0,6.58-.68c2.89-1.91,5.65-4,8.47-6q7-5,13.92-9.94C61.31,36.1,61.39,35.83,61.09,35.31Zm-44-6.94a11,11,0,0,1,6.94-8c7.5-3,15.15-5.62,22.85-8.08.41-.13.81-.26,1.22-.37a.3.3,0,0,1,.37.23c0,.16-.12.22-.25.27-2.87,1.05-5.18,3-7.61,4.77a26.33,26.33,0,0,1-6.74,3.24L32.49,21h0c.07.13.2.12.32.15h0A29.22,29.22,0,0,0,43.3,16.23a18.76,18.76,0,0,1,5-2.76c.58-.18.9-.12,1.06.51A19.45,19.45,0,0,0,50,16.11c.27.7.08,1-.6,1.34-2.43,1-4.82,2.12-7.24,3.18l-6.65,2.9h0a6.24,6.24,0,0,1-1.7.73,3.83,3.83,0,0,1,1.51-.9l6.23-3.22L41.42,20c-2.74,1.25-5.57,2.28-8.19,3.78s-4.73,3.67-7.16,5.69c-.33-2.28-.28-4.49-1.86-6.35,0,.64.44,1,.52,1.48a6.27,6.27,0,0,0-3.38,2c.64-.21,1.17-.65,1.81-.87,1.8-.61,1.79-.63,2.06,1.2.11.71.19,1.32-.8,1.43a1.63,1.63,0,0,0-1.08.63h0l0,.22.3-.12c.49-.17,1.11-.62,1.46-.23s0,1-.15,1.5a8.08,8.08,0,0,1-.35.8c-.4.82-.4.82-1.34.71-.06-.18.08-.29.15-.42s.25-.22.17-.47a1.92,1.92,0,0,0-.32.18c-.94.68-1.23.69-2.24.12a.56.56,0,0,1-.3-.58,3.38,3.38,0,0,1,.56-1.8h0l-.2-.21a4,4,0,0,0-1,2l-.22,0c-1.34-.62-1.29-.61-1.07-2.06a7.35,7.35,0,0,1,1.93-4.43,4.59,4.59,0,0,0-2,2.81c-.15.6-.28,1.19-.46,1.78s-.16,1-1,.78S17,28.71,17.05,28.37Zm3.29,11c-.44.34-.72-.3-1-.55s.18-.31.32-.39c.8-.44,1.62-.86,2.44-1.29A4.24,4.24,0,0,1,20.34,39.36ZM21.63,39c-.1.48-.14.73-.22,1a.54.54,0,0,1-.21.3s-.19-.06-.26-.13,0-.29.07-.41S21.32,39.35,21.63,39ZM13.08,28.45c1-.54,2.09-1.05,3.21-1.61a.94.94,0,0,1-.55.91A7.32,7.32,0,0,0,14,29.43c-.09.13-.18.42-.41.26a3,3,0,0,1-.93-.85C12.46,28.6,12.89,28.55,13.08,28.45Zm-.47,21.31c-.44,0-.89,0-1.4,0l.28-.73a2,2,0,0,1-2.27.45.78.78,0,0,1-.65-.85,4.08,4.08,0,0,1,.56-1.9h0l-.19-.18a3.09,3.09,0,0,0-.87,1.82c-.07.46-.23.48-.62.33-1.16-.45-1.19-.43-1-1.62a10.5,10.5,0,0,1,.77-3.54h0l-.16-.17a5.75,5.75,0,0,0-1,2.75c-.08.42-.18.83-.29,1.24s0,.7-.63.57-.62-.35-.56-.83a10.77,10.77,0,0,1,5-7.9c.56-.36,1.16-.65,1.74-1,.28-.16.47-.23.53.21.13.92.29,1.82.47,2.87l-1.64-1.17-.09.1,1.2,1.59c.34.43.32.68-.27.88a5.25,5.25,0,0,0-2.71,2,10.35,10.35,0,0,1,2.66-1.43c1-.28,1-.29,1.17.68,0,.16.08.31.11.47.21,1.25.21,1.25-.91,1.83a2.38,2.38,0,0,0-1,1,7.57,7.57,0,0,1,1.46-.69c.4-.1.65,0,.66.48,0,.71.09,1.43.16,2.15C13.17,49.61,13,49.78,12.61,49.76Zm.89-8.85a.91.91,0,0,1,.23-1.33c1-.9,1.49-2.21,2.23-3.34-1.07.81-1.6,2.08-2.71,3-.44-1.46-.87-2.88-1.31-4.29-.13-.41.18-.36.38-.43a3.32,3.32,0,0,0,1.79-1.24c-.62.25-1.11.49-1.62.65s-.87.09-.85-.61c0-1,.08-2,.17-3,0-.49.19-.51.58-.28s.68.64.43,1.19c-.16.35-.28.72-.45,1.15.53-.13.67-.59.86-.91.32-.55.65-.61,1.12-.23l.07,0c.73.28,1.06.68.74,1.54a14.89,14.89,0,0,0-.45,2.43h0c0,.12,0,.25.15.32a20.49,20.49,0,0,0,.94-2.87c.17-.45.34-.52.74-.31a3.63,3.63,0,0,0,1.36.44l-2.9-2c-.81-.56-.81-.57-.16-1.34l.85-1h0c.05-.1.18-.18.24-.09a.46.46,0,0,1-.06.58,1.14,1.14,0,0,0,.77,1.43,12.09,12.09,0,0,1,2.47,2,.79.79,0,0,1,.12,1.09C17.65,36.21,16.1,39,13.5,40.91Zm11.76,4.34a19.25,19.25,0,0,1-5,5.55.78.78,0,0,1,.08-1.19,12.08,12.08,0,0,0,2.15-3.35,8.36,8.36,0,0,0-.67.66c-.22.27-.39.57-.59.85-.33.45-.62,1.18-1.14,1.12s-.42-.87-.59-1.35c-.28-.8-.49-1.63-.77-2.43-.15-.43-.13-.66.38-.77a2.15,2.15,0,0,0,1.31-.77,1.6,1.6,0,0,0-1.11.17c-.77.24-1,.13-1-.65a7.72,7.72,0,0,1,0-1.36c.08-.68.21-1.35.31-2,1.16.44,1.16.44.49,2.69A2.36,2.36,0,0,0,20,41.2c.21-.46.45-.46.86-.23,1.18.65,1.18.63.95,2a10.18,10.18,0,0,1-.68,2.74,1.34,1.34,0,0,0,.72-1c.23-.73.46-1.47.64-2.22.1-.43.27-.51.66-.31a3,3,0,0,0,1.3.39l-2-1.38.06-.14,5.12,1.22.15.17C26.18,42.79,25.85,44.11,25.26,45.25Zm2.39-8.13c0,.8,0,1.6,0,2.4,0,.47-.18.69-.67.63S25.79,40,25.18,40c-.39,0-.53-.3-.72-.55s-.26-.65-.72-.76a4.32,4.32,0,0,1,.32,1.22c-1.48.1-1.49.1-1.06-1.29.21-.66.45-1.31.64-2s.44-.58.9-.39a3,3,0,0,1,1.68,1.81,2.16,2.16,0,0,0-.91-2c-.14-.13-.34-.19-.45-.34s-.86-.07-.59-.71.39-.65,1.14-.58c0-.43-.83-.45-.55-1,.58-1.1.69-2.45,2-3.16a104.09,104.09,0,0,1,16.67-7.63,55.54,55.54,0,0,0,6.81-2.95,1.48,1.48,0,0,1,1.71.09,25,25,0,0,0-2.16,1.71c-4.22,4.15-9.58,6.39-14.79,8.89-.5.24-1,.52-1.48.78h0l.18.17c3.57-1.65,7.24-3.08,10.75-4.86a41.2,41.2,0,0,0,6.19-4.38c.66-.5,1.37-.91,2.07-1.34a.7.7,0,0,1,1,.16,7.42,7.42,0,0,1,1.9,3.63A.88.88,0,0,1,55,25.75c-1.95.7-3.91,1.38-5.84,2.13a19.31,19.31,0,0,0-4.33,2.34c1.57-.39,3-1.25,4.54-1.61h0a.81.81,0,0,1,.63-.18c-.07.26-.28.27-.46.33q-5.64,3.06-11.3,6.1c-1.41.76-2.67,1.73-4,2.59h0l-.83.61c-.15.17-.29.36-.46.52s-.19.4-.41.17,0-.33.12-.45l.58-.4h0a2.54,2.54,0,0,1,.82-.63c2.2-1.72,4.22-3.66,6.27-5.56a38.44,38.44,0,0,1,10-6.29c.43-.21.85-.44,1.27-.66l-.17-.14c-4.56,1.94-9,4.1-12.77,7.42-1.77,1.56-3.64,3-5.5,4.5-1,.79-1,.75-1.58-.37a11.34,11.34,0,0,0-4.07-4.51.44.44,0,0,0-.53-.07c2.7,2.26,4.31,5,4.07,8.76-.44-.48-.43-.5-.57-1.44A6.54,6.54,0,0,0,28.3,34.4l-.15.16a7.92,7.92,0,0,1,1.9,5.26c0,.38-.11.51-.49.52-1.1,0-1.21,0-1.3-1.11A8.5,8.5,0,0,0,27.8,37h0Zm31.16-2.53a8,8,0,0,1-1.66,1.82,43.24,43.24,0,0,1-7.67,4.87,18.52,18.52,0,0,0-2.76,1.6l.18.16,2-1h0c.12-.13.34-.31.44-.17s-.13.25-.27.33l-10,6.9c-.2-.36.06-.47.16-.63a30.06,30.06,0,0,1,9-8.77c.68-.46,1.32-1,2-1.47l-.18-.18h0a81.15,81.15,0,0,0-7.13,5c-2.24,1.87-3.8,4.34-5.89,6.54a10.52,10.52,0,0,0-2-4.94l-.16.16h0c-.13.48-.61.56-.94.78A4.83,4.83,0,0,0,32,47.69l1.37-1.13c1.56-1.32,2-1.17,2.55.77.19.67.22,1.12-.59,1.38a2.06,2.06,0,0,0-1.23,1.2c.51-.28.93-.54,1.37-.76s.63-.12.7.38c.09.71.2,1.42.36,2.12.11.45,0,.64-.46.65a7.2,7.2,0,0,0-1,.11c-.37.06-.32-.15-.28-.38h0l-.2-.21a1.71,1.71,0,0,1-2.3.29c-.17-.14-.14-.33-.15-.51A4,4,0,0,1,33,48.71c-1,.61-1.26,1.15-1.57,3,0,0-.05,0-.08,0-1.71-.32-1.66-.32-1.51-2,.12-1.3,0-2.62.75-3.79h0l-.18-.19A5.92,5.92,0,0,0,29.45,49c-.07.45-.11.9-.15,1.35a.67.67,0,0,1-.76.72c-.6,0-.54-.41-.52-.78a10.53,10.53,0,0,1,4.89-8.78c5.69-3.61,11.55-6.93,17.53-10,1.67-.87,3.34-1.76,5-2.62.21-.11.51-.4.69-.07s-.23.37-.4.49C53,31.19,50.83,33.74,48.4,36a28.24,28.24,0,0,1-6.23,4c-.64.34-1.24.73-1.85,1.1l.18.17c4.31-2.06,8.47-4.34,11.74-8A15.57,15.57,0,0,1,56.53,30c.48-.26.68-.17.9.3.47,1,1,2,1.48,3A1.13,1.13,0,0,1,58.81,34.59Z"/><path class="cls-2" d="M35.36,23.36c0,.15,0,.25.19.17h0Z"/><path class="cls-2" d="M34.08,37.27c0,.15,0,.23.18.18h0Z"/><path class="cls-2" d="M33.26,37.9h0l.17.16C33.45,37.92,33.42,37.83,33.26,37.9Z"/><path class="cls-2" d="M21.9,28c-.45,0-.61.34-.8.61a2.85,2.85,0,0,1,.31-.12c0,.11-.08.22-.11.33C21.53,28.61,21.83,28.44,21.9,28Z"/><path class="cls-2" d="M39.6,41.67h0c.21-.19.53-.26.68-.55l-.8.49Z"/><path class="cls-2" d="M39.62,41.7l.07.06h0l.81-.48a1.75,1.75,0,0,0-.81.36A.2.2,0,0,0,39.62,41.7Z"/><path class="cls-2" d="M50.8,37.66l-.09-.09h0c-.23.16-.5.24-.65.49a2,2,0,0,0,.71-.38Z"/><path class="cls-2" d="M50.89,37.76l-.08-.08c-.18.19-.48.27-.57.56A1.42,1.42,0,0,0,50.89,37.76Z"/><path class="cls-2" d="M31.91,21.34l.07.07h0a1.63,1.63,0,0,0,.83-.29c-.26.12-.58,0-.83.18Z"/><path class="cls-2" d="M31.81,21.24l.09.08a1.43,1.43,0,0,0,.59-.35h0A1.11,1.11,0,0,0,31.81,21.24Z"/><path class="cls-2" d="M9.74,45.87a1.48,1.48,0,0,0-.8.67c.09,0,.21-.06.28-.15,0,.13-.07.22-.09.33A2.19,2.19,0,0,0,9.74,45.87Z"/><path class="cls-2" d="M32.92,31.73a1.44,1.44,0,0,0,.86-.36,1.2,1.2,0,0,1-.33.06c0-.09.12-.14.15-.23h0A1,1,0,0,0,32.92,31.73Z"/><path class="cls-2" d="M14.86,35.5c-.06,0-.15.1-.19.06s0-.26,0-.38a1.93,1.93,0,0,0-.4.81A.66.66,0,0,0,14.86,35.5Z"/><path class="cls-2" d="M31,45.24a.73.73,0,0,0-.58.51c.07,0,.17-.1.21-.06s0,.16,0,.25A1.2,1.2,0,0,0,31,45.24Z"/><path class="cls-2" d="M7.05,43.36c.06,0,.14-.13.18-.08s0,.17,0,.25a1.45,1.45,0,0,0,.41-.68C7.25,42.89,7.16,43.13,7.05,43.36Z"/><path class="cls-2" d="M46.32,43.27l.09.09h0L46.9,43c-.19.07-.4.07-.55.22Z"/><path class="cls-2" d="M46.24,43.19l.07.07a1.15,1.15,0,0,0,.41-.38h0Z"/><path class="cls-2" d="M27.59,33.92a1.17,1.17,0,0,0,.56.64c0-.06-.11-.13,0-.19s.14,0,.2,0h0A1.36,1.36,0,0,0,27.59,33.92Z"/><path class="cls-2" d="M34.36,44.11l.52.68c-.06-.07-.1-.17,0-.23s.12,0,.18.07A.78.78,0,0,0,34.36,44.11Z"/><path class="cls-2" d="M52.13,24.39a.94.94,0,0,0-.63.23.21.21,0,0,1,.22,0c.1.07,0,.12,0,.18h0C51.85,24.69,52.08,24.69,52.13,24.39Z"/><path class="cls-2" d="M42.11,19.85h0L42,19.78a.94.94,0,0,0-.43.36h0Z"/><path class="cls-2" d="M42,19.77l-.07-.06h0l-.51.26a1.85,1.85,0,0,0,.56-.19Z"/><path class="cls-2" d="M49.58,28.76c0-.14,0-.23-.17-.15h0Z"/><path class="cls-2" d="M22.9,29.52l.46-.38c-.2-.05,0-.15,0-.22A.86.86,0,0,0,22.9,29.52Z"/><path class="cls-2" d="M49.11,42.21c0-.14,0-.23-.17-.16h0Z"/><path class="cls-2" d="M15.87,29c0-.18.22-.45-.18-.49C15.9,28.59,15.8,28.81,15.87,29Z"/><path class="cls-2" d="M27.53,36.55c0,.22-.06.41.12.57a1.27,1.27,0,0,1,0-.34c.1,0,.11.16.19.21h0C27.76,36.83,27.75,36.65,27.53,36.55Z"/><path class="cls-2" d="M34.91,51.58c-.21-.17-.27.11-.36.24.25-.11.23,0,.2.21C34.88,51.9,35,51.67,34.91,51.58Z"/><path class="cls-2" d="M45.29,35.25a6.12,6.12,0,0,0,2-1.58c-2.48,1.28-4.93,2.61-7.35,4a12.1,12.1,0,0,0-2.67,1.87l.18.18c.72-.46,1.41-1,2.16-1.36C41.49,37.28,43.41,36.29,45.29,35.25Z"/><path class="cls-2" d="M37.27,39.5a2.68,2.68,0,0,0-.88.92,2.58,2.58,0,0,0,1.06-.74C37.29,39.73,37.24,39.66,37.27,39.5Z"/><path class="cls-2" d="M50.83,37.64l.34-.22,0,0s0,0,0,0-.25.15-.37.24a.16.16,0,0,1,0,.11l.47-.33-.15-.15-.5.29A.24.24,0,0,1,50.83,37.64Z"/><path class="cls-2" d="M50.84,37.65h0l0,0v0h0Z"/><path class="cls-2" d="M45.9,43.6s-.09,0-.12,0a.13.13,0,0,0,.12,0h0v-.11h0c-.23.11-.48.18-.56.49a.56.56,0,0,0,.58-.29v-.06Z"/><path class="cls-2" d="M39.52,41.6c-.17.1-.44.12-.36.44a.86.86,0,0,0,.53-.28C39.52,41.83,39.49,41.74,39.52,41.6Z"/><path class="cls-2" d="M39.6,41.72l0,0,0,0A0,0,0,0,0,39.6,41.72Z"/><path class="cls-2" d="M52.26,36.57a.37.37,0,0,0-.37.32c.23.13.34-.06.47-.16S52.29,36.57,52.26,36.57Z"/><path class="cls-2" d="M46.24,43.34l-.28.21a.19.19,0,0,1-.05.1l.5-.29C46.31,43.39,46.26,43.38,46.24,43.34Z"/><path class="cls-2" d="M46,43.53l.28-.2a.23.23,0,0,1,0-.14l-.35.27A.1.1,0,0,1,46,43.53Z"/><path class="cls-2" d="M46.23,43.33h0a.27.27,0,0,0,.08-.07h0l0,0Z"/><path class="cls-2" d="M46,43.53l-.05,0v0l.06,0Z"/><path class="cls-2" d="M51.36,37.43c.16-.07.42-.2.3-.34s-.32.06-.45.19C51.37,37.22,51.4,37.28,51.36,37.43Z"/><path class="cls-2" d="M33.32,28.18h0c.81-.27,1.61-.53,2.41-.82A72,72,0,0,0,45.44,23v-.18h0c-1.44.6-2.88,1.19-4.32,1.8-2.66,1.13-5.4,2.05-8,3.35l.2.18Z"/><path class="cls-2" d="M33.32,28.18c-.18.06-.23,0-.2-.18a5.19,5.19,0,0,0-1.77.93l.18.19Z"/><path class="cls-2" d="M31.35,28.93a1.45,1.45,0,0,0-.72.92l.9-.73C31.35,29.17,31.31,29.09,31.35,28.93Z"/><path class="cls-2" d="M45.48,23s0,.06,0,.06a.88.88,0,0,0,.66-.53l-.67.35A.13.13,0,0,1,45.48,23Z"/><path class="cls-2" d="M44.63,30.34c-.24,0-.37.08-.41.32a.43.43,0,0,0,.5-.22S44.66,30.34,44.63,30.34Z"/><path class="cls-2" d="M28.8,19.35h0c.57-.22,1.14-.43,1.7-.66,2.09-.82,4.27-1.4,6.32-2.32l0-.21-1.88.62a50,50,0,0,0-6.44,2.42C28.55,19.33,28.67,19.34,28.8,19.35Z"/><path class="cls-2" d="M36.82,16.37a5.85,5.85,0,0,0,1.77-.68h0l-.19-.16h0l-1.6.63A.12.12,0,0,1,36.82,16.37Z"/><path class="cls-2" d="M27.66,20l1.14-.6c-.18.1-.33.14-.32-.15a2.65,2.65,0,0,0-1,.61l.18.14Z"/><path class="cls-2" d="M31.48,21.47c.11-.08.25,0,.36-.12h0a.11.11,0,0,1-.05-.1l-.88.3A1.56,1.56,0,0,0,32,21.41h0l-.1-.06C31.75,21.41,31.61,21.42,31.48,21.47Z"/><path class="cls-2" d="M31.88,21.35h0v0l0,0Z"/><path class="cls-2" d="M27.05,20.32h0l.61-.37h0c-.07,0-.16,0-.18-.14l-.59.36.16.15Z"/><path class="cls-2" d="M27,20.38s0,0,.05-.06c-.17.08-.19,0-.16-.15-.2.14-.65.2-.49.48S26.79,20.47,27,20.38Z"/><path class="cls-2" d="M29.14,22.33a1.71,1.71,0,0,0,.93-.3.45.45,0,0,1,0-.11A1.44,1.44,0,0,0,29.14,22.33Z"/><path class="cls-2" d="M42.62,19.48a.35.35,0,0,1-.11.07l0,0,.08.06a1.32,1.32,0,0,0,.63-.41,1,1,0,0,0-.78.29l.06,0Z"/><path class="cls-2" d="M30.08,21.92h0V22a.91.91,0,0,0,.71-.36C30.44,21.7,30.22,21.71,30.08,21.92Z"/><path class="cls-2" d="M42.45,19.58c-.12.07-.26.11-.39.18h0a.11.11,0,0,1,0,.09l.44-.22A.19.19,0,0,1,42.45,19.58Z"/><path class="cls-2" d="M42.43,19.57h0l0-.06-.47.2h0l.11,0C42.17,19.68,42.31,19.64,42.43,19.57Z"/><path class="cls-2" d="M42,19.75l0,0h0l0,0Z"/><path class="cls-2" d="M42.47,19.57h0Z"/><path class="cls-2" d="M43.52,19.12a.3.3,0,0,0,.3-.2c0-.08,0-.16-.15-.11l-.26.16C43.45,19,43.49,19.12,43.52,19.12Z"/><path class="cls-2" d="M38.59,15.69h0l.43-.21h0l-.17-.15h0l-.45.2h0C38.48,15.57,38.57,15.58,38.59,15.69Z"/><path class="cls-2" d="M39,15.48c.15-.07.43-.14.3-.31s-.32,0-.47.16C39,15.25,39,15.34,39,15.48Z"/></g></g></svg>