<svg xmlns="http://www.w3.org/2000/svg" viewBox="0 0 64.8 64.8"><defs><style>.cls-1{fill:#ccc;}.cls-2{fill:#fdfdfd;}</style></defs><title>Recurso 3Petroleo 5-6 Desactivado</title><g id="Capa_2" data-name="Capa 2"><g id="Capa_1-2" data-name="Capa 1"><rect class="cls-1" width="64.8" height="64.8" rx="9.6" ry="9.6"/><path class="cls-2" d="M28.57,38.61a4.2,4.2,0,0,0,2,5.57.62.62,0,0,0-.09-.37,7.91,7.91,0,0,1-.4-4.69c.32-1.33.7-2.63,1.11-3.93a9.33,9.33,0,0,0,.55-2.09c-.29.45-.55.92-.82,1.38C30.14,35.85,29.25,37.17,28.57,38.61Z"/><path class="cls-2" d="M27.35,15.23a6.88,6.88,0,0,0-4.56-.37,3.37,3.37,0,0,0-1.81,1,1.12,1.12,0,0,0-.05,1.5,2.07,2.07,0,0,0,.67.54,6,6,0,0,0,2.95.69,5.71,5.71,0,0,0,1.17-.08A4.58,4.58,0,0,0,28,17.58a1.15,1.15,0,0,0,.1-1.86A2.2,2.2,0,0,0,27.35,15.23Z"/><path class="cls-2" d="M53.91,31.21a5.92,5.92,0,0,0-1.37-2.49,1.67,1.67,0,0,1-.45-1.21c0-1.87,0-3.75,0-5.63A2.08,2.08,0,0,1,52.76,20,1.18,1.18,0,0,0,53,19.7a5,5,0,0,0,.17-6,11.61,11.61,0,0,0-4.7-3.77A26.31,26.31,0,0,0,42.2,7.78a48.63,48.63,0,0,0-5.62-.88c-1.39-.14-2.78-.07-4.17-.09a39.08,39.08,0,0,0-5.92.3,36.74,36.74,0,0,0-8,1.92A15.32,15.32,0,0,0,12,13.28a5,5,0,0,0-1.2,3,5.36,5.36,0,0,0,1.54,3.92,1.48,1.48,0,0,1,.43,1.09c0,1.91,0,3.83,0,5.74a2.61,2.61,0,0,1-.67,1.84,4.84,4.84,0,0,0-1.15,4.53A7,7,0,0,0,12.44,36a1.22,1.22,0,0,1,.3.85c0,2.17,0,4.33,0,6.5a1.31,1.31,0,0,1-.4,1.09,3.79,3.79,0,0,0-.58.74,4.81,4.81,0,0,0-.43,5.16,8.62,8.62,0,0,0,3.15,3.33,22.18,22.18,0,0,0,5.66,2.6A40.59,40.59,0,0,0,31.24,58a46,46,0,0,0,8.77-.6,29.23,29.23,0,0,0,8.84-2.8,11.75,11.75,0,0,0,4-3.22,4.87,4.87,0,0,0,1-4.17,7.27,7.27,0,0,0-1.54-2.8,1.25,1.25,0,0,1-.28-.83c0-1.91.05-3.83,0-5.75a3.28,3.28,0,0,1,.84-2.44A4.67,4.67,0,0,0,53.91,31.21ZM35.31,45.34a6.06,6.06,0,0,1-6.67-.58,5.06,5.06,0,0,1-2.07-4.17,6.44,6.44,0,0,1,.69-2.76,29.17,29.17,0,0,1,4.07-6.19l.91-1.08c.13-.17.24-.21.4,0a39.72,39.72,0,0,1,4.59,6.55,7.27,7.27,0,0,1,1.07,3.49A5.07,5.07,0,0,1,35.31,45.34Zm14.49-28a7.66,7.66,0,0,1-2.62,2,24.25,24.25,0,0,1-7.08,2.38,35.9,35.9,0,0,1-5.76.65c-.36,0-.71.07-1.06,0a44.64,44.64,0,0,1-9.44-.92,24.16,24.16,0,0,1-6.06-2.14,8.81,8.81,0,0,1-2.28-1.59c-1-1.1-.91-1.64.13-2.65a8.8,8.8,0,0,1,2.21-1.5,24.62,24.62,0,0,1,6.4-2.2,40.61,40.61,0,0,1,6.11-.74,42.42,42.42,0,0,1,6.67.19,28.55,28.55,0,0,1,9.6,2.53,11.39,11.39,0,0,1,2.5,1.62,3.55,3.55,0,0,1,.73.82A1.19,1.19,0,0,1,49.8,17.35Z"/></g></g></svg>