<svg xmlns="http://www.w3.org/2000/svg" viewBox="0 0 64.8 64.8"><defs><style>.cls-1{fill:#ccc;}.cls-2{fill:#fff;}</style></defs><title>Recurso 4Pellet de LeñaDesactivado</title><g id="Capa_2" data-name="Capa 2"><g id="Capa_1-2" data-name="Capa 1"><rect class="cls-1" width="64.8" height="64.8" rx="9.6" ry="9.6"/><path class="cls-2" d="M49.66,38.88V24.61c0-1.68-.59-2.28-2.27-2.28-3.35,0-6.71,0-10.06,0-.48,0-.7-.09-.8-.35V4.55a2,2,0,0,0-2-2H30.23a2,2,0,0,0-1.95,2V22c-.1.24-.31.33-.74.33-3.44,0-6.87,0-10.31,0-1.44,0-2.08.66-2.08,2.05q0,14.55,0,29.11a1.73,1.73,0,0,0,.74,1.64c.35.21.31.49.31.78,0,1.76,0,3.52,0,5.28,0,.71.28,1,1,1h2.39c.66,0,1-.26,1-1,0-1.67,0-3.35,0-5,0-.53.13-.7.68-.7q11.27,0,22.52,0c.55,0,.7.16.69.7,0,1.67,0,3.35,0,5,0,.73.29,1,1,1h2.39c.67,0,1-.3,1-1,0-1.76,0-3.52,0-5.28,0-.29,0-.57.29-.79a1.76,1.76,0,0,0,.73-1.64C49.65,48.61,49.66,43.75,49.66,38.88ZM44,47.15c-1.07,0-2.14,0-3.22,0-.06-.3.21-.37.33-.52a1.9,1.9,0,0,0-1.66-3.2,10.14,10.14,0,0,0-2.34.75c-.19.07-.23,0-.2-.19a6.19,6.19,0,0,0,2.29-5.78,10.92,10.92,0,0,0-3.34-5.92A4.69,4.69,0,0,1,35.69,35c-.58-2.83-2.35-4.64-4.64-6.2a12.94,12.94,0,0,1-2.79,7.74,7.64,7.64,0,0,0-.87-2.43c-.36,1.82-1.33,3.29-1.75,5a4.59,4.59,0,0,0,.77,4c-1.36-.39-2.38-.12-2.8,1.2s.66,2.08,1.68,2.91H20.38c-.26,0-.41-.1-.4-.39s0-.33,0-.49c0-6.16,0-12.32,0-18.48,0-.64.15-.82.81-.82Q32.41,27,44,27c.64,0,.82.15.82.81q0,9.29,0,18.56C44.86,47,44.68,47.18,44,47.15Z"/></g></g></svg>