<svg xmlns="http://www.w3.org/2000/svg" viewBox="0 0 64.8 64.8"><defs><style>.cls-1{fill:#ccc;}.cls-2{fill:#fff;}</style></defs><title>Recurso 12Gas Licuado Desactivado</title><g id="Capa_2" data-name="Capa 2"><g id="Capa_1-2" data-name="Capa 1"><rect class="cls-1" width="64.8" height="64.8" rx="9.6" ry="9.6"/><path class="cls-2" d="M43.66,15.83V4.69H34.33v.09a2,2,0,0,1-2,2h-.45a2,2,0,0,1-2-2V4.69H20.63V15.83H18.8c-2.64,0-4,3.76-4,6.41V51a4.82,4.82,0,0,0,4.8,4.81H44.4A4.82,4.82,0,0,0,49.2,51V22.24C49.2,19.61,46.29,15.9,43.66,15.83ZM24.13,11.62A3.08,3.08,0,0,1,27,8.49h.81a6.41,6.41,0,0,0,4.51,1.45A6.36,6.36,0,0,0,36.8,8.49a3.2,3.2,0,0,1,3.36,3.13v4.21H34.33v-3.4H30v3.4H24.13Z"/><rect class="cls-2" x="20" y="56.82" width="24" height="4.08"/></g></g></svg>