<svg xmlns="http://www.w3.org/2000/svg" viewBox="0 0 64.8 64.8"><defs><style>.cls-1{fill:#002646;}.cls-2{fill:#fff;}</style></defs><title>Recurso 1Gasolina</title><g id="Capa_2" data-name="Capa 2"><g id="Capa_1-2" data-name="Capa 1"><rect class="cls-1" width="64.8" height="64.8" rx="9.6" ry="9.6"/><path class="cls-2" d="M26.8,36.42c.13.15,3,3.56,3,5.22a3,3,0,0,1-1.56,2.64c-.33-1.67-2-4.08-3.17-5.68.77-1.14,1.58-2.11,1.64-2.19l.05,0Zm-3.54,1.31c.18.22,4.53,5.37,4.53,7.88a4.6,4.6,0,1,1-9.2,0c0-2.49,4.35-7.66,4.54-7.88l.06-.08Zm-1.2,11.06a5.19,5.19,0,0,1-2.49-3.17S19.85,48.79,22.06,48.79ZM57.8,13.18l-2.52,1.87a1.09,1.09,0,0,1,.07.24A9.44,9.44,0,0,1,52.66,24l-.14.08V40.77a12.7,12.7,0,0,1-1.59,6.74A4.84,4.84,0,0,1,46.86,50C43.94,50,41,46.83,41,40.76a15.43,15.43,0,0,0-.55-4.37v21H8V11A1.82,1.82,0,0,1,8.4,7.38H40a1.83,1.83,0,0,1,1.83,1.83A1.79,1.79,0,0,1,40.42,11V32c1.77,2,2.68,5,2.68,8.82,0,4.65,1.94,7.14,3.76,7.14a2.81,2.81,0,0,0,2.29-1.53,10.39,10.39,0,0,0,1.26-5.61V16.55a1.09,1.09,0,0,1,.42-.85l5.71-4.24a1.06,1.06,0,0,1,1.48.22A1.09,1.09,0,0,1,57.8,13.18ZM14,26.9H34a2.11,2.11,0,0,0,2.11-2.12v-9.4A2.11,2.11,0,0,0,34,13.27H14a2.11,2.11,0,0,0-2.11,2.11v9.4A2.11,2.11,0,0,0,14,26.9ZM32.89,43.81A8.69,8.69,0,1,0,24.2,52.5,8.69,8.69,0,0,0,32.89,43.81Zm20.5-27.37-.87.64v3.61A7.13,7.13,0,0,0,53.39,16.44Z"/></g></g></svg>