<svg xmlns="http://www.w3.org/2000/svg" viewBox="0 0 64.8 64.8"><defs><style>.cls-1{fill:#09f;}.cls-2{fill:#fff;}</style></defs><title>Recurso 3Fotografias</title><g id="Capa_2" data-name="Capa 2"><g id="Capa_1-2" data-name="Capa 1"><rect class="cls-1" width="64.8" height="64.8" rx="9.6" ry="9.6"/><path class="cls-2" d="M60.9,18.69l-45.55-8A2.88,2.88,0,0,0,12,13L6.77,42.78A2.87,2.87,0,0,0,9.1,46.11l45.55,8A2.88,2.88,0,0,0,58,51.81L63.23,22A2.87,2.87,0,0,0,60.9,18.69ZM54.23,50,10.9,42.37l4.87-27.58L59.1,22.43Z"/><path class="cls-2" d="M12,17.4l-1.5,4.22-4.6.81L10.77,50,32.5,46.18l11.52,2L10.35,54.14A2.88,2.88,0,0,1,7,51.81L1.77,22A2.87,2.87,0,0,1,4.1,18.69L12,17.4m20.5.34,16.73-2.95,1.08,6.09,4.19.74L53,13a2.88,2.88,0,0,0-3.33-2.33L21,15.71"/><polygon class="cls-2" points="52.65 47.87 12.27 40.75 22.35 33.93 29.39 38.7 41.72 28.41 46.15 38.03 50.73 33.05 52.65 47.87"/><circle class="cls-2" cx="23" cy="24.4" r="4"/></g></g></svg>