<svg xmlns="http://www.w3.org/2000/svg" viewBox="0 0 65.81 63.09"><defs><style>.cls-1{fill:#ccc;}</style></defs><title>Recurso 14Generación inactivo</title><g id="Capa_2" data-name="Capa 2"><g id="Capa_1-2" data-name="Capa 1"><path class="cls-1" d="M39.43,30.49l.58,0a6.32,6.32,0,0,1,.9.07c-.06-3.13-.11-6.27-.19-9.4,0-.63.38-1.7-.75-1.64-.92.05-.51,1-.51,1.57C39.43,24.21,39.43,27.35,39.43,30.49Z"/><path class="cls-1" d="M23.86,34.83A6,6,0,0,1,25,34.72h.4q-.14-7-.29-14c0-.55.12-1.3-.77-1.21s-.47.77-.47,1.2Q23.85,27.76,23.86,34.83Z"/><path class="cls-1" d="M24.47.57a30.68,30.68,0,0,1,1,11.27c-.05.61-.16,1.13-1,1.11-.54,0-1,0-1-.75C23.51,8.31,23,4.37,24.47.57Z"/><path class="cls-1" d="M40.07,0c1.34,4.28,1.11,8.21,1,12.12,0,.62-.44.83-1,.82s-1-.17-1-.83C39,8.21,38.71,4.28,40.07,0Z"/><path class="cls-1" d="M11.05,23.7c2.69-2.9,6-4.78,9.46-6.55.5-.26.67-.17.93.32s.47,1-.21,1.43C18,20.91,14.85,22.93,11.05,23.7Z"/><path class="cls-1" d="M37.86,23.66C34,23,30.78,20.81,27.5,18.84c-.63-.38-.29-.81-.12-1.26.23-.64.62-.65,1.16-.37A34.57,34.57,0,0,1,37.86,23.66Z"/><path class="cls-1" d="M54,23.79c-2.76-.15-4.6-1.39-6.51-2.38-1.39-.73-2.67-1.64-4-2.4A.9.9,0,0,1,43,17.64c.24-.55.55-.79,1.14-.47A44.13,44.13,0,0,1,54,23.79Z"/><path class="cls-1" d="M42.07,16.22a1.91,1.91,0,0,1-2,2,1.81,1.81,0,0,1-1.91-1.9A1.84,1.84,0,0,1,40,14.22,1.92,1.92,0,0,1,42.07,16.22Z"/><path class="cls-1" d="M24.5,18.28c-1.21-.19-2-.76-2-2.09a1.8,1.8,0,0,1,1.82-2,1.87,1.87,0,0,1,2.1,1.93C26.5,17.43,25.67,18.06,24.5,18.28Z"/><path class="cls-1" d="M33.59,18.37c1.37-.2,2-2,3.42-.93a.82.82,0,0,1,0,1.41C35.84,19.87,34.83,19.89,33.59,18.37Z"/><path class="cls-1" d="M30.82,22.34c-1.5.75-2.68,1.5-4.56,1.44C27.76,22.63,28.46,20.51,30.82,22.34Z"/><path class="cls-1" d="M14.58,62.38c-1.94,0-3.87,0-5.81,0-.76,0-.95-.27-.9-1s-.11-1.23.85-1.23c3.92,0,7.83,0,11.75,0,.94,0,.82.63.86,1.23s-.2,1-.94,1C18.45,62.35,16.52,62.38,14.58,62.38Z"/><path class="cls-1" d="M9,56.45c1.29-.5,9.59-.54,10.8,0Z"/><path class="cls-1" d="M14.21,58.41c.15-.33-.27-1,.4-1s.37.63.38,1,.17,1-.36,1C13.88,59.48,14.39,58.76,14.21,58.41Z"/><path class="cls-1" d="M65.81,43.58c0-.26,0-.39-.35-.44-1.17-.2-2.33-.45-3.5-.66-.53-.09-.61-.37-.49-1.49-.67-.84-.64-1.11-.26-1.44.87-.73,1.71-1.49,2.58-2.21a.45.45,0,0,0,.1-.73A17.38,17.38,0,0,1,63,35c-.15-.27-.3-.3-.58-.2-1.1.4-2.21.75-3.3,1.16-.53.19-.74,0-1.16-1-1-.43-1.12-.63-1-1.09.4-1.11.76-2.24,1.17-3.36.17-.47,0-.52-1.15-.9a.37.37,0,0,1-.12-.07c-.79-.78-1-.79-1.31-.4-.73.88-1.49,1.75-2.24,2.62-.13.16-.24.31-.51.2a10.09,10.09,0,0,0-2-.51.38.38,0,0,1-.37-.38c-.2-1.17-.46-2.33-.66-3.5-.07-.44-.25-.55-.84-.45a3.77,3.77,0,0,1-1.34,0c-.57-.11-.68.07-.75.43-.21,1.13-.46,2.25-.65,3.39a.57.57,0,0,1-.56.55,7.51,7.51,0,0,0-1.69.44.5.5,0,0,1-.66-.2c-.71-.86-1.46-1.68-2.18-2.54-.3-.35-.46-.35-1.21.4a.69.69,0,0,1-.3.17c-1,.26-1.17.43-1,.91.32.9.63,1.81.94,2.71.39,1.1.28.8-1,2.1-.31.55-.54.67-1,.51-1.06-.4-2.14-.73-3.2-1.12-.46-.17-.53.09-.81.72a4.36,4.36,0,0,1-.57,1c-.35.44-.34.6,0,.85.86.73,1.7,1.5,2.56,2.23.35.3.34.5-.11,1.3a.14.14,0,0,0,0,.06c-.18,1.25-.06,1.46-.53,1.54-1.13.21-2.25.46-3.38.66-.47.08-.54.27-.45.88a3.55,3.55,0,0,1,0,1.3c-.1.55.06.69.43.75.91.16,1.81.39,2.73.5.76.09,1.21.36,1.26,1.19a3.89,3.89,0,0,0,.32,1.14.52.52,0,0,1-.18.7c-.9.75-1.77,1.53-2.66,2.29-.2.17-.27.3-.11.55.42.68.81,1.38,1.18,2.08,1.18-.44,2.38-.8,3.56-1.24a.76.76,0,0,1,1,.26,6,6,0,0,0,1,1,.54.54,0,0,1,.18.72c-.41,1.11-.78,2.23-1.17,3.35a.39.39,0,0,0,.21.57,23,23,0,0,1,2,1.2c.85-1,1.76-2,2.62-3,.32-.38.57-.28,1.42.18,1-.08,1.31.1,1.41.7.19,1.13.43,2.26.63,3.39,0,.31.17.38.51.35a11.75,11.75,0,0,1,1.78,0c.4,0,.54,0,.6-.39.2-1.15.45-2.29.68-3.43.09-.46.23-.7,1.35-.55.91-.66,1.15-.62,1.47-.25.76.89,1.54,1.76,2.3,2.65.34.41.56.28,1.35-.47,1.1-.39,1.35-.45,1.17-1-.42-1.13-.78-2.28-1.19-3.41-.13-.34-.11-.54.32-.79a2.44,2.44,0,0,0,.92-.91c.24-.43.45-.45.78-.34,1.12.4,2.24.78,3.35,1.19.34.12.52.08.69-.27s.53-1,.8-1.43c.1-.16.19-.32.29-.5s-.18-.23-.28-.32c-.89-.77-1.77-1.54-2.67-2.29-.37-.3-.25-.52,0-1.19a2.81,2.81,0,0,0,.21-.9c0-.53.14-.7.5-.77,1.17-.22,2.32-.47,3.49-.67.31-.06.42-.14.41-.46C65.79,44.9,65.8,44.24,65.81,43.58ZM48.31,54.85C42.89,55.06,38,50.11,38,44.53a10.37,10.37,0,0,1,20.73-.21A10.4,10.4,0,0,1,48.31,54.85Z"/><path class="cls-1" d="M48.37,41a3.5,3.5,0,0,0-3.62,3.47,3.61,3.61,0,1,0,7.21,0A3.5,3.5,0,0,0,48.37,41Z"/><path class="cls-1" d="M26.66,33.9h-12c-4.11,0-8.21,0-12.32,0-1.65,0-2.29.6-2.3,2.21C0,42,0,47.92,0,53.82,0,55.43.66,56,2.31,56s3.5,0,5.25,0c.31,0,.89-.22.87.34,0,1.19.74,1,1.48,1s1.76.06,2.63,0,.92.38.93,1.06-.15,1.1-1,1.06c-1.34-.06-2.68,0-4,0-1,0-1.45.46-1.4,1.44a8.69,8.69,0,0,1,0,1.25c-.06.67.25.89.89.89q6.63,0,13.28,0c.59,0,.83-.22.78-.81a10.75,10.75,0,0,1,0-1.39c.09-1-.45-1.39-1.41-1.38-1.24,0-2.49,0-3.73,0-.77,0-1.26,0-1.27-1.07s.52-1.06,1.27-1,1.56,0,2.35,0,1.54.26,1.44-1c0-.55.54-.37.86-.37,1.75,0,3.51,0,5.26,0s2.39-.66,2.4-2.42V36.46C29.2,34.51,28.6,33.9,26.66,33.9Zm-19.57,19a1.2,1.2,0,0,1-1.2,1.2H2.72a1.2,1.2,0,0,1-1.2-1.2V49.69a1.2,1.2,0,0,1,1.2-1.2H5.89a1.2,1.2,0,0,1,1.2,1.2Zm0-6.67a1.2,1.2,0,0,1-1.2,1.19H2.72a1.2,1.2,0,0,1-1.2-1.19V43a1.2,1.2,0,0,1,1.2-1.2H5.89A1.2,1.2,0,0,1,7.09,43Zm0-6.68a1.2,1.2,0,0,1-1.2,1.2H2.72a1.2,1.2,0,0,1-1.2-1.2V36.33a1.2,1.2,0,0,1,1.2-1.19H5.89a1.2,1.2,0,0,1,1.2,1.19Zm6.75,13.35a1.2,1.2,0,0,1-1.2,1.2H9.46a1.2,1.2,0,0,1-1.19-1.2V49.69a1.2,1.2,0,0,1,1.19-1.2h3.18a1.2,1.2,0,0,1,1.2,1.2Zm0-6.76a1.2,1.2,0,0,1-1.2,1.2H9.46a1.2,1.2,0,0,1-1.19-1.2V42.92a1.2,1.2,0,0,1,1.19-1.19h3.18a1.2,1.2,0,0,1,1.2,1.19Zm0-6.59a1.2,1.2,0,0,1-1.2,1.2H9.46a1.2,1.2,0,0,1-1.19-1.2V36.33a1.2,1.2,0,0,1,1.19-1.19h3.18a1.2,1.2,0,0,1,1.2,1.19Zm6.51,13.35a1.19,1.19,0,0,1-1.19,1.2H16a1.19,1.19,0,0,1-1.19-1.2V49.69A1.19,1.19,0,0,1,16,48.49h3.18a1.19,1.19,0,0,1,1.19,1.2Zm0-6.67a1.19,1.19,0,0,1-1.19,1.19H16a1.19,1.19,0,0,1-1.19-1.19V43A1.19,1.19,0,0,1,16,41.81h3.18A1.19,1.19,0,0,1,20.35,43Zm0-6.68a1.19,1.19,0,0,1-1.19,1.2H16a1.19,1.19,0,0,1-1.19-1.2V36.33A1.19,1.19,0,0,1,16,35.14h3.18a1.19,1.19,0,0,1,1.19,1.19Zm1.34-3.18a1.2,1.2,0,0,1,1.2-1.19h3.18a1.2,1.2,0,0,1,1.19,1.19v3.18a1.2,1.2,0,0,1-1.19,1.2H22.89a1.2,1.2,0,0,1-1.2-1.2Zm5.59,16.53a1.2,1.2,0,0,1-1.2,1.2H22.91a1.2,1.2,0,0,1-1.2-1.2V49.69a1.2,1.2,0,0,1,1.2-1.2h3.17a1.2,1.2,0,0,1,1.2,1.2Zm0-6.67a1.2,1.2,0,0,1-1.2,1.19H22.91a1.2,1.2,0,0,1-1.2-1.19V43a1.2,1.2,0,0,1,1.2-1.2h3.17a1.2,1.2,0,0,1,1.2,1.2Z"/></g></g></svg>