<svg xmlns="http://www.w3.org/2000/svg" viewBox="0 0 76.2 63.09"><defs><style>.cls-1{stroke:#000;stroke-miterlimit:10;stroke-width:0.25px;}.cls-2{fill:#2a4b95;}.cls-3{fill:#00050c;}.cls-4{fill:#00050b;}.cls-5{fill:#2f7dbb;}.cls-6{fill:#00040a;}.cls-7{fill:#012639;}.cls-8{fill:#000206;}.cls-9{fill:#fff;}</style></defs><title>Recurso 5Generación</title><g id="Capa_2" data-name="Capa 2"><g id="Capa_1-2" data-name="Capa 1"><path class="cls-1" d="M25.29,20.05l1,21.72a2,2,0,1,1-3.92,0l1.52-21.72v0a.7.7,0,0,1,1.4,0"/><path class="cls-2" d="M24.47.57a30.68,30.68,0,0,1,1,11.27c-.05.61-.16,1.13-1,1.11-.54,0-1,0-1-.75C23.51,8.31,23,4.37,24.47.57Z"/><path class="cls-2" d="M40.07,0c1.34,4.28,1.11,8.21,1,12.12,0,.62-.44.83-1,.82s-1-.17-1-.83C39,8.21,38.71,4.28,40.07,0Z"/><path class="cls-2" d="M11.05,23.7c2.69-2.9,6-4.78,9.46-6.55.5-.26.67-.17.93.32s.47,1-.21,1.43C18,20.91,14.85,22.93,11.05,23.7Z"/><path class="cls-2" d="M37.86,23.66C34,23,30.78,20.81,27.5,18.84c-.63-.38-.29-.81-.12-1.26.23-.64.62-.65,1.16-.37A34.57,34.57,0,0,1,37.86,23.66Z"/><path class="cls-2" d="M54,23.79c-2.76-.15-4.6-1.39-6.51-2.38-1.39-.73-2.67-1.64-4-2.4A.9.9,0,0,1,43,17.64c.24-.55.55-.79,1.14-.47A44.13,44.13,0,0,1,54,23.79Z"/><path class="cls-3" d="M42.19,16.22a1.91,1.91,0,0,1-2,2,1.83,1.83,0,0,1-1.92-1.9,1.85,1.85,0,0,1,1.92-2.11A1.92,1.92,0,0,1,42.19,16.22Z"/><path class="cls-4" d="M24.5,18.28c-1.21-.19-2-.76-2-2.09a1.8,1.8,0,0,1,1.82-2,1.87,1.87,0,0,1,2.1,1.93C26.5,17.43,25.67,18.06,24.5,18.28Z"/><path class="cls-2" d="M33.59,18.37c1.37-.2,2-2,3.42-.93a.82.82,0,0,1,0,1.41C35.84,19.87,34.83,19.89,33.59,18.37Z"/><path class="cls-2" d="M30.82,22.34c-1.5.75-2.68,1.5-4.56,1.44C27.76,22.63,28.46,20.51,30.82,22.34Z"/><path class="cls-5" d="M14.63,33.89h12c1.94,0,2.54.61,2.54,2.56V53.62c0,1.76-.64,2.41-2.4,2.42s-3.51,0-5.26,0c-.32,0-.9-.18-.86.37.1,1.26-.75,1-1.44,1s-1.57,0-2.35,0-1.29-.06-1.27,1,.5,1.09,1.27,1.07c1.24,0,2.49,0,3.73,0,1,0,1.5.34,1.41,1.38a10.75,10.75,0,0,0,0,1.39c0,.59-.19.81-.78.81q-6.64,0-13.28,0c-.64,0-1-.22-.89-.89a8.69,8.69,0,0,0,0-1.25c0-1,.41-1.44,1.4-1.44,1.33,0,2.67,0,4,0,.83,0,1-.31,1-1.06s0-1.14-.93-1.06-1.75,0-2.63,0-1.51.15-1.48-1c0-.56-.56-.33-.87-.34-1.75,0-3.5,0-5.25,0S0,55.43,0,53.82C0,47.92,0,42,0,36.11c0-1.61.65-2.2,2.3-2.21C6.42,33.88,10.52,33.89,14.63,33.89Z"/><path class="cls-6" d="M14.58,62.38c-1.94,0-3.87,0-5.81,0-.76,0-.95-.27-.9-1s-.11-1.23.85-1.23c3.92,0,7.83,0,11.75,0,.94,0,.82.63.86,1.23s-.2,1-.94,1C18.45,62.35,16.52,62.38,14.58,62.38Z"/><path d="M9,56.45c1.29-.5,9.59-.54,10.8,0Z"/><path class="cls-7" d="M14.21,58.41c.15-.33-.27-1,.4-1s.37.63.38,1,.17,1-.36,1C13.88,59.48,14.39,58.76,14.21,58.41Z"/><rect class="cls-8" x="1.52" y="48.49" width="5.57" height="5.57" rx="1.2" ry="1.2"/><rect class="cls-8" x="8.27" y="48.49" width="5.57" height="5.57" rx="1.2" ry="1.2"/><rect class="cls-8" x="1.52" y="41.81" width="5.57" height="5.57" rx="1.2" ry="1.2"/><rect class="cls-8" x="14.79" y="48.49" width="5.57" height="5.57" rx="1.2" ry="1.2"/><rect class="cls-8" x="21.71" y="48.49" width="5.57" height="5.57" rx="1.2" ry="1.2"/><rect class="cls-8" x="8.27" y="41.73" width="5.57" height="5.57" rx="1.2" ry="1.2"/><rect class="cls-8" x="14.79" y="41.81" width="5.57" height="5.57" rx="1.2" ry="1.2"/><rect class="cls-8" x="21.71" y="41.81" width="5.57" height="5.57" rx="1.2" ry="1.2"/><rect class="cls-8" x="1.52" y="35.14" width="5.57" height="5.57" rx="1.2" ry="1.2"/><rect class="cls-8" x="8.27" y="35.14" width="5.57" height="5.57" rx="1.2" ry="1.2"/><rect class="cls-8" x="14.79" y="35.14" width="5.57" height="5.57" rx="1.2" ry="1.2"/><rect class="cls-8" x="21.69" y="35.14" width="5.57" height="5.57" rx="1.2" ry="1.2"/><path d="M67.62,40.6H69a1.08,1.08,0,0,1,1.08,1.07V55.8A1.09,1.09,0,0,1,69,56.88H67.52V40.7A.1.1,0,0,1,67.62,40.6Z"/><path d="M43.85,59.33H66.2a.92.92,0,0,0,.92-.92V39.52a.92.92,0,0,0-.92-.92H57.52v-.3a.85.85,0,0,0-.85-.85h-.84a2.15,2.15,0,1,0-1.76,0h-.68a.86.86,0,0,0-.86.85v.3H43.85a.92.92,0,0,0-.92.92V58.41A.92.92,0,0,0,43.85,59.33ZM55,36.91a1.42,1.42,0,1,1,1.42-1.42A1.43,1.43,0,0,1,55,36.91Zm9,9.29a.3.3,0,0,1-.3.31H45.62a.31.31,0,0,1,0-.62H63.67A.3.3,0,0,1,64,46.2Zm-.3-1.46H45.62a.31.31,0,1,1,0-.61H63.67a.31.31,0,0,1,0,.61ZM64,48a.3.3,0,0,1-.3.31H45.62a.31.31,0,0,1,0-.62H63.67A.3.3,0,0,1,64,48ZM45.31,55a.31.31,0,0,1,.31-.31H63.67A.3.3,0,0,1,64,55a.29.29,0,0,1-.3.3H45.62A.3.3,0,0,1,45.31,55Zm0-1.77a.31.31,0,0,1,.31-.31H63.67a.31.31,0,0,1,0,.62H45.62A.31.31,0,0,1,45.31,53.19Zm0-1.77a.3.3,0,0,1,.31-.3H63.67a.29.29,0,0,1,.3.3.3.3,0,0,1-.3.31H45.62A.31.31,0,0,1,45.31,51.42Zm-.07-1.69a.3.3,0,0,1,.3-.3H63.59a.31.31,0,1,1,0,.61H45.54A.3.3,0,0,1,45.24,49.73Zm0-7a.3.3,0,0,1,.3-.31H63.59a.31.31,0,1,1,0,.61H45.54A.3.3,0,0,1,45.24,42.75Z"/><path class="cls-1" d="M38.3,38.6h3.4l-.85-18.55v0a.7.7,0,1,0-1.4,0v0l-1.3,18.56Z"/><path d="M43.62,61.1h.23V59.57H64.74V61.1h.16a.93.93,0,0,1,.92.92v.85H42.7V62A.93.93,0,0,1,43.62,61.1Z"/><path class="cls-9" d="M45.54,42.44H63.59a.31.31,0,1,1,0,.61H45.54a.31.31,0,0,1,0-.61Z"/><path class="cls-9" d="M63.67,44.74H45.62a.31.31,0,1,1,0-.61H63.67a.31.31,0,0,1,0,.61Z"/><path class="cls-9" d="M63.67,46.51H45.62a.31.31,0,0,1,0-.62H63.67a.31.31,0,0,1,0,.62Z"/><path class="cls-9" d="M63.67,48.28H45.62a.31.31,0,0,1,0-.62H63.67a.31.31,0,0,1,0,.62Z"/><path class="cls-9" d="M45.54,49.43H63.59a.31.31,0,1,1,0,.61H45.54a.31.31,0,0,1,0-.61Z"/><path class="cls-9" d="M45.62,51.12H63.67a.29.29,0,0,1,.3.3.3.3,0,0,1-.3.31H45.62a.31.31,0,0,1-.31-.31A.3.3,0,0,1,45.62,51.12Z"/><path class="cls-9" d="M45.62,52.88H63.67a.31.31,0,0,1,0,.62H45.62a.31.31,0,0,1,0-.62Z"/><path class="cls-9" d="M45.62,54.65H63.67A.3.3,0,0,1,64,55a.29.29,0,0,1-.3.3H45.62a.3.3,0,0,1-.31-.3A.31.31,0,0,1,45.62,54.65Z"/><path d="M74.12,46.81v.85h1.65a.44.44,0,0,1,.43.44v1.35a.44.44,0,0,1-.43.44H74.12v.52a1.81,1.81,0,0,1-1.8,1.8h-1.8V45h1.8A1.81,1.81,0,0,1,74.12,46.81Z"/><path d="M37.3,38.6h4.24V59.33H37.3a2.52,2.52,0,0,1-2.52-2.52V41.12A2.52,2.52,0,0,1,37.3,38.6Z"/></g></g></svg>