<svg xmlns="http://www.w3.org/2000/svg" viewBox="0 0 50.19 33.1"><defs><style>.cls-1{fill:#010101;}.cls-2{fill:#020203;}.cls-3{fill:#2f7dbb;}.cls-4{fill:#fff;}.cls-5{fill:#f8f8f8;}</style></defs><title>Recurso 24Maquinas y Equipos</title><g id="Capa_2" data-name="Capa 2"><g id="Capa_1-2" data-name="Capa 1"><path class="cls-1" d="M0,3.78c.24-.51.43-1,.71-1.51A4.54,4.54,0,0,1,3.44.21a14.22,14.22,0,0,0-.15,3A5.65,5.65,0,0,0,9.06,9.1q16,0,32.06,0a5.67,5.67,0,0,0,5.79-5.85A14.06,14.06,0,0,0,46.73.19,4.76,4.76,0,0,1,50,3.26c.07.22,0,.5.23.67V14.32a5.84,5.84,0,0,1-1.88,2.93c-1.33,1-2.85,1-4.39.94-.24,0-.25-.18-.28-.36-.07-.51-.17-1-.21-1.54a2.24,2.24,0,0,0-1.3-1.84,6.89,6.89,0,0,0-3.34-.86q-13.39,0-26.79,0a8,8,0,0,0-2.6.5A3.22,3.22,0,0,0,7,16.79c-.23,1.41-.31,1.37-1.68,1.41A5,5,0,0,1,0,14.32Z"/><path class="cls-2" d="M25.18,18.19c-5.39,0-10.78,0-16.18,0-.66,0-.71-.18-.65-.79a2.4,2.4,0,0,1,2.09-2.25,10.6,10.6,0,0,1,2.62-.41H37.41a7.93,7.93,0,0,1,3.52.74A2.65,2.65,0,0,1,42.14,18c0,.17-.14.18-.26.19H25.18Z"/><path class="cls-3" d="M39.35,28.34a7.55,7.55,0,0,1-1.93,4.41A.92.92,0,0,1,36,31.63a11.17,11.17,0,0,0,1.18-2,3.18,3.18,0,0,0-.42-3.33,3.78,3.78,0,0,1-.24-4.73,2.82,2.82,0,0,1,.6-.64A.89.89,0,0,1,38.3,21a.81.81,0,0,1,.09,1.2c-1.12,1.14-.75,2.22.06,3.3A4.59,4.59,0,0,1,39.35,28.34Z"/><path class="cls-3" d="M21,28.05a3,3,0,0,0-.75-1.81,3.89,3.89,0,0,1-.49-4.31,3.45,3.45,0,0,1,.73-.93.91.91,0,0,1,1.38,0,.89.89,0,0,1,0,1.32c-.78,1-.9,1.71-.13,2.67,1.94,2.42,1.24,4.92-.26,7.17a3.82,3.82,0,0,1-.45.59.9.9,0,0,1-1.26.17.86.86,0,0,1-.22-1.3,8.12,8.12,0,0,0,1.32-2.46A5,5,0,0,0,21,28.05Z"/><path class="cls-3" d="M12.94,20.7a.84.84,0,0,1,.8.44.82.82,0,0,1-.07,1c-1.07,1.08-.78,2.13,0,3.18a4.77,4.77,0,0,1,.47,5,8.78,8.78,0,0,1-1.39,2.34.9.9,0,0,1-1.26.19.86.86,0,0,1-.23-1.3,11.39,11.39,0,0,0,1.15-2,3.2,3.2,0,0,0-.41-3.4,3.78,3.78,0,0,1,.1-5.12A1.11,1.11,0,0,1,12.94,20.7Z"/><path class="cls-3" d="M29.45,20.7a.83.83,0,0,1,.78.47.86.86,0,0,1-.06,1c-1,1.52-1,1.83,0,3.29,1.39,2,1,3.9,0,5.84a10.22,10.22,0,0,1-.9,1.35.94.94,0,1,1-1.51-1.1A9.55,9.55,0,0,0,29,29.33a3,3,0,0,0-.46-3,4.05,4.05,0,0,1-.79-3.88,3.37,3.37,0,0,1,1-1.47A.93.93,0,0,1,29.45,20.7Z"/><path class="cls-1" d="M25.14,0C31.43,0,37.71,0,44,0c.56,0,.86.16.89.7.13,1.79.52,3.62-.79,5.18a3.6,3.6,0,0,1-2.57,1.31c-.2,0-.4,0-.59,0H9.24A3.71,3.71,0,0,1,5.3,4.3a10.84,10.84,0,0,1,0-3.55C5.35.21,5.61,0,6.21,0,12.52,0,18.83,0,25.14,0Z"/><path class="cls-4" d="M24.8,2.6H7.66a4.8,4.8,0,0,1-.66,0,.4.4,0,0,1-.36-.41A.41.41,0,0,1,7,1.7a3.84,3.84,0,0,1,.59,0h35a.41.41,0,0,1,.43.42c0,.29-.16.45-.45.48a5.76,5.76,0,0,1-.59,0Z"/><path class="cls-5" d="M24.81,4.63c5.74,0,11.48,0,17.22,0,.37,0,1-.21,1,.41s-.62.5-1,.5H7.58a2.91,2.91,0,0,1-.59,0A.44.44,0,0,1,6.63,5,.4.4,0,0,1,7,4.65c.22,0,.44,0,.67,0"/></g></g></svg>