<svg xmlns="http://www.w3.org/2000/svg" viewBox="0 0 39.07 54.2"><defs><style>.cls-1{fill:#ccc;}</style></defs><title>Recurso 9Mi edificio inactivo</title><g id="Capa_2" data-name="Capa 2"><g id="Capa_1-2" data-name="Capa 1"><path class="cls-1" d="M19.86,3.3h12c.54,0,.54,0,.54.56V5.41c0,.56,0,.56-.54.56H7.82c-.51,0-.51,0-.51-.53V3.86c0-.56,0-.56.54-.56Z"/><path class="cls-1" d="M19.83,2.67H13.07c-.46,0-.48,0-.48-.46,0-.61,0-1.21,0-1.82,0-.27.09-.39.38-.39H26.76c.3,0,.39.12.38.4,0,.62,0,1.25,0,1.88,0,.31-.12.39-.41.39Z"/><path class="cls-1" d="M39.07,52.53c0-.38-.06-.44-.44-.44h-3c-.48,0-.48,0-.48-.49V7.09c0-.51,0-.54-.54-.54H5.83c-.53,0-.55,0-.55.57V51.66c0,.43,0,.43-.44.43H.45c-.39,0-.45.06-.45.46v1.06c0,.58,0,.59.59.59H38.67c.3,0,.41-.12.4-.42S39.07,53,39.07,52.53ZM28.45,10.92c0-.26.11-.34.36-.34H32c.25,0,.36.08.36.34q0,1.63,0,3.27c0,.26-.11.34-.36.34H28.81c-.25,0-.36-.08-.36-.34Q28.47,12.56,28.45,10.92Zm.41,6.92c1,0,2.09,0,3.13,0,.33,0,.42.12.41.43,0,.52,0,1.05,0,1.58s0,1,0,1.55c0,.28-.08.39-.38.39H28.83c-.3,0-.38-.12-.38-.39,0-1.06,0-2.11,0-3.17C28.44,17.92,28.57,17.84,28.86,17.84ZM32.4,28.71c0,.26-.11.34-.36.34-.54,0-1.08,0-1.62,0s-1.07,0-1.61,0c-.25,0-.36-.08-.36-.34q0-1.63,0-3.27c0-.23.08-.34.33-.34h3.3c.24,0,.32.11.32.34Q32.39,27.08,32.4,28.71ZM21.87,10.94c0-.26.09-.35.35-.34h3.23c.24,0,.33.08.33.32v3.27c0,.24-.09.32-.33.32H22.22c-.26,0-.36-.08-.35-.34,0-.55,0-1.1,0-1.65S21.88,11.47,21.87,10.94Zm0,7.29c0-.28.08-.39.38-.39,1.06,0,2.13,0,3.19,0,.3,0,.38.11.38.39,0,1.06,0,2.11,0,3.17,0,.31-.12.39-.41.39H22.26c-.33,0-.42-.11-.41-.42,0-.52,0-1,0-1.55S21.86,18.76,21.85,18.23Zm0,7.26c0-.27.08-.39.37-.39h3.2c.29,0,.38.11.38.39,0,1.06,0,2.11,0,3.17,0,.27-.08.39-.37.39-1.07,0-2.14,0-3.2,0-.3,0-.39-.11-.38-.39,0-.54,0-1.08,0-1.62S21.86,26,21.85,25.49Zm0,6.6c0-.27.08-.39.38-.39,1.06,0,2.13,0,3.19,0,.3,0,.38.11.38.39,0,1.06,0,2.11,0,3.17,0,.31-.12.39-.41.39H22.26c-.33,0-.42-.11-.41-.42,0-.52,0-1,0-1.55S21.86,32.62,21.85,32.09ZM8,10.94c0-.23.08-.31.31-.31h3.23c.23,0,.31.08.31.31,0,1.08,0,2.15,0,3.23,0,.23-.08.31-.31.31H8.35c-.23,0-.31-.08-.31-.31C8.05,13.09,8.05,12,8,10.94Zm0,7.24c0-.23.08-.34.33-.34q1.65,0,3.3,0c.24,0,.32.11.32.35,0,1.08,0,2.17,0,3.26,0,.26-.12.34-.36.34H8.35c-.25,0-.36-.08-.36-.34Q8,19.81,8,18.18Zm.42,13.57c.53,0,1.05,0,1.58,0s1,0,1.55,0c.25,0,.35.07.35.34,0,1,0,2.11,0,3.16,0,.25-.07.35-.34.35H8.39c-.25,0-.35-.07-.35-.34,0-1,0-2.11,0-3.16C8,31.81,8.15,31.75,8.41,31.75ZM8,28.69c0-1.08,0-2.15,0-3.23,0-.23.08-.31.31-.31,1.08,0,2.15,0,3.23,0,.23,0,.31.08.31.31,0,1.08,0,2.15,0,3.23,0,.23-.08.31-.31.31H8.35C8.12,29,8,28.92,8,28.69ZM12,42.6c0,.29-.12.4-.4.39H8.32c-.29,0-.42-.11-.41-.41v-3.3c0-.3.12-.41.42-.4h3.29c.28,0,.4.11.4.39Zm2.49-31.69c0-.29.11-.42.41-.41h3.29c.3,0,.42.12.41.41v3.3c0,.28-.11.4-.39.4H14.9c-.28,0-.4-.12-.39-.4ZM18.2,35.65H14.94c-.25,0-.35-.1-.35-.35q0-1.63,0-3.27c0-.24.1-.33.34-.33,1.09,0,2.19,0,3.29,0,.23,0,.32.1.32.32q0,1.65,0,3.3C18.54,35.56,18.44,35.65,18.2,35.65Zm.29,6.9c0,.23-.08.31-.31.31H15c-.23,0-.31-.08-.31-.31,0-1.08,0-2.15,0-3.23,0-.23.08-.31.31-.31H16.6c.53,0,1,0,1.58,0,.23,0,.31.08.31.31C18.48,40.4,18.48,41.47,18.49,42.55Zm-.36-13.5c-1,0-2.09,0-3.13,0-.33,0-.42-.12-.41-.43,0-.52,0-1.05,0-1.58s0-1,0-1.55c0-.28.08-.39.38-.39h3.19c.3,0,.38.12.38.39,0,1.06,0,2.11,0,3.17C18.54,29,18.42,29.05,18.13,29.05ZM14.64,18.2c0-.23.08-.31.31-.31h3.23c.23,0,.31.08.31.31,0,1.08,0,2.15,0,3.23,0,.23-.08.31-.31.31H15c-.23,0-.31-.08-.31-.31,0-.55,0-1.1,0-1.65S14.65,18.73,14.64,18.2Zm9.43,34H15c-.33,0-.41-.11-.41-.42,0-1.48,0-2.95,0-4.42,0-.41,0-.42.43-.42h9c.41,0,.43,0,.43.42,0,1.47,0,2.94,0,4.41C24.48,52,24.4,52.15,24.07,52.15Zm1.3-9.24c-.52,0-1.05,0-1.58,0H22.24c-.28,0-.39-.08-.39-.38,0-1.06,0-2.13,0-3.19,0-.3.11-.38.39-.38h3.17c.31,0,.39.12.39.41,0,1,0,2.09,0,3.13C25.81,42.83,25.68,42.92,25.37,42.91Zm7-.39c0,.28-.08.39-.38.39H28.83c-.3,0-.38-.11-.38-.39,0-1.06,0-2.11,0-3.17,0-.31.12-.39.41-.39H32c.33,0,.42.12.41.43,0,.51,0,1,0,1.55S32.39,42,32.4,42.52ZM32,35.65c-.51,0-1,0-1.55,0H28.84c-.28,0-.39-.08-.39-.38,0-1.06,0-2.13,0-3.19,0-.3.11-.38.39-.38,1.06,0,2.11,0,3.17,0,.31,0,.39.12.39.41,0,1,0,2.09,0,3.13C32.41,35.57,32.28,35.66,32,35.65Z"/></g></g></svg>