<svg xmlns="http://www.w3.org/2000/svg" viewBox="0 0 39.07 54.2"><defs><style>.cls-1{fill:#2f7dbf;}.cls-2{fill:#fcfcfc;}.cls-3{fill:#fff;}.cls-4{fill:#fcfbfb;}</style></defs><title>Recurso 1Mi edificio</title><g id="Capa_2" data-name="Capa 2"><g id="Capa_1-2" data-name="Capa 1"><path class="cls-1" d="M19.86,3.3h12c.54,0,.54,0,.54.56V5.41c0,.56,0,.56-.54.56H7.82c-.51,0-.51,0-.51-.53V3.86c0-.56,0-.56.54-.56Z"/><path class="cls-1" d="M19.83,2.67H13.07c-.46,0-.48,0-.48-.46,0-.61,0-1.21,0-1.82,0-.27.09-.39.38-.39H26.76c.3,0,.39.12.38.4,0,.62,0,1.25,0,1.88,0,.31-.12.39-.41.39Z"/><path class="cls-1" d="M5.28,29.35V7.12c0-.55,0-.57.55-.57H34.57c.51,0,.54,0,.54.54V51.6c0,.49,0,.49.48.49h3c.38,0,.44.06.44.44s0,.84,0,1.25-.1.44-.4.42H.59c-.58,0-.59,0-.59-.59V52.55c0-.4.06-.46.45-.46H4.84c.44,0,.44,0,.44-.43Z"/><path class="cls-2" d="M10,38.88h1.65c.28,0,.4.11.4.39V42.6c0,.29-.12.4-.4.39H8.32c-.29,0-.42-.11-.41-.41v-3.3c0-.3.12-.41.42-.4Z"/><path class="cls-2" d="M16.6,10.5h1.61c.3,0,.42.12.41.41v3.3c0,.28-.11.4-.39.4H14.9c-.28,0-.4-.12-.39-.4v-3.3c0-.29.11-.42.41-.41Z"/><path class="cls-3" d="M19.55,46.89H24c.41,0,.43,0,.43.42,0,1.47,0,2.94,0,4.41,0,.31-.08.43-.41.43H15c-.33,0-.41-.11-.41-.42,0-1.48,0-2.95,0-4.42,0-.41,0-.42.43-.42Z"/><path class="cls-4" d="M30.42,35.65H28.84c-.28,0-.39-.08-.39-.38,0-1.06,0-2.13,0-3.19,0-.3.11-.38.39-.38,1.06,0,2.11,0,3.17,0,.31,0,.39.12.39.41,0,1,0,2.09,0,3.13,0,.33-.12.42-.43.41C31.46,35.63,30.94,35.65,30.42,35.65Z"/><path class="cls-2" d="M10,21.79H8.35c-.25,0-.36-.08-.36-.34q0-1.64,0-3.27c0-.23.08-.34.33-.34q1.65,0,3.3,0c.24,0,.32.11.32.35,0,1.08,0,2.17,0,3.26,0,.26-.12.34-.36.34Z"/><path class="cls-2" d="M21.85,33.68c0-.53,0-1.06,0-1.59,0-.27.08-.39.38-.39,1.06,0,2.13,0,3.19,0,.3,0,.38.11.38.39,0,1.06,0,2.11,0,3.17,0,.31-.12.39-.41.39H22.26c-.33,0-.42-.11-.41-.42C21.87,34.71,21.85,34.19,21.85,33.68Z"/><path class="cls-4" d="M21.85,19.82c0-.53,0-1.06,0-1.59,0-.28.08-.39.38-.39,1.06,0,2.13,0,3.19,0,.3,0,.38.11.38.39,0,1.06,0,2.11,0,3.17,0,.31-.12.39-.41.39H22.26c-.33,0-.42-.11-.41-.42C21.87,20.85,21.85,20.33,21.85,19.82Z"/><path class="cls-2" d="M32.4,19.85c0,.52,0,1,0,1.55,0,.28-.08.39-.38.39H28.83c-.3,0-.38-.12-.38-.39,0-1.06,0-2.11,0-3.17,0-.31.12-.39.41-.39,1,0,2.09,0,3.13,0,.33,0,.42.12.41.43C32.38,18.79,32.4,19.32,32.4,19.85Z"/><path class="cls-2" d="M32.4,40.94c0,.52,0,1.05,0,1.58,0,.28-.08.39-.38.39H28.83c-.3,0-.38-.11-.38-.39,0-1.06,0-2.11,0-3.17,0-.31.12-.39.41-.39H32c.33,0,.42.12.41.43C32.38,39.9,32.4,40.42,32.4,40.94Z"/><path class="cls-4" d="M23.79,42.91H22.24c-.28,0-.39-.08-.39-.38,0-1.06,0-2.13,0-3.19,0-.3.11-.38.39-.38h3.17c.31,0,.39.12.39.41,0,1,0,2.09,0,3.13,0,.33-.12.42-.43.41C24.85,42.89,24.32,42.91,23.79,42.91Z"/><path class="cls-2" d="M16.56,35.65H14.94c-.25,0-.35-.1-.35-.35q0-1.63,0-3.27c0-.24.1-.33.34-.33,1.09,0,2.19,0,3.29,0,.23,0,.32.1.32.32q0,1.65,0,3.3c0,.24-.1.33-.34.33Z"/><path class="cls-2" d="M14.59,27c0-.51,0-1,0-1.55,0-.28.08-.39.38-.39h3.19c.3,0,.38.12.38.39,0,1.06,0,2.11,0,3.17,0,.31-.12.39-.41.39-1,0-2.09,0-3.13,0-.33,0-.42-.12-.41-.43C14.61,28.1,14.59,27.57,14.59,27Z"/><path class="cls-2" d="M21.85,27c0-.51,0-1,0-1.55,0-.27.08-.39.37-.39h3.2c.29,0,.38.11.38.39,0,1.06,0,2.11,0,3.17,0,.27-.08.39-.37.39-1.07,0-2.14,0-3.2,0-.3,0-.39-.11-.38-.39C21.86,28.12,21.85,27.58,21.85,27Z"/><path class="cls-4" d="M30.42,29.05c-.54,0-1.07,0-1.61,0-.25,0-.36-.08-.36-.34q0-1.63,0-3.27c0-.23.08-.34.33-.34h3.3c.24,0,.32.11.32.34q0,1.64,0,3.27c0,.26-.11.34-.36.34C31.5,29,31,29.05,30.42,29.05Z"/><path class="cls-4" d="M30.42,14.53H28.81c-.25,0-.36-.08-.36-.34q0-1.63,0-3.27c0-.26.11-.34.36-.34H32c.25,0,.36.08.36.34q0,1.63,0,3.27c0,.26-.11.34-.36.34Z"/><path class="cls-2" d="M21.87,12.52c0-.53,0-1,0-1.58,0-.26.09-.35.35-.34h3.23c.24,0,.33.08.33.32v3.27c0,.24-.09.32-.33.32H22.22c-.26,0-.36-.08-.35-.34C21.88,13.62,21.87,13.07,21.87,12.52Z"/><path class="cls-2" d="M8.35,14.48c-.23,0-.31-.08-.31-.31,0-1.08,0-2.15,0-3.23,0-.23.08-.31.31-.31h3.23c.23,0,.31.08.31.31,0,1.08,0,2.15,0,3.23,0,.23-.08.31-.31.31"/><path class="cls-2" d="M10,31.76c.52,0,1,0,1.55,0,.25,0,.35.07.35.34,0,1,0,2.11,0,3.16,0,.25-.07.35-.34.35H8.39c-.25,0-.35-.07-.35-.34,0-1,0-2.11,0-3.16,0-.29.11-.35.37-.35C8.94,31.77,9.46,31.76,10,31.76Z"/><path class="cls-2" d="M10,29H8.35c-.23,0-.31-.08-.31-.31,0-1.08,0-2.15,0-3.23,0-.23.08-.31.31-.31,1.08,0,2.15,0,3.23,0,.23,0,.31.08.31.31,0,1.08,0,2.15,0,3.23,0,.23-.08.31-.31.31Z"/><path class="cls-2" d="M16.6,39c.53,0,1,0,1.58,0,.23,0,.31.08.31.31,0,1.08,0,2.15,0,3.23,0,.23-.08.31-.31.31H15c-.23,0-.31-.08-.31-.31,0-1.08,0-2.15,0-3.23,0-.23.08-.31.31-.31Z"/><path class="cls-2" d="M14.65,19.78c0-.53,0-1.05,0-1.58,0-.23.08-.31.31-.31h3.23c.23,0,.31.08.31.31,0,1.08,0,2.15,0,3.23,0,.23-.08.31-.31.31H15c-.23,0-.31-.08-.31-.31C14.65,20.88,14.65,20.33,14.65,19.78Z"/></g></g></svg>