<svg xmlns="http://www.w3.org/2000/svg" viewBox="0 0 49.2 44.25"><defs><style>.cls-1{fill:#ccc;}.cls-2,.cls-3{fill:none;stroke:#ccc;stroke-miterlimit:10;}.cls-2{stroke-width:0.25px;}</style></defs><title>Recurso 12Mi unidad inactivo</title><g id="Capa_2" data-name="Capa 2"><g id="Capa_1-2" data-name="Capa 1"><path class="cls-1" d="M41,42.82c-.29-.15-.35-.39-.48-.63a1.38,1.38,0,0,0-.38-.42,3.46,3.46,0,0,0-1.27-.49c-.16-.2,0-.43-.08-.64s0-.23.21-.23c.45,0,.9,0,1.35,0a.25.25,0,0,0,.3-.24,1.41,1.41,0,0,0,0-.29V32.1a.88.88,0,0,1,0-.28.56.56,0,0,0-.06-.47.31.31,0,0,0-.09-.11.39.39,0,0,0-.31-.09c-.41,0-.55.35-.65.68a5.26,5.26,0,0,0-.2,1.12,12.22,12.22,0,0,0,.18,4,.63.63,0,0,0,.47.54c.13,0,.13.11.12.21,0,.42-.08.83-.11,1.24,0,.11,0,.16-.16.16-.47,0-3.62.14-4.13.14,0,.1-.06.17-.09.24a.7.7,0,0,0,.3.88.88.88,0,0,0,.45.11h1.3c.12,0,.24,0,.27.16.08.43,0,.57-.41.67a2.43,2.43,0,0,0-.52.17,1.7,1.7,0,0,0-.91.84.68.68,0,0,1-.34.37.57.57,0,0,0-.3.38V43l0,.06s0,.08,0,.13v.06a.43.43,0,0,0,.06.22.59.59,0,0,0,.84.2c.29-.33.3-.52,0-.86-.07-.1,0-.14,0-.2a1.56,1.56,0,0,1,.6-.48A3.45,3.45,0,0,1,39.53,42a1.79,1.79,0,0,1,.76.48c.12.12.17.2,0,.33a.52.52,0,0,0,0,.77.56.56,0,0,0,.75,0C41.23,43.36,41.26,43,41,42.82Z"/><path class="cls-1" d="M38.6,39.38l.09,0H38.5Z"/><path class="cls-1" d="M39.26,34a.14.14,0,0,0,0-.06q-.12-.4-.27-.81s0,0,0-.05a2.41,2.41,0,0,0-.71-1,.1.1,0,0,0-.05,0,1.54,1.54,0,0,0-1.56-.19,2.06,2.06,0,0,0-.37.23,1.72,1.72,0,0,0-.53,1,.68.68,0,0,1-.18.38,3.19,3.19,0,0,1-1.44.89,3,3,0,0,1-.84.18c-.24,0-.46.07-.69.08a.87.87,0,0,0-.86.73.13.13,0,0,0,0,.06.21.21,0,0,0,0,.12c.08.14.06.21-.11.22a.17.17,0,0,0-.17.12c0,.14-.14.15-.25.15H29.74c-.15,0-.27,0-.28.22s-.06.11-.13.11h-.48a.19.19,0,0,1-.22-.16,1.52,1.52,0,0,0-.28-.57l0,0a2.11,2.11,0,0,0-.36-.31,1.28,1.28,0,0,0-.76-.18c-.14,0-.15,0-.08-.14l.19-.38.47-.86c0,.17,0,.3,0,.43s0,.23.08.32a1.42,1.42,0,0,0,.84.05c.1,0,.15-.09.17-.19a1.69,1.69,0,0,0,0-.23V29a1.48,1.48,0,0,0,0-.21.23.23,0,0,0-.25-.24,3.28,3.28,0,0,0-.7,0c-.16.09-.15.24-.15.38,0,1.13,0,2.25,0,3.38a1.81,1.81,0,0,1-.27,1.09,1.74,1.74,0,0,0-.18.33c-.11.2-.22.41-.32.62a1.94,1.94,0,0,1-.22.4,4.82,4.82,0,0,1-.43.73,2,2,0,0,0-.47.78c0,.12-.09.16-.2.15H23.24a.21.21,0,0,1-.26-.19.93.93,0,0,0-.13-.34l-.15-.2a2.26,2.26,0,0,1-.25-.29c-.07-.12-.13-.24-.19-.36l0-.05c-.16-.3-.33-.59-.47-.9l0,0c-.17-.31-.34-.62-.5-.94a.8.8,0,0,1-.11-.37c0-.65,0-1.29,0-1.94s0-1.29,0-1.93c0-.23-.08-.3-.31-.32a4.56,4.56,0,0,0-.64,0,.23.23,0,0,0-.14.13,1.61,1.61,0,0,0,0,.31v3.77c0,.49,0,1,0,1.48,0,.26.08.34.34.35h.46c.21,0,.29-.08.3-.3s0-.31,0-.51c.24.42.43.81.64,1.19.07.12.06.18-.09.17a1.36,1.36,0,0,0-.66.15l-.06,0a1.48,1.48,0,0,0-.54.57c-.08.14-.11.29-.18.44l0,.05a2.51,2.51,0,0,1-.67,0,.08.08,0,0,1-.1-.08c0-.24-.18-.24-.35-.24H17.67c-.11,0-.21,0-.23-.15s-.09-.13-.18-.13-.14-.08-.12-.19a.78.78,0,0,0-.76-.93c-.37,0-.73-.09-1.1-.14A3.61,3.61,0,0,1,14,34l0,0a2.19,2.19,0,0,1-.48-.37c-.14-.14-.3-.26-.32-.47a1.6,1.6,0,0,0-.35-.86A4,4,0,0,0,12.5,32l-.25-.14a1.41,1.41,0,0,0-1.19,0l-.29.14A2.3,2.3,0,0,0,10,33a8.79,8.79,0,0,0-.42,1.22c-.08.34-.14.69-.21,1-.08.53-.14,1.07-.19,1.6a2.88,2.88,0,0,0,.18,1.61,1,1,0,0,0,.23.34c.11.09.21.2.31.3a1.38,1.38,0,0,0,.42.25l.22.07h-.06l.15,0,.17.07.07,0h0l.19,0h.07l.35,0c.45,0,.9,0,1.35,0a.66.66,0,0,1,.3-.07h.28l.18,0h.06a.23.23,0,0,1,.12,0,.5.5,0,0,1,.53.47,4.9,4.9,0,0,1,.13,1.37c0,.32,0,.63,0,.94a.53.53,0,0,0,.07.3h0v0a.51.51,0,0,0,.28.4.91.91,0,0,0,1.51-.63,15.93,15.93,0,0,0,0-1.69,4.56,4.56,0,0,0-.13-1,2.34,2.34,0,0,0-.09-.24.58.58,0,0,1-.08-.22,2.53,2.53,0,0,0-.83-1.13,4.1,4.1,0,0,0-.87-.42c-.24-.09-.49-.12-.74-.21h-.06c-.31,0-.61-.13-.93-.13s-.38,0-.29-.39.17-.91.23-1.38c0-.2.05-.21.22-.1a5,5,0,0,0,1.31.65,10.34,10.34,0,0,0,1.11.21h.07c.13,0,.14.12.14.22s0,.47,0,.7,0,.33.32.32h.78c.33,0,.34,0,.34.33v5c0,.35,0,.39.39.39H31.85a.19.19,0,0,0,.2-.19V37.9a.46.46,0,0,1,0-.28c.06-.07.15-.06.23-.06h.84c.31,0,.33,0,.34-.35s0-.42,0-.63,0-.18.07-.25a2,2,0,0,1,.6-.09,1.23,1.23,0,0,0,.42-.1.52.52,0,0,1,.3-.08,4,4,0,0,0,1.4-.72,6.8,6.8,0,0,1,.16.81s0,0,0,.06a3.5,3.5,0,0,1,.07.45.64.64,0,0,0,0,.07c.05.14,0,.29.08.44s0,.16-.11.15a6.66,6.66,0,0,0-1.18.13l-.33.09a2.76,2.76,0,0,0-.79.28.4.4,0,0,1-.21.09l-.13.06a3,3,0,0,0-.77.73,3.85,3.85,0,0,0-.47,1.2c0,.18,0,.35,0,.53,0,.6,0,1.19,0,1.79a1,1,0,0,0,.06.46l0,.09a.94.94,0,0,0,1.1.47.93.93,0,0,0,.68-1c0-.58,0-1.17,0-1.76a2.24,2.24,0,0,1,.07-.51.62.62,0,0,1,.16-.36.47.47,0,0,1,.52-.09.59.59,0,0,1,.23,0,.68.68,0,0,1,.29.06.72.72,0,0,1,.29-.06.47.47,0,0,1,.17,0,.69.69,0,0,1,.36-.11.75.75,0,0,1,.34.09.74.74,0,0,1,.41-.13.76.76,0,0,1,.21,0,.64.64,0,0,1,.2,0H38a.73.73,0,0,1,.33-.08l.16,0,.16-.06a1.15,1.15,0,0,0,.23-.1,2.24,2.24,0,0,0,.59-.6c0-.4,0-.8.08-1.2s.08-.74.13-1.11A17.69,17.69,0,0,0,39.26,34Z"/><path class="cls-1" d="M11.63,29.5a1.78,1.78,0,0,1,1-.74,1.53,1.53,0,0,1,1.74.59,1.71,1.71,0,0,1,.13.23l0,.06a1.61,1.61,0,0,1-.18,1.6,2.4,2.4,0,0,1-.39.39,1.67,1.67,0,0,1-1.66.11l-.06,0a1.76,1.76,0,0,1-.63-.64,1.24,1.24,0,0,1-.1-.2A1.62,1.62,0,0,1,11.63,29.5Z"/><path class="cls-1" d="M34.39,30.82a2,2,0,0,1,0-1.07,1.75,1.75,0,0,1,1.07-1,1.13,1.13,0,0,1,.79,0,.79.79,0,0,0,.27.1c.19.09.4.15.5.36l.2.24a1.61,1.61,0,0,1-.13,1.94,1.65,1.65,0,0,1-1.2.53h0a1.68,1.68,0,0,1-1.32-.79c-.1,0-.1-.15-.15-.22S34.37,30.83,34.39,30.82Z"/><path class="cls-1" d="M7.82,42.82a1.16,1.16,0,0,0,.47-.63,1.53,1.53,0,0,1,.38-.42,3.46,3.46,0,0,1,1.27-.49c.16-.2.05-.43.08-.64s0-.23-.21-.23c-.45,0-.9,0-1.35,0a.25.25,0,0,1-.3-.24,1.41,1.41,0,0,1,0-.29V32.1a.88.88,0,0,0,0-.28.56.56,0,0,1,.06-.47.31.31,0,0,1,.09-.11.39.39,0,0,1,.31-.09c.41,0,.56.35.65.68A6,6,0,0,1,9.46,33a12.5,12.5,0,0,1-.19,4,.63.63,0,0,1-.47.54c-.13,0-.13.11-.12.21,0,.42.08.83.11,1.24,0,.11,0,.16.16.16.47,0,3.63.14,4.13.14,0,.1.06.17.09.24a.7.7,0,0,1-.3.88.86.86,0,0,1-.45.11H11.13c-.13,0-.24,0-.28.16-.08.43,0,.57.41.67a2.43,2.43,0,0,1,.52.17,1.7,1.7,0,0,1,.91.84.72.72,0,0,0,.34.37.57.57,0,0,1,.3.38V43a.21.21,0,0,0,0,.06.51.51,0,0,0,0,.13v.06a.43.43,0,0,1-.06.22.58.58,0,0,1-.84.2c-.28-.33-.3-.52,0-.86.08-.1,0-.14,0-.2a1.49,1.49,0,0,0-.6-.48A3.45,3.45,0,0,0,9.29,42a1.86,1.86,0,0,0-.76.48c-.11.12-.16.2,0,.33a.52.52,0,0,1,0,.77.56.56,0,0,1-.75,0C7.59,43.36,7.56,43,7.82,42.82Z"/><path class="cls-1" d="M23.64,14.73a1.68,1.68,0,0,0,1.72.73,1.49,1.49,0,0,0,1.3-1,1.23,1.23,0,0,0-.25-1.31,2.38,2.38,0,0,1-.48-.69c0-.05,0-.1-.05-.16a.12.12,0,0,1,0-.12.3.3,0,0,0,.06-.38.08.08,0,0,1,0-.1.29.29,0,0,0-.06-.38.09.09,0,0,1,0-.1.3.3,0,0,0-.27-.4c-.05,0-.07,0-.1-.06a.51.51,0,0,0-.87,0,.11.11,0,0,1-.1.07.29.29,0,0,0-.26.41s0,.06,0,.08a.31.31,0,0,0-.05.39.09.09,0,0,1,0,.1.28.28,0,0,0,.07.38c.06.06,0,.12,0,.17a1.37,1.37,0,0,1-.23.45,1.76,1.76,0,0,1-.24.3,1.46,1.46,0,0,0-.27.38,1.19,1.19,0,0,0-.1.79A1.36,1.36,0,0,0,23.64,14.73Z"/><path class="cls-1" d="M26.29,13.79a.77.77,0,0,0-.2-.35,2.73,2.73,0,0,1-.48-.65,1.44,1.44,0,0,1-.13-.4c0-.07,0-.1-.1-.1h-.57s-.08,0-.09.06a1.88,1.88,0,0,1-.56,1A.9.9,0,0,0,24,14.44a1.07,1.07,0,0,0,.62.54,1.38,1.38,0,0,0,1.37-.18.79.79,0,0,0,.35-.49A.92.92,0,0,0,26.29,13.79Z"/><path class="cls-1" d="M26.29,13.79a1.51,1.51,0,0,1,0,.52A.67.67,0,0,0,26.29,13.79Z"/><path class="cls-1" d="M25.16,14.56a.81.81,0,0,0,.56-.25.4.4,0,0,0,.09-.25c0-.06,0-.1-.08-.11s-.1,0-.11.09-.19.25-.35.3h-.13c-.07,0-.15,0-.14.12S25.08,14.56,25.16,14.56Z"/><line class="cls-2" x1="23.22" y1="12.88" x2="20.67" y2="11.31"/><line class="cls-2" x1="26.92" y1="12.67" x2="29.47" y2="11.1"/><line class="cls-2" x1="22.92" y1="13.71" x2="19.98" y2="13.11"/><line class="cls-2" x1="30.4" y1="13.02" x2="27.46" y2="13.62"/><line class="cls-2" x1="22.98" y1="14.56" x2="19.98" y2="14.48"/><line class="cls-2" x1="23.65" y1="15.77" x2="21.48" y2="17.83"/><line class="cls-2" x1="23.34" y1="15.22" x2="20.55" y2="16.32"/><line class="cls-2" x1="24.19" y1="16.06" x2="23.34" y2="18.93"/><line class="cls-2" x1="26.63" y1="15.71" x2="28.8" y2="17.78"/><line class="cls-2" x1="27.08" y1="15.3" x2="29.87" y2="16.4"/><line class="cls-2" x1="26.22" y1="16.11" x2="27.07" y2="18.99"/><line class="cls-2" x1="25.18" y1="16.37" x2="25.26" y2="19.37"/><line class="cls-2" x1="30.5" y1="14.56" x2="27.5" y2="14.48"/><line class="cls-2" x1="25.18" y1="10.44" x2="25.18" y2="0.5"/><path class="cls-1" d="M3.43,17.14c.07-.14.12-.28.2-.42a1.25,1.25,0,0,1,.76-.57,4,4,0,0,0,0,.84A1.58,1.58,0,0,0,6,18.62h8.9A1.57,1.57,0,0,0,16.46,17a3.53,3.53,0,0,0-.05-.85,1.3,1.3,0,0,1,.9.85c0,.06,0,.14.06.18v2.89a1.6,1.6,0,0,1-.52.81,1.81,1.81,0,0,1-1.22.26c-.07,0-.07,0-.08-.09l-.06-.43a.59.59,0,0,0-.36-.51,1.89,1.89,0,0,0-.92-.24q-3.72,0-7.44,0A2.3,2.3,0,0,0,6,20a.9.9,0,0,0-.67.75c-.06.39-.08.38-.46.39a1.39,1.39,0,0,1-1.48-1.08Z"/><path class="cls-1" d="M10.43,21.15H5.93c-.18,0-.2,0-.18-.22a.66.66,0,0,1,.58-.62,3,3,0,0,1,.73-.12h6.76a2.22,2.22,0,0,1,1,.21.74.74,0,0,1,.34.69c0,.05,0,.05-.08.05H10.43Z"/><path class="cls-1" d="M14.36,24a2.15,2.15,0,0,1-.53,1.22.24.24,0,0,1-.35,0,.24.24,0,0,1-.06-.35,2.92,2.92,0,0,0,.33-.57.86.86,0,0,0-.12-.92,1.07,1.07,0,0,1-.07-1.32,1.45,1.45,0,0,1,.17-.18.26.26,0,0,1,.34,0,.23.23,0,0,1,0,.34c-.31.31-.2.61,0,.91A1.24,1.24,0,0,1,14.36,24Z"/><path class="cls-1" d="M9.26,23.88a.86.86,0,0,0-.21-.5,1.08,1.08,0,0,1-.13-1.2.79.79,0,0,1,.2-.25.25.25,0,0,1,.38,0c.12.12.09.24,0,.37a.5.5,0,0,0,0,.74,1.57,1.57,0,0,1-.08,2,.48.48,0,0,1-.12.16.25.25,0,0,1-.35.05.23.23,0,0,1-.06-.36,2.22,2.22,0,0,0,.36-.68A1.54,1.54,0,0,0,9.26,23.88Z"/><path class="cls-1" d="M7,21.84a.25.25,0,0,1,.22.12.24.24,0,0,1,0,.29.59.59,0,0,0,0,.88,1.34,1.34,0,0,1,.13,1.4,2.25,2.25,0,0,1-.39.65.26.26,0,0,1-.41-.31,3,3,0,0,0,.32-.54.89.89,0,0,0-.11-.95A1,1,0,0,1,6.8,22,.33.33,0,0,1,7,21.84Z"/><path class="cls-1" d="M11.61,21.84a.25.25,0,0,1,.22.13.24.24,0,0,1,0,.27c-.27.43-.27.51,0,.92a1.43,1.43,0,0,1,0,1.62,3,3,0,0,1-.25.37.26.26,0,1,1-.42-.3,2.8,2.8,0,0,0,.34-.61.83.83,0,0,0-.13-.83,1.12,1.12,0,0,1-.22-1.08.92.92,0,0,1,.27-.41A.28.28,0,0,1,11.61,21.84Z"/><path class="cls-1" d="M10.41,16.1h5.24c.16,0,.24.05.25.2a1.79,1.79,0,0,1-.22,1.44,1,1,0,0,1-.71.36H6a1,1,0,0,1-1.1-.81,3.29,3.29,0,0,1,0-1c0-.15.09-.21.26-.21Z"/><path class="cls-1" d="M10.32,16.81H5.56a1.21,1.21,0,0,1-.19,0,.12.12,0,0,1-.1-.11c0-.08,0-.13.11-.14h9.89a.12.12,0,0,1,.12.12.12.12,0,0,1-.12.13,1,1,0,0,1-.17,0Z"/><path class="cls-1" d="M10.32,17.38H15.1c.11,0,.28-.06.28.12s-.17.13-.28.13c-3.19,0-6.38,0-9.56,0a1,1,0,0,1-.17,0,.14.14,0,0,1-.1-.14.12.12,0,0,1,.11-.11h.18"/><rect class="cls-3" x="0.5" y="0.5" width="48.2" height="43.25" rx="5.3" ry="5.3"/></g></g></svg>