<?xml version="1.0" encoding="UTF-8"?>
<svg id="Capa_2" data-name="Capa 2" xmlns="http://www.w3.org/2000/svg" viewBox="0 0 66.9 61.5">
  <g id="Capa_1-2" data-name="Capa 1">
    <g>
      <path d="M66.15,0H20.52c-.41,0-.75.34-.75.75v60c0,.41.34.75.75.75h45.63c.41,0,.75-.34.75-.75V.75c0-.41-.34-.75-.75-.75ZM65.4,60H21.27V1.5h44.13v58.5Z" stroke-width="0"/>
      <path d="M27.6,9.86h33.1c.41,0,.75-.34.75-.75s-.34-.75-.75-.75H27.6c-.41,0-.75.34-.75.75s.34.75.75.75Z" stroke-width="0"/>
      <path d="M54.58,14.34c0-.41-.34-.75-.75-.75h-19.36c-.41,0-.75.34-.75.75s.34.75.75.75h19.36c.41,0,.75-.34.75-.75Z" stroke-width="0"/>
      <path d="M33,20.18h-5.37c-.41,0-.75.34-.75.75v5.37c0,.41.34.75.75.75h5.37c.41,0,.75-.34.75-.75v-5.37c0-.41-.34-.75-.75-.75ZM32.25,25.55h-3.87v-3.87h3.87v3.87Z" stroke-width="0"/>
      <path d="M59.28,22.86h-22.54c-.41,0-.75.34-.75.75s.34.75.75.75h22.54c.41,0,.75-.34.75-.75s-.34-.75-.75-.75Z" stroke-width="0"/>
      <path d="M33,48.83h-5.37c-.41,0-.75.34-.75.75v5.37c0,.41.34.75.75.75h5.37c.41,0,.75-.34.75-.75v-5.37c0-.41-.34-.75-.75-.75ZM32.25,54.2h-3.87v-3.87h3.87v3.87Z" stroke-width="0"/>
      <path d="M59.28,51.51h-22.54c-.41,0-.75.34-.75.75s.34.75.75.75h22.54c.41,0,.75-.34.75-.75s-.34-.75-.75-.75Z" stroke-width="0"/>
      <path d="M33,39.28h-5.37c-.41,0-.75.34-.75.75v5.37c0,.41.34.75.75.75h5.37c.41,0,.75-.34.75-.75v-5.37c0-.41-.34-.75-.75-.75ZM32.25,44.65h-3.87v-3.87h3.87v3.87Z" stroke-width="0"/>
      <path d="M59.28,41.96h-22.54c-.41,0-.75.34-.75.75s.34.75.75.75h22.54c.41,0,.75-.34.75-.75s-.34-.75-.75-.75Z" stroke-width="0"/>
      <path d="M33,29.73h-5.37c-.41,0-.75.34-.75.75v5.37c0,.41.34.75.75.75h5.37c.41,0,.75-.34.75-.75v-5.37c0-.41-.34-.75-.75-.75ZM32.25,35.1h-3.87v-3.87h3.87v3.87Z" stroke-width="0"/>
      <path d="M59.28,32.41h-22.54c-.41,0-.75.34-.75.75s.34.75.75.75h22.54c.41,0,.75-.34.75-.75s-.34-.75-.75-.75Z" stroke-width="0"/>
      <path d="M3.43,12.41c-.1-.3-.38-.51-.71-.52h0c-.32,0-.6.2-.71.5L.04,18.04c-.03.08-.04.16-.04.25v37.17s0,0,0,0v4.69c0,.41.34.75.75.75h3.82c.41,0,.75-.34.75-.75v-4.68s0,0,0,0V18.28c0-.08-.01-.16-.04-.23l-1.85-5.64ZM2.7,14.98l.84,2.56h-1.73l.89-2.56ZM3.82,59.4H1.5v-3.19h2.32v3.19ZM3.82,54.71H1.5V19.03h2.32v35.67Z" stroke-width="0"/>
      <path d="M15.17,42.44h-.27V13.87c0-.06,0-.12-.02-.19l-1.5-5.88c-.08-.33-.38-.56-.72-.56h0c-.34,0-.64.23-.72.56l-1.57,5.88c-.02.06-.03.13-.03.19v28.57h-.27c-.41,0-.75.34-.75.75v11c0,.41.34.75.75.75h.27v5.19c0,.41.34.75.75.75h3.07c.41,0,.75-.34.75-.75v-5.19h.27c.41,0,.75-.34.75-.75v-11c0-.41-.34-.75-.75-.75ZM12.63,10.96l.55,2.16h-1.13l.58-2.16ZM11.83,14.62h1.57v27.82h-1.57V14.62ZM13.4,59.37h-1.57v-4.44h1.57v4.44ZM14.42,53.43h-3.62v-9.34c.09.03.18.06.27.06h3.07c.1,0,.19-.02.27-.06v9.34Z" stroke-width="0"/>
    </g>
  </g>
</svg>