<svg xmlns="http://www.w3.org/2000/svg" viewBox="0 0 64.8 64.8"><defs><style>.cls-1{fill:#d49500;}.cls-2{fill:#fefefe;stroke:#fff;stroke-miterlimit:10;}</style></defs><title>Recurso 4Pisos</title><g id="Capa_2" data-name="Capa 2"><g id="Capa_1-2" data-name="Capa 1"><rect class="cls-1" width="64.8" height="64.8" rx="9.6" ry="9.6"/><path class="cls-2" d="M54.09,12c0-1.11-.35-1.32-1.37-1.31q-20.31,0-40.63,0c-1,0-1.39.18-1.39,1.31q.08,20.39,0,40.79c0,1.13.37,1.31,1.38,1.3,6.77,0,13.54,0,20.32,0s13.54,0,20.31,0c1,0,1.39-.15,1.39-1.29Q54,32.41,54.09,12ZM30,15.28c.1-3.25,0-3.25,3.19-3.25h8.19c3.39,0,6.77,0,10.16,0,.89,0,1.2.18,1.21,1.15,0,3.57.09,3.57-3.51,3.57-5.89,0-11.79,0-17.69,0C30.43,16.77,30,16.59,30,15.28ZM25.34,12c3.46,0,3.46-.05,3.46,3.46,0,6,0,12,0,18,0,1-.24,1.37-1.33,1.36-3.39,0-3.39,0-3.39-3.37V23.27c0-3.33,0-6.66,0-10C24.06,12.28,24.32,12,25.34,12Zm-5.78,0c3.23.1,3.23,0,3.23,3.28v8.18c0,3.38,0,6.76,0,10.15,0,.9-.22,1.2-1.18,1.21-3.61.06-3.61.1-3.61-3.48,0-5.9,0-11.79,0-17.68C18,12.43,18.2,12,19.56,12Zm-6,0c3.16.07,3.16,0,3.16,3.1v8.34c0,3.32-.06,6.65,0,10,0,1.19-.34,1.43-1.45,1.41-3.24-.06-3.25,0-3.25-3.18,0-6.05.05-12.1,0-18.15C12,12.23,12.36,12,13.55,12Zm1.9,24.1c6,0,12,0,18,0,1.09,0,1.35.31,1.34,1.36,0,3.43,0,3.43-3.35,3.43h-8c-3.33,0-6.65,0-10,0-1,0-1.44-.1-1.43-1.29C12,36.1,12,36.1,15.45,36.1Zm14.62-4.05c0-1.93,0-1.93,2.82-1.93,1.84,0,1.84,0,1.84,2.9,0,1.77,0,1.77-2.49,1.77C30.07,34.79,30.07,34.79,30.07,32.05Zm1.34,20.76c-5.95,0-11.89,0-17.84,0-1.13,0-1.6-.13-1.56-1.45.09-3.23,0-3.24,3.2-3.24h8.18c3.33,0,6.65,0,10,0,1,0,1.41.14,1.4,1.29C34.72,52.81,34.79,52.81,31.41,52.81Zm3.36-9.22c-.1,3.24,0,3.24-3.21,3.24H23.4c-3.33,0-6.65,0-10,0-1,0-1.43-.11-1.42-1.28,0-3.51,0-3.51,3.45-3.51,5.88,0,11.76,0,17.64,0C34.29,42,34.82,42.2,34.77,43.59Zm4.89,9.25C36,52.9,36,52.94,36,49.35c0-5.89,0-11.78,0-17.67,0-1.2.18-1.71,1.56-1.67,3.23.1,3.23,0,3.23,3.27v8c0,3.44,0,6.88,0,10.31C40.84,52.5,40.63,52.82,39.66,52.84ZM31.38,28.76c-.91,0-1.34-.11-1.35-1.21C30,24,30,24,33.55,24c5.94,0,11.87,0,17.81,0,1.16,0,1.44.31,1.42,1.44,0,3.35,0,3.35-3.26,3.35H41.35C38,28.74,34.7,28.71,31.38,28.76ZM45.65,52.84C42,52.9,42,52.94,42,49.36c0-5.9,0-11.79,0-17.68,0-1.23.23-1.7,1.59-1.67,3.21.1,3.21,0,3.21,3.27v8c0,3.44,0,6.87,0,10.31C46.81,52.5,46.62,52.82,45.65,52.84Zm5.68,0c-3.24-.06-3.24,0-3.24-3.18,0-6,0-12.1,0-18.14,0-1.27.36-1.53,1.54-1.5,3.16.07,3.16,0,3.16,3.1v8.34c0,3.33,0,6.65,0,10C52.82,52.62,52.45,52.86,51.33,52.84Zm1.46-33.36c-.09,3.25,0,3.25-3.19,3.25H41.25c-3.33,0-6.66,0-10,0-.89,0-1.21-.17-1.22-1.14C30,18,30,18,33.55,18c5.9,0,11.79,0,17.69,0C52.38,18,52.83,18.17,52.79,19.48Z"/></g></g></svg>