<svg xmlns="http://www.w3.org/2000/svg" viewBox="0 0 64.8 64.8"><defs><style>.cls-1{fill:#c03;}.cls-2{fill:#fff;}</style></defs><title>Recurso 4Planos Estructurales</title><g id="Capa_2" data-name="Capa 2"><g id="Capa_1-2" data-name="Capa 1"><rect class="cls-1" width="64.8" height="64.8" rx="9.6" ry="9.6"/><path class="cls-2" d="M55.36,10.2a7.75,7.75,0,0,0-15.49,0h0v.45h.07v37a7.74,7.74,0,0,1,15.42,1h0V10.2Z"/><path class="cls-2" d="M39.87,10.65H8.64V56.34h39a7.76,7.76,0,0,1-7.71-7h0ZM37.5,44.1a.46.46,0,0,1-.33.33H32.74c-.17-.21-.35-.43-.2-.73s.41-.27.67-.27h2.93c.3,0,.37-.08.37-.37,0-1.88,0-3.76,0-5.64,0-.39-.18-.39-.46-.39H27.64a.44.44,0,0,1-.44-.46.45.45,0,0,1,.44-.48,4,4,0,0,1,.49,0c2.6,0,5.2,0,7.8,0,.44,0,.59-.07.59-.56,0-4.83,0-9.65,0-14.48,0-.39-.06-.53-.5-.53q-3.67,0-7.35,0c-.37,0-.49.07-.49.47,0,1.62,0,3.25,0,4.87,0,.33.08.43.42.43,1.33,0,2.66,0,4,0a2.54,2.54,0,0,1,.39,0c.28.05.49.19.48.51s-.2.49-.54.49H27.76c-.47,0-.57-.29-.57-.69,0-1.86,0-3.72,0-5.58,0-.39-.1-.49-.49-.49q-6.33,0-12.66,0c-.34,0-.46.06-.46.44,0,3.13,0,6.27,0,9.4,0,.33.08.44.43.43h6.13c.36,0,.43-.11.42-.43,0-1.27,0-2.55,0-3.82,0-.13,0-.26,0-.38,0-.31.16-.55.5-.55s.5.24.5.59v10c0,.37.1.86-.48.86s-.52-.51-.52-.9q0-1.93,0-3.87c0-.36,0-.51-.46-.5-2,0-4.05,0-6.08,0-.33,0-.44.06-.44.42q0,5.41,0,10.83c0,.41.15.43.48.43H27.45c.27,0,.52,0,.66.28s-.07.51-.23.71H13a.49.49,0,0,1-.34-.33V19.88a.49.49,0,0,1,.34-.33H37.17a.46.46,0,0,1,.33.33Z"/></g></g></svg>