<svg xmlns="http://www.w3.org/2000/svg" viewBox="0 0 62.74 65.27"><defs><style>.cls-1{font-size:2.84px;fill:#1e120d;font-family:MyriadPro-Regular, Myriad Pro;}.cls-2,.cls-4{fill:none;}.cls-2{stroke:#000;}.cls-2,.cls-5{stroke-miterlimit:10;}.cls-3{fill:#2f7dbb;}.cls-5{fill:#e24e0f;stroke:#dd0613;stroke-width:0.5px;}.cls-6{fill:#010101;}</style></defs><title>Recurso 6Proyectos</title><g id="Capa_2" data-name="Capa 2"><g id="Capa_1-2" data-name="Capa 1"><text class="cls-1" transform="translate(0 60.11)">0</text><text class="cls-1" transform="translate(10.09 60.11)">5</text><text class="cls-1" transform="translate(19.46 60.11)">10</text><text class="cls-1" transform="translate(29.55 60.11)">15</text><text class="cls-1" transform="translate(39.64 60.11)">20</text><text class="cls-1" transform="translate(49.73 60.11)">25</text><text class="cls-1" transform="translate(59.83 60.11)">30</text><line class="cls-2" x1="0.73" y1="57.09" x2="61.28" y2="57.09"/><line class="cls-2" x1="0.73" y1="57.09" x2="0.73" y2="55.67"/><line class="cls-2" x1="10.82" y1="57.09" x2="10.82" y2="55.67"/><line class="cls-2" x1="20.91" y1="57.09" x2="20.91" y2="55.67"/><line class="cls-2" x1="31.01" y1="57.09" x2="31.01" y2="55.67"/><line class="cls-2" x1="41.1" y1="57.09" x2="41.1" y2="55.67"/><line class="cls-2" x1="51.19" y1="57.09" x2="51.19" y2="55.67"/><line class="cls-2" x1="61.28" y1="57.09" x2="61.28" y2="55.67"/><line class="cls-2" x1="0.73" y1="57.09" x2="0.73" y2="0.33"/><line class="cls-2" x1="0.73" y1="53.54" x2="2.24" y2="53.54"/><line class="cls-2" x1="0.73" y1="46.45" x2="2.24" y2="46.45"/><line class="cls-2" x1="0.73" y1="39.35" x2="2.24" y2="39.35"/><line class="cls-2" x1="0.73" y1="32.26" x2="2.24" y2="32.26"/><line class="cls-2" x1="0.73" y1="25.16" x2="2.24" y2="25.16"/><line class="cls-2" x1="0.73" y1="18.07" x2="2.24" y2="18.07"/><line class="cls-2" x1="0.73" y1="10.97" x2="2.24" y2="10.97"/><line class="cls-2" x1="0.73" y1="3.88" x2="2.24" y2="3.88"/><rect class="cls-3" x="2.75" y="1.32" width="6.06" height="5.11"/><rect class="cls-3" x="4.76" y="8.42" width="10.09" height="5.11"/><rect class="cls-3" x="8.8" y="15.51" width="6.06" height="5.11"/><rect class="cls-3" x="16.88" y="29.7" width="20.19" height="5.11"/><rect class="cls-3" x="20.91" y="36.8" width="10.09" height="5.11"/><rect class="cls-3" x="31.01" y="43.89" width="16.15" height="5.11"/><rect class="cls-3" x="37.06" y="50.99" width="24.22" height="5.11"/><rect class="cls-4" x="0.73" y="1.32" width="2.02" height="5.11"/><rect class="cls-4" x="0.73" y="8.42" width="4.04" height="5.11"/><rect class="cls-4" x="0.73" y="15.51" width="8.07" height="5.11"/><rect class="cls-4" x="0.73" y="29.7" width="16.15" height="5.11"/><rect class="cls-4" x="0.73" y="36.8" width="20.19" height="5.11"/><rect class="cls-4" x="0.73" y="43.89" width="30.28" height="5.11"/><rect class="cls-4" x="0.73" y="50.99" width="36.33" height="5.11"/><line class="cls-5" x1="10.71" y1="56.76" x2="10.71"/><path class="cls-6" d="M20.34,59.52l-.22.27c-.37.58-.68,1.19-1.07,1.75v.14l0,.08a2.93,2.93,0,0,0-.05.78c0,.87-.15,1.74-.2,2.61h0a.69.69,0,0,1-.42.12h-7.8a.33.33,0,0,1-.19,0,6.38,6.38,0,0,1-.89-1.51c-.24-.38-.41-.8-.61-1.2S8.6,62,8.47,61.7a3.86,3.86,0,0,1-.2-.41c-.18-.27-.28-.58-.46-.84h0a5.39,5.39,0,0,0-.42-.83c-.48-.77-.79-1.64-1.3-2.4l-.18-.4c-.24-.54-.55-1-.82-1.57h0c-.24-.54-.55-1-.82-1.57h0a1.64,1.64,0,0,1,.29-1.59c.12-.12.29-.15.37-.31a1.52,1.52,0,0,1,2.17.68l.54.81A.75.75,0,0,0,9,53.5a1.38,1.38,0,0,0,.16-.83c0-2.05,0-4.09,0-6.14a10.43,10.43,0,0,1,.1-2.09.75.75,0,0,1,.56-.67,2.08,2.08,0,0,1,1-.2A1.43,1.43,0,0,1,12.15,45v4.33a.69.69,0,0,0,0,.4.4.4,0,0,0,.24.16c.22-.1.45,0,.67-.08a1.32,1.32,0,0,1,.81,0,2,2,0,0,1,1.24.84.51.51,0,0,0,.61.22,2.16,2.16,0,0,1,2.53.82s.05,0,.08,0c.18.27.49.28.76.34a2.68,2.68,0,0,1,2.26,2.62,7.8,7.8,0,0,1-.26,2.93C20.92,58.26,20.6,58.88,20.34,59.52Z"/></g></g></svg>