<svg xmlns="http://www.w3.org/2000/svg" viewBox="0 0 62.74 65.27"><defs><style>.cls-1{font-size:2.84px;font-family:MyriadPro-Regular, Myriad Pro;}.cls-1,.cls-2{fill:#ccc;}.cls-3{stroke:#ccc;stroke-miterlimit:10;stroke-width:0.25px;}</style></defs><title>Recurso 16Proyectos inactivo</title><g id="Capa_2" data-name="Capa 2"><g id="Capa_1-2" data-name="Capa 1"><text class="cls-1" transform="translate(0 60.11)">0</text><text class="cls-1" transform="translate(10.09 60.11)">5</text><text class="cls-1" transform="translate(19.46 60.11)">10</text><text class="cls-1" transform="translate(29.55 60.11)">15</text><text class="cls-1" transform="translate(39.64 60.11)">20</text><text class="cls-1" transform="translate(49.73 60.11)">25</text><text class="cls-1" transform="translate(59.83 60.11)">30</text><line class="cls-2" x1="0.73" y1="57.09" x2="61.28" y2="57.09"/><line class="cls-2" x1="0.73" y1="57.09" x2="0.73" y2="55.67"/><line class="cls-2" x1="10.82" y1="57.09" x2="10.82" y2="55.67"/><line class="cls-2" x1="20.91" y1="57.09" x2="20.91" y2="55.67"/><line class="cls-2" x1="31.01" y1="57.09" x2="31.01" y2="55.67"/><line class="cls-2" x1="41.1" y1="57.09" x2="41.1" y2="55.67"/><line class="cls-2" x1="51.19" y1="57.09" x2="51.19" y2="55.67"/><line class="cls-2" x1="61.28" y1="57.09" x2="61.28" y2="55.67"/><line class="cls-2" x1="0.73" y1="57.09" x2="0.73" y2="0.33"/><line class="cls-2" x1="0.73" y1="53.54" x2="2.24" y2="53.54"/><line class="cls-2" x1="0.73" y1="46.45" x2="2.24" y2="46.45"/><line class="cls-2" x1="0.73" y1="39.35" x2="2.24" y2="39.35"/><line class="cls-2" x1="0.73" y1="32.26" x2="2.24" y2="32.26"/><line class="cls-2" x1="0.73" y1="25.16" x2="2.24" y2="25.16"/><line class="cls-2" x1="0.73" y1="18.07" x2="2.24" y2="18.07"/><line class="cls-2" x1="0.73" y1="10.97" x2="2.24" y2="10.97"/><line class="cls-2" x1="0.73" y1="3.88" x2="2.24" y2="3.88"/><rect class="cls-2" x="2.75" y="1.32" width="6.06" height="5.11"/><rect class="cls-2" x="4.76" y="8.42" width="10.09" height="5.11"/><rect class="cls-2" x="8.8" y="15.51" width="6.06" height="5.11"/><rect class="cls-2" x="16.88" y="29.7" width="20.19" height="5.11"/><rect class="cls-2" x="20.91" y="36.8" width="10.09" height="5.11"/><rect class="cls-2" x="31.01" y="43.89" width="16.15" height="5.11"/><rect class="cls-2" x="37.06" y="50.99" width="24.22" height="5.11"/><rect class="cls-2" x="0.73" y="1.32" width="2.02" height="5.11"/><rect class="cls-2" x="0.73" y="8.42" width="4.04" height="5.11"/><rect class="cls-2" x="0.73" y="15.51" width="8.07" height="5.11"/><rect class="cls-2" x="0.73" y="29.7" width="16.15" height="5.11"/><rect class="cls-2" x="0.73" y="36.8" width="20.19" height="5.11"/><rect class="cls-2" x="0.73" y="43.89" width="30.28" height="5.11"/><rect class="cls-2" x="0.73" y="50.99" width="36.33" height="5.11"/><line class="cls-3" x1="10.71" y1="56.76" x2="10.71"/><polygon class="cls-2" points="4.27 53.68 4.27 53.68 4.27 53.68 4.27 53.68"/><path class="cls-2" d="M21.39,54.67a2.68,2.68,0,0,0-2.26-2.62c-.27-.06-.58-.07-.76-.34,0,0-.07,0-.08,0a2.16,2.16,0,0,0-2.53-.82.51.51,0,0,1-.61-.22,2,2,0,0,0-1.24-.84,1.32,1.32,0,0,0-.81,0c-.22.11-.45,0-.67.08a.4.4,0,0,1-.24-.16.69.69,0,0,1,0-.4V45a1.43,1.43,0,0,0-1.41-1.42,2.08,2.08,0,0,0-1,.2.75.75,0,0,0-.56.67,10.43,10.43,0,0,0-.1,2.09c0,2,0,4.09,0,6.14A1.38,1.38,0,0,1,9,53.5a.75.75,0,0,1-1.32-.23l-.54-.81a1.52,1.52,0,0,0-2.17-.68c-.08.16-.25.19-.37.31a1.64,1.64,0,0,0-.29,1.59c.27.52.58,1,.82,1.57h0c.27.53.58,1,.82,1.57l.18.4c.51.76.82,1.63,1.3,2.4a5.39,5.39,0,0,1,.42.83h0c.18.26.28.57.46.84a3.86,3.86,0,0,0,.2.41c.13.27.3.53.41.82s.38.82.61,1.2a6.38,6.38,0,0,0,.89,1.51.33.33,0,0,0,.19,0h7.8a.69.69,0,0,0,.42-.12h0c.05-.87.15-1.74.2-2.61a2.93,2.93,0,0,1,.05-.78l0-.08v-.14c.39-.56.7-1.17,1.07-1.75l.22-.27c.26-.64.58-1.26.79-1.92A7.8,7.8,0,0,0,21.39,54.67Z"/></g></g></svg>