<svg xmlns="http://www.w3.org/2000/svg" viewBox="0 0 95.17 123.94"><defs><style>.cls-1{fill:#e9e9e0;}.cls-2{fill:#d9d7ca;}.cls-3{fill:#cc4b4c;}.cls-4{fill:#fff;}</style></defs><title>Recurso 12PDF</title><g id="Capa_2" data-name="Capa 2"><g id="Capa_1-2" data-name="Capa 1"><path class="cls-1" d="M67.47,0H3.24C1.45,0,0,1.45,0,4.26V121.72c0,.77,1.45,2.22,3.24,2.22H91.93c1.79,0,3.24-1.45,3.24-2.22v-93c0-1.54-.21-2-.57-2.4L68.85.57A2,2,0,0,0,67.47,0Z"/><polygon class="cls-2" points="68.61 0.33 68.61 26.56 94.83 26.56 68.61 0.33"/><path class="cls-3" d="M28.8,73.75h0A3.56,3.56,0,0,1,26.66,73a5.33,5.33,0,0,1-2.47-5c.41-3.6,4.86-7.38,13.25-11.22a147.45,147.45,0,0,0,8.38-23.79c-2.2-4.81-4.35-11-2.79-14.7a4.26,4.26,0,0,1,2.51-2.69,10.81,10.81,0,0,1,2.25-.38c1.12,0,2.1,1.43,2.79,2.32s2.14,2.6-.82,15A70.51,70.51,0,0,0,61,49.4a43.48,43.48,0,0,1,7.43-.79c3.47,0,5.57.81,6.42,2.47.71,1.38.42,3-.86,4.78A5.89,5.89,0,0,1,69.1,58.5c-2.7,0-5.83-1.7-9.32-5.06a105.79,105.79,0,0,0-19.54,6.24A62.7,62.7,0,0,1,35,69.09C32.7,72.27,30.74,73.75,28.8,73.75Zm5.89-11.34C30,65.07,28,67.25,27.9,68.48c0,.2-.08.74,1,1.53C29.18,69.91,31.11,69,34.69,62.41Zm30.18-9.83c1.81,1.38,2.25,2.09,3.43,2.09a3.36,3.36,0,0,0,2.68-1,3.77,3.77,0,0,0,.51-.92c-.28-.14-.64-.43-2.6-.43A32.12,32.12,0,0,0,64.87,52.58ZM48.34,38a156.58,156.58,0,0,1-5.92,16.74A110.37,110.37,0,0,1,56.8,50.28,75.74,75.74,0,0,1,48.34,38ZM47,19.28c-.22.07-2.94,3.89.21,7.12C49.31,21.72,47.09,19.25,47,19.28Z"/><path class="cls-3" d="M91.93,123.94H3.24A3.24,3.24,0,0,1,0,120.7V86.31H95.17V120.7A3.24,3.24,0,0,1,91.93,123.94Z"/><path class="cls-4" d="M24.09,117.3H20.46V95h6.41a9.13,9.13,0,0,1,2.82.45,7.94,7.94,0,0,1,2.49,1.36A7.22,7.22,0,0,1,34,99a6.1,6.1,0,0,1,.68,2.89,7.78,7.78,0,0,1-.58,3.07,6.26,6.26,0,0,1-1.6,2.31A7.27,7.27,0,0,1,30,108.74a9.65,9.65,0,0,1-3.21.51H24.09v8Zm0-19.55v8.84h3.33a4.08,4.08,0,0,0,1.32-.23,3.34,3.34,0,0,0,1.19-.74,3.68,3.68,0,0,0,.88-1.44,6.83,6.83,0,0,0,.33-2.28,6.13,6.13,0,0,0-.15-1.26,3.62,3.62,0,0,0-.62-1.36,3.7,3.7,0,0,0-1.32-1.09,4.9,4.9,0,0,0-2.24-.44Z"/><path class="cls-4" d="M56.92,105.53a16.5,16.5,0,0,1-.59,4.7,11.4,11.4,0,0,1-1.5,3.27,7.64,7.64,0,0,1-2,2.08,10.41,10.41,0,0,1-2.19,1.13,9.34,9.34,0,0,1-1.94.49c-.59.06-1,.1-1.3.1H38.92V95h6.71a12.83,12.83,0,0,1,4.95.89,10.22,10.22,0,0,1,3.54,2.38,9.57,9.57,0,0,1,2.1,3.37A11.05,11.05,0,0,1,56.92,105.53Zm-10.77,9.11c2.46,0,4.24-.79,5.32-2.36s1.64-3.86,1.64-6.84a11.7,11.7,0,0,0-.33-2.76,6.08,6.08,0,0,0-1.29-2.46,6.87,6.87,0,0,0-2.59-1.79,11.2,11.2,0,0,0-4.23-.68H42.55v16.89Z"/><path class="cls-4" d="M65.88,97.75v7H75.2v2.48H65.88v10H62.19V95H76.13v2.75Z"/></g></g></svg>