<svg xmlns="http://www.w3.org/2000/svg" viewBox="0 0 64.8 64.8"><defs><style>.cls-1{fill:#c03;}.cls-2{fill:#fff;}</style></defs><title>Recurso 10Planos</title><g id="Capa_2" data-name="Capa 2"><g id="Capa_1-2" data-name="Capa 1"><rect class="cls-1" width="64.8" height="64.8" rx="9.6" transform="translate(64.8 64.8) rotate(-180)"/><path class="cls-2" d="M8.54,10.2A7.75,7.75,0,0,1,24,10.2h0v.45H24v37a7.74,7.74,0,0,0-15.42,1h0V10.2Z"/><path class="cls-2" d="M25,50.37h0a7.76,7.76,0,0,1-7.71,7h39V11.65H25ZM27.4,20.88a.46.46,0,0,1,.33-.33H52a.49.49,0,0,1,.34.33V45.1a.49.49,0,0,1-.34.33H37c-.16-.2-.4-.39-.23-.71s.39-.3.66-.28H50.82c.33,0,.48,0,.48-.43q0-5.41,0-10.83c0-.36-.11-.42-.44-.42-2,0-4,0-6.08,0-.42,0-.47.14-.46.5q0,1.93,0,3.87c0,.39.1.9-.52.9s-.47-.49-.48-.86v-10c0-.35.13-.59.5-.59s.48.24.5.55c0,.12,0,.25,0,.38,0,1.27,0,2.55,0,3.82,0,.32.06.44.42.43h6.13c.35,0,.43-.1.43-.43,0-3.13,0-6.27,0-9.4,0-.38-.12-.44-.46-.44q-6.33,0-12.66,0c-.39,0-.49.1-.49.49,0,1.86,0,3.72,0,5.58,0,.4-.1.69-.57.69H32c-.34,0-.53-.16-.54-.49s.2-.46.48-.51a2.54,2.54,0,0,1,.39,0c1.32,0,2.65,0,4,0,.34,0,.42-.1.42-.43,0-1.62,0-3.25,0-4.87,0-.4-.12-.47-.49-.47q-3.68,0-7.35,0c-.44,0-.5.14-.5.53,0,4.83,0,9.65,0,14.48,0,.49.15.56.59.56,2.6,0,5.2,0,7.8,0a4,4,0,0,1,.49,0,.45.45,0,0,1,.44.48.44.44,0,0,1-.44.46H28.85c-.28,0-.47,0-.46.39,0,1.88,0,3.76,0,5.64,0,.29.07.38.37.37h2.93c.26,0,.53,0,.67.27s0,.52-.2.73H27.73a.46.46,0,0,1-.33-.33Z"/></g></g></svg>