<svg xmlns="http://www.w3.org/2000/svg" viewBox="0 0 95.5 124.37"><defs><style>.cls-1{fill:#e9e9e0;}.cls-2{fill:#d9d7ca;}.cls-3{fill:#8697cb;}.cls-4{fill:#fff;}.cls-5{fill:#c8bdb8;}.cls-6{fill:#ada29e;}</style></defs><title>Recurso 14DWG</title><g id="Capa_2" data-name="Capa 2"><g id="Capa_1-2" data-name="Capa 1"><path class="cls-1" d="M67.71,0H3.25C1.45,0,0,1.45,0,4.28V122.15c0,.77,1.45,2.22,3.25,2.22h89c1.8,0,3.25-1.45,3.25-2.22V28.82c0-1.54-.21-2-.57-2.41L69.09.57A2,2,0,0,0,67.71,0Z"/><polygon class="cls-2" points="68.85 0.34 68.85 26.65 95.17 26.65 68.85 0.34"/><path class="cls-3" d="M92.25,124.37h-89A3.24,3.24,0,0,1,0,121.12V86.62H95.5v34.5A3.24,3.24,0,0,1,92.25,124.37Z"/><path class="cls-4" d="M29.86,105.9a16.3,16.3,0,0,1-.59,4.72,11.47,11.47,0,0,1-1.5,3.28A7.67,7.67,0,0,1,25.72,116a9.86,9.86,0,0,1-2.2,1.14,9.27,9.27,0,0,1-1.95.49c-.58.06-1,.1-1.3.1H11.8V95.33h6.74a12.69,12.69,0,0,1,5,.9,10.21,10.21,0,0,1,3.56,2.38A9.87,9.87,0,0,1,29.17,102,11.38,11.38,0,0,1,29.86,105.9ZM19.06,115q3.71,0,5.34-2.37T26,105.81a11.85,11.85,0,0,0-.33-2.77,6,6,0,0,0-1.3-2.47,6.68,6.68,0,0,0-2.59-1.79,11.07,11.07,0,0,0-4.25-.69H15.44v17Z"/><path class="cls-4" d="M63.3,95.33l-6,22.5H52.52L48.84,101l-3.92,16.88H40.16l-5.68-22.5h4.13l4,19.31,4.25-19.31h4.12l4,19.31,4.28-19.31Z"/><path class="cls-4" d="M84.55,106.17v8.65A6.85,6.85,0,0,1,83,116.27a10,10,0,0,1-1.82.92,9.62,9.62,0,0,1-2,.52,13.83,13.83,0,0,1-2,.15,9.17,9.17,0,0,1-3.69-.73A8.22,8.22,0,0,1,70.54,115a10.32,10.32,0,0,1-2-3.59,17.75,17.75,0,0,1,0-9.94,10.23,10.23,0,0,1,2-3.57,8.41,8.41,0,0,1,3-2.17A9,9,0,0,1,77.17,95a9.46,9.46,0,0,1,3.4.6,8.53,8.53,0,0,1,2.83,1.82l-2.52,2.25a4.36,4.36,0,0,0-1.67-1.27,5.08,5.08,0,0,0-1.95-.4,5.38,5.38,0,0,0-2.14.43,4.48,4.48,0,0,0-1.82,1.44A7.27,7.27,0,0,0,72,102.46a15.63,15.63,0,0,0-.49,4,16.64,16.64,0,0,0,.47,4,8.22,8.22,0,0,0,1.22,2.73A5.22,5.22,0,0,0,75,114.67a4.47,4.47,0,0,0,2.08.51c.23,0,.52,0,.9,0A10.74,10.74,0,0,0,79.1,115a7.44,7.44,0,0,0,1.08-.29,1.56,1.56,0,0,0,.76-.52v-5.52h-3.8v-2.49Z"/><rect class="cls-5" x="13.33" y="28.87" width="33.31" height="33.46"/><rect class="cls-6" x="62.19" y="31.09" width="4.44" height="15.55"/><rect class="cls-6" x="62.19" y="64.41" width="4.44" height="15.55"/><path class="cls-6" d="M75.51,66.63H53.3V44.42H75.51ZM57.74,62.19H71.07V48.86H57.74Z"/><rect class="cls-6" x="73.29" y="53.3" width="15.55" height="4.44"/><rect class="cls-6" x="39.98" y="53.3" width="15.55" height="4.44"/></g></g></svg>