<svg xmlns="http://www.w3.org/2000/svg" viewBox="0 0 96.37 125.5"><defs><style>.cls-1{fill:#e9e9e0;}.cls-2{fill:#d9d7ca;}.cls-3{fill:#f3d55b;}.cls-4{fill:#26b99a;}.cls-5{fill:#14a085;}.cls-6{fill:#fff;}</style></defs><title>Recurso 13JPG</title><g id="Capa_2" data-name="Capa 2"><g id="Capa_1-2" data-name="Capa 1"><path class="cls-1" d="M68.32,0h-65C1.47,0,0,1.47,0,4.32V123.26c0,.77,1.47,2.24,3.28,2.24H93.09c1.81,0,3.28-1.47,3.28-2.24V29.08c0-1.56-.21-2.06-.58-2.43L69.71.58A2,2,0,0,0,68.32,0Z"/><polygon class="cls-2" points="69.47 0.34 69.47 26.89 96.03 26.89 69.47 0.34"/><circle class="cls-3" cx="27.86" cy="32.34" r="10.24"/><polygon class="cls-4" points="0 87.4 24.65 87.4 96.37 87.4 96.37 62.75 73.95 41.46 50.42 67.23 38.14 54.94 0 87.4"/><path class="cls-5" d="M93.09,125.5H3.28A3.28,3.28,0,0,1,0,122.22V87.4H96.37v34.82A3.28,3.28,0,0,1,93.09,125.5Z"/><path class="cls-6" d="M33.45,95.58v17.59a5.59,5.59,0,0,1-.58,2.68,4.89,4.89,0,0,1-1.56,1.75,6.39,6.39,0,0,1-2.26.91,12.59,12.59,0,0,1-2.62.27,10.8,10.8,0,0,1-1.57-.14,13.54,13.54,0,0,1-1.87-.43,19.33,19.33,0,0,1-1.86-.66,6.61,6.61,0,0,1-1.5-.83l1.56-2.48a5.39,5.39,0,0,0,.88.45,12.8,12.8,0,0,0,1.24.42c.45.14.92.25,1.41.36a6.92,6.92,0,0,0,1.38.15,4.71,4.71,0,0,0,2.59-.63,2.48,2.48,0,0,0,1-2.13V95.58Z"/><path class="cls-6" d="M42.61,118.62H38.93V96h6.5a9,9,0,0,1,2.85.46,7.88,7.88,0,0,1,2.53,1.38,7.21,7.21,0,0,1,1.8,2.22A6.15,6.15,0,0,1,53.3,103a8,8,0,0,1-.58,3.11,6.54,6.54,0,0,1-1.62,2.34A7.48,7.48,0,0,1,48.58,110a9.57,9.57,0,0,1-3.24.52H42.61v8.15Zm0-19.79v9H46a4.19,4.19,0,0,0,1.34-.23,3.69,3.69,0,0,0,1.21-.75,3.77,3.77,0,0,0,.88-1.46,6.7,6.7,0,0,0,.34-2.31,6.29,6.29,0,0,0-.15-1.27,3.73,3.73,0,0,0-.63-1.38,3.66,3.66,0,0,0-1.33-1.1,4.93,4.93,0,0,0-2.27-.45Z"/><path class="cls-6" d="M74,107v8.73a7,7,0,0,1-1.58,1.46,10.25,10.25,0,0,1-1.84.93,9.71,9.71,0,0,1-2,.52,12.84,12.84,0,0,1-2,.16,9.25,9.25,0,0,1-3.72-.74,8.21,8.21,0,0,1-3-2.17,10.34,10.34,0,0,1-2-3.62,17.83,17.83,0,0,1,0-10,10.24,10.24,0,0,1,2-3.6,8.42,8.42,0,0,1,3-2.19,9,9,0,0,1,3.71-.75,9.41,9.41,0,0,1,3.43.61,8.36,8.36,0,0,1,2.85,1.84l-2.54,2.26a4.37,4.37,0,0,0-1.69-1.28,5,5,0,0,0-2-.4,5.44,5.44,0,0,0-2.16.43,4.56,4.56,0,0,0-1.84,1.45,7.7,7.7,0,0,0-1.27,2.65,15.88,15.88,0,0,0-.49,4,16.45,16.45,0,0,0,.48,4A8,8,0,0,0,62.54,114a5.24,5.24,0,0,0,1.78,1.6,4.53,4.53,0,0,0,2.1.52c.22,0,.52,0,.9,0a11.12,11.12,0,0,0,1.14-.15,7.44,7.44,0,0,0,1.08-.29,1.61,1.61,0,0,0,.77-.52v-5.58H66.48V107Z"/></g></g></svg>