<svg xmlns="http://www.w3.org/2000/svg" viewBox="0 0 64.8 64.8"><defs><style>.cls-1{fill:#09f;}.cls-2{fill:#fff;}</style></defs><title>Recurso 11Fotos</title><g id="Capa_2" data-name="Capa 2"><g id="Capa_1-2" data-name="Capa 1"><rect class="cls-1" width="64.8" height="64.8" rx="9.6"/><path class="cls-2" d="M60.9,18.69l-7.14-1.26L53,13a2.88,2.88,0,0,0-3.33-2.33l-17.15,3-17.15-3A2.88,2.88,0,0,0,12,13l-.8,4.54L4.1,18.69A2.87,2.87,0,0,0,1.77,22L7,51.81a2.88,2.88,0,0,0,3.33,2.33l22.15-3.9,22.15,3.9A2.88,2.88,0,0,0,58,51.81L63.23,22A2.87,2.87,0,0,0,60.9,18.69Zm-11.67-3.9.34,1.9-5.55-1ZM8.13,35.06,5.9,22.43l4.6-.81h0ZM10.77,50l-.66-3.72L21,48.21Zm43.46,0L10.9,42.37l4.87-27.58,37.1,6.54,1.63.29h0l4.6.81Z"/><polygon class="cls-2" points="52.65 47.87 12.27 40.75 22.35 33.93 29.39 38.7 41.72 28.41 46.15 38.03 50.73 33.05 52.65 47.87"/><circle class="cls-2" cx="23" cy="24.4" r="4"/></g></g></svg>