<svg xmlns="http://www.w3.org/2000/svg" viewBox="0 0 47.78 49.63"><defs><style>.cls-1{fill:#2f7dbb;}.cls-2,.cls-3{fill:#1e1e1c;}.cls-3{font-size:0.98px;font-family:gobCL-Light, gobCL;}.cls-4{fill:#404040;}.cls-5{fill:gray;}.cls-6{fill:#dfdfdf;}</style></defs><title>Recurso 7Reportes</title><g id="Capa_2" data-name="Capa 2"><g id="Capa_1-2" data-name="Capa 1"><rect class="cls-1" x="27.12" y="8.64" width="20.66" height="1.98" rx="0.99" ry="0.99"/><rect class="cls-1" x="27.12" y="4.31" width="20.66" height="1.98" rx="0.99" ry="0.99"/><rect class="cls-1" x="26.88" y="12.97" width="20.66" height="1.98" rx="0.99" ry="0.99"/><rect class="cls-1" x="27.12" y="17.3" width="20.66" height="1.98" rx="0.99" ry="0.99"/><rect class="cls-1" x="1.07" y="34.58" width="20.66" height="1.98" rx="0.99" ry="0.99"/><rect class="cls-1" x="1.07" y="30.24" width="20.66" height="1.98" rx="0.99" ry="0.99"/><rect class="cls-1" x="0.82" y="38.91" width="20.66" height="1.98" rx="0.99" ry="0.99"/><rect class="cls-1" x="1.07" y="43.24" width="20.66" height="1.98" rx="0.99" ry="0.99"/><line class="cls-2" x1="1.34" y1="24.87" x2="22.24" y2="24.87"/><line class="cls-2" x1="1.34" y1="24.87" x2="1.34" y2="24.26"/><line class="cls-2" x1="4.83" y1="24.87" x2="4.83" y2="24.26"/><line class="cls-2" x1="8.31" y1="24.87" x2="8.31" y2="24.26"/><line class="cls-2" x1="11.79" y1="24.87" x2="11.79" y2="24.26"/><line class="cls-2" x1="15.28" y1="24.87" x2="15.28" y2="24.26"/><line class="cls-2" x1="18.76" y1="24.87" x2="18.76" y2="24.26"/><line class="cls-2" x1="22.24" y1="24.87" x2="22.24" y2="24.26"/><text class="cls-3" transform="translate(0.51 25.24)">0</text><text class="cls-3" transform="translate(0.51 20.36)">2</text><text class="cls-3" transform="translate(0.51 15.47)">4</text><text class="cls-3" transform="translate(0.51 10.59)">6</text><text class="cls-3" transform="translate(0.51 5.7)">8</text><text class="cls-3" transform="translate(0 0.82)">10</text><line class="cls-2" x1="1.34" y1="24.87" x2="1.34" y2="0.45"/><line class="cls-2" x1="1.34" y1="24.87" x2="1.87" y2="24.87"/><line class="cls-2" x1="1.34" y1="19.99" x2="1.87" y2="19.99"/><line class="cls-2" x1="1.34" y1="15.1" x2="1.87" y2="15.1"/><line class="cls-2" x1="1.34" y1="10.22" x2="1.87" y2="10.22"/><line class="cls-2" x1="1.34" y1="5.34" x2="1.87" y2="5.34"/><line class="cls-2" x1="1.34" y1="0.45" x2="1.87" y2="0.45"/><rect class="cls-2" x="1.83" y="0.45" width="2.51" height="24.42"/><rect class="cls-2" x="5.32" y="5.34" width="2.51" height="19.54"/><rect class="cls-2" x="8.8" y="12.66" width="2.51" height="12.21"/><rect class="cls-2" x="12.28" y="15.1" width="2.51" height="9.77"/><rect class="cls-2" x="15.77" y="15.1" width="2.51" height="9.77"/><rect class="cls-2" x="19.25" y="19.99" width="2.51" height="4.88"/><path class="cls-4" d="M37.46,39.84l-4.75-8.56a9.4,9.4,0,0,1,4.75-1.23Z"/><path class="cls-5" d="M37.46,39.84l-9.61,1.87a9.64,9.64,0,0,1,4.86-10.43Z"/><path class="cls-6" d="M37.46,39.84l5.75,7.92a9.8,9.8,0,0,1-13.67-2.17,9.25,9.25,0,0,1-1.69-3.88Z"/><path d="M37.46,39.84V30.05a9.78,9.78,0,0,1,9.78,9.79,9.51,9.51,0,0,1-4,7.92Z"/></g></g></svg>