<?xml version="1.0" standalone="no"?>
<!DOCTYPE svg PUBLIC "-//W3C//DTD SVG 20010904//EN"
 "http://www.w3.org/TR/2001/REC-SVG-20010904/DTD/svg10.dtd">
<svg version="1.0" xmlns="http://www.w3.org/2000/svg"
 width="1280.000000pt" height="1280.000000pt" viewBox="0 0 1280.000000 1280.000000"
 preserveAspectRatio="xMidYMid meet">
<g transform="translate(0.000000,1280.000000) scale(0.100000,-0.100000)"
fill="#000000" stroke="none">
<path d="M8773 11800 c-146 -21 -316 -97 -439 -194 -324 -256 -424 -685 -245
-1050 130 -266 386 -449 693 -497 102 -16 284 -6 388 20 334 86 598 355 665
677 18 86 20 245 4 329 -66 358 -379 653 -760 715 -72 11 -228 11 -306 0z"/>
<path d="M7930 9555 c-279 -44 -532 -185 -720 -402 -30 -35 -271 -393 -536
-796 l-481 -732 -769 -5 c-831 -5 -780 -2 -891 -59 -55 -27 -128 -111 -147
-168 -21 -60 -20 -166 0 -227 35 -103 153 -192 287 -216 35 -7 370 -10 923 -8
l869 3 66 31 c37 18 86 52 115 81 29 29 220 306 463 671 228 342 418 622 423
622 4 0 9 -1644 10 -3652 l3 -3653 21 -61 c86 -251 354 -392 623 -329 172 41
314 174 372 350 11 33 15 436 19 2180 l5 2140 225 3 c124 1 235 0 248 -3 l22
-5 0 -2123 c0 -2339 -4 -2175 62 -2299 18 -33 58 -84 92 -116 164 -152 398
-185 606 -85 68 33 188 151 219 216 54 112 51 -133 51 3784 0 1997 3 3638 6
3647 5 14 37 16 250 16 134 0 245 -1 246 -2 2 -2 5 -631 8 -1398 l5 -1395 29
-62 c37 -82 112 -152 191 -182 77 -29 204 -26 277 7 95 42 172 144 197 260 18
85 15 2862 -3 2964 -78 435 -457 823 -941 963 -191 55 -197 55 -1322 54 -812
-1 -1057 -4 -1123 -14z"/>
<path d="M3341 6952 c-162 -75 -296 -142 -298 -149 -5 -13 252 -579 272 -601
10 -11 69 13 311 124 164 75 303 140 307 144 11 10 -272 620 -287 620 -6 -1
-143 -63 -305 -138z"/>
<path d="M4195 5795 c-148 -107 -269 -199 -267 -205 5 -23 386 -550 395 -547
23 7 546 383 547 393 0 16 -380 549 -393 551 -7 1 -133 -86 -282 -192z"/>
<path d="M1700 5324 c0 -14 18 -121 40 -237 21 -117 94 -507 160 -867 66 -360
143 -774 170 -920 45 -241 168 -909 366 -1980 41 -223 77 -417 80 -433 l6 -27
1344 0 1344 0 5 23 c3 12 34 177 69 367 36 190 121 644 190 1010 283 1507 412
2188 492 2614 46 246 84 455 84 462 0 12 -49 14 -307 12 l-308 -3 -132 -690
c-72 -379 -169 -881 -213 -1115 -153 -795 -218 -1134 -305 -1590 -48 -250 -92
-461 -97 -467 -8 -10 -185 -13 -823 -13 -638 0 -815 3 -823 13 -5 6 -170 869
-366 1917 -196 1048 -361 1915 -366 1928 l-10 22 -300 0 -300 0 0 -26z"/>
<path d="M3567 4447 c-79 -150 -152 -286 -161 -303 l-15 -32 301 -161 c165
-89 303 -160 304 -158 2 2 76 138 165 302 122 227 157 300 147 306 -13 9 -508
274 -564 302 l-31 16 -146 -272z"/>
</g>
</svg>
